<?xml version="1.0" standalone="no"?>
<!DOCTYPE svg PUBLIC "-//W3C//DTD SVG 1.1//EN" "http://www.w3.org/Graphics/SVG/1.1/DTD/svg11.dtd" >
<svg>
<metadata>
Created by FontForge 20090914 at Sun Dec 12 21:41:21 2021
 By www-data
Copyright (c) 2011 by Brian J. Bonislawsky DBA Astigmatic (AOETI) (astigma@astigmatic.com), with ReservedFont Name "Stint Ultra Condensed"
</metadata>
<defs>
<font id="StintUltraCondensed-Regular" horiz-adv-x="614" >
  <font-face 
    font-family="Stint Ultra Condensed"
    font-weight="400"
    font-stretch="ultra-condensed"
    units-per-em="2048"
    panose-1="2 6 5 8 4 6 4 2 2 6"
    ascent="1638"
    descent="-410"
    x-height="952"
    cap-height="1374"
    bbox="-186 -483 1456 1829"
    underline-thickness="102"
    underline-position="-103"
    unicode-range="U+0020-U+FB02"
  />
<missing-glyph horiz-adv-x="512" 
 />
    <glyph glyph-name="fi" unicode="fi" horiz-adv-x="713" 
d="M238 113l109.999 0.00292969v-113h-317v113h82v727h-82v112h82v109c0 54 7 101.667 21 143s33 76.166 57 104.499s52.333 49.833 85 64.5s67.667 22 105 22c22.667 0 43.167 -2.66699 61.5 -8s34.833 -11.833 49.5 -19.5s27.5 -15.834 38.5 -24.501
s20.5 -16.667 28.5 -24l-45 -98c-13.333 15.333 -30 30 -50 44s-42.333 21 -67 21c-22.667 0 -43.667 -4.66699 -63 -14s-36.166 -23.333 -50.499 -42s-25.5 -41.834 -33.5 -69.501s-12 -59.5 -12 -95.5v-113h362v-839h100v-113h-307v113h82v727h-237v-727z" />
    <glyph glyph-name="fl" unicode="fl" horiz-adv-x="733" 
d="M31 952h82.001v109c0 54 6.66699 101.667 20 143s31.833 76.166 55.5 104.499s51.667 49.833 84 64.5s67.166 22 104.499 22c18.667 0 36.5 -2 53.5 -6s32.5 -9 46.5 -15h123v-1153c0 -25.333 2 -45.166 6 -59.499s10 -25 18 -32s18.167 -11.5 30.5 -13.5
s26.833 -3 43.5 -3h27v-113h-25c-38 -0 -71 3.33301 -99 10s-51.333 18.834 -70 36.501s-32.667 41.5 -42 71.5s-14 68.333 -14 115v1024c-10 7.33301 -21.333 14 -34 20s-27.334 9 -44.001 9c-22.667 0 -43.667 -4.66699 -63 -14s-36.166 -23.333 -50.499 -42
s-25.5 -41.834 -33.5 -69.501s-12 -59.5 -12 -95.5v-113h149v-112h-149v-727h122v-113h-329v113h82v727h-82v112z" />
    <glyph glyph-name=".notdef" horiz-adv-x="512" 
 />
    <glyph glyph-name="space" unicode=" " horiz-adv-x="340" 
 />
    <glyph glyph-name="exclam" unicode="!" horiz-adv-x="391" 
d="M238 328h-84l-29 829v166c0 19.333 5.16699 36.833 15.5 52.5s28.5 23.5 54.5 23.5c25.333 0 43.5 -7.83301 54.5 -23.5s16.5 -33.167 16.5 -52.5v-166zM90 94c0 14.667 2.66699 28.667 8 42s12.666 24.666 21.999 33.999s20.333 16.833 33 22.5s26.667 8.5 42 8.5
c14.667 0 28.5 -2.83301 41.5 -8.5s24.167 -13.167 33.5 -22.5s16.833 -20.666 22.5 -33.999s8.5 -27.333 8.5 -42c0 -30 -10.167 -54.833 -30.5 -74.5s-45.5 -29.5 -75.5 -29.5c-15.333 0 -29.333 2.66699 -42 8s-23.667 12.666 -33 21.999s-16.666 20.333 -21.999 33
s-8 26.334 -8 41.001z" />
    <glyph glyph-name="quotedbl" unicode="&#x22;" horiz-adv-x="389" 
d="M61 969l-20 405h123l-21 -405h-82zM246 969l-21 405h123l-20 -405h-82z" />
    <glyph glyph-name="numbersign" unicode="#" horiz-adv-x="743" 
d="M551 891l-35 -406h123v-92h-131l-35 -393h-100l35 393h-123l-35 -393h-100l34 393h-123v92h129l37 406h-123v92h132l34 391h101l-35 -391h123l35 391h100l-35 -391h123v-92h-131zM328 891l-37 -406h125l35 406h-123z" />
    <glyph glyph-name="dollar" unicode="$" horiz-adv-x="645" 
d="M49 0l-0.00292969 417.999h107v-101c0 -34 3.5 -63.5 10.5 -88.5s16.333 -46 28 -63s24.667 -30.167 39 -39.5s28.5 -16 42.5 -20v562c-26.667 18.667 -52.667 38.5 -78 59.5s-48 45.5 -68 73.5s-36.167 61 -48.5 99s-18.5 83.333 -18.5 136
c0 57.333 6.33301 106.5 19 147.5s29.334 75 50.001 102s43.5 47.333 68.5 61s50.167 22.167 75.5 25.5v111h91v-121c33.333 -12.667 62 -36 86 -70v82h106v-375h-106v93c0 25.333 -2.5 47.666 -7.5 66.999s-11.667 35.833 -20 49.5s-17.666 24.834 -27.999 33.501
s-20.5 15.334 -30.5 20.001v-510l82 -65c27.333 -22.667 51.833 -49 73.5 -79s39.334 -65 53.001 -105s20.5 -87.667 20.5 -143c0 -65.333 -7.16699 -120.166 -21.5 -164.499s-32.833 -80.5 -55.5 -108.5s-47.5 -48.833 -74.5 -62.5s-52.833 -21.834 -77.5 -24.501v-109h-91
v117c-48 12 -88 41.333 -120 88v-96h-107zM474.997 355.999c0 29.333 -2.83203 55.832 -8.49902 79.499s-13.334 45.167 -23.001 64.5s-21 37 -34 53s-27.167 31 -42.5 45v-481c14.667 6.66699 28.5 16.5 41.5 29.5s24.5 29.333 34.5 49s17.833 42.834 23.5 69.501
s8.5 57 8.5 91zM181.998 1036c0 -49.333 8.83301 -90.833 26.5 -124.5s40.167 -63.167 67.5 -88.5v432c-26.667 -14 -49 -39 -67 -75s-27 -84 -27 -144z" />
    <glyph glyph-name="percent" unicode="%" horiz-adv-x="881" 
d="M270 0h-98l440 1374h97zM401 1049c0 -54 -4.33301 -102.5 -13 -145.5s-20.834 -79.833 -36.501 -110.5s-34.167 -54.167 -55.5 -70.5s-45 -24.5 -71 -24.5c-25.333 0 -48.833 8.16699 -70.5 24.5s-40.334 39.833 -56.001 70.5s-27.834 67.5 -36.501 110.5
s-13 91.5 -13 145.5c0 54.667 4.33301 103.667 13 147s20.834 80 36.501 110s34.334 53 56.001 69s45.167 24 70.5 24c26 0 49.667 -8 71 -24s39.833 -39 55.5 -69s27.834 -66.667 36.501 -110s13 -92.333 13 -147zM295 1049c0 35.333 -1.33301 69 -4 101
s-6.83398 60 -12.501 84s-13 43.167 -22 57.5s-19.5 21.5 -31.5 21.5c-12.667 0 -23.334 -7.16699 -32.001 -21.5s-15.834 -33.5 -21.501 -57.5s-9.66699 -52 -12 -84s-3.5 -65.667 -3.5 -101s1.16699 -68.833 3.5 -100.5s6.33301 -59.834 12 -84.501
s12.834 -44.167 21.501 -58.5s19.334 -21.5 32.001 -21.5c12 0 22.5 7.16699 31.5 21.5s16.333 33.833 22 58.5s9.83398 52.834 12.501 84.501s4 65.167 4 100.5zM831 324c0 -54 -4.33301 -102.5 -13 -145.5s-20.834 -79.833 -36.501 -110.5s-34.167 -54.167 -55.5 -70.5
s-45 -24.5 -71 -24.5c-25.333 0 -48.833 8.16699 -70.5 24.5s-40.334 39.833 -56.001 70.5s-27.834 67.5 -36.501 110.5s-13 91.5 -13 145.5c0 54.667 4.33301 103.667 13 147s20.834 80 36.501 110s34.334 53 56.001 69s45.167 24 70.5 24c26 0 49.667 -8 71 -24
s39.833 -39 55.5 -69s27.834 -66.667 36.501 -110s13 -92.333 13 -147zM725 324c0 35.333 -1.33301 69 -4 101s-6.83398 60 -12.501 84s-12.834 43.167 -21.501 57.5s-19.334 21.5 -32.001 21.5s-23.334 -7.16699 -32.001 -21.5s-15.834 -33.5 -21.501 -57.5
s-9.66699 -52 -12 -84s-3.5 -65.667 -3.5 -101s1.16699 -68.833 3.5 -100.5s6.33301 -59.834 12 -84.501s12.834 -44.167 21.501 -58.5s19.334 -21.5 32.001 -21.5s23.334 7.16699 32.001 21.5s15.834 33.833 21.501 58.5s9.83398 52.834 12.501 84.501s4 65.167 4 100.5z
" />
    <glyph glyph-name="ampersand" unicode="&#x26;" horiz-adv-x="862" 
d="M809 313c-10.667 -104.667 -33.832 -185.998 -69.499 -243.998s-80.834 -87 -135.501 -87c-14 0 -26.5 1.33301 -37.5 4s-21.5 6.83398 -31.5 12.501s-20 12.5 -30 20.5s-20.667 17.333 -32 28c-24.667 -25.333 -51 -44 -79 -56s-61.667 -18 -101 -18
c-33.333 0 -64.833 6.66699 -94.5 20s-55.5 34.333 -77.5 63s-39.5 65.667 -52.5 111s-19.5 100.333 -19.5 165c0 45.333 4.33301 88.166 13 128.499s20.167 78.166 34.5 113.499s30.833 68.333 49.5 99s38.334 59 59.001 85c-7.33301 25.333 -14.666 52.5 -21.999 81.5
s-14 58.333 -20 88s-10.833 59.167 -14.5 88.5s-5.5 57.333 -5.5 84c0 52 5.16699 96.833 15.5 134.5s24.666 68.667 42.999 93s39.833 42.333 64.5 54s51.334 17.5 80.001 17.5c24.667 0 48 -5.83301 70 -17.5s41.167 -28 57.5 -49s29.166 -46.667 38.499 -77
s14 -63.833 14 -100.5c0 -45.333 -5.83301 -87.833 -17.5 -127.5s-26.5 -77 -44.5 -112s-38 -67.5 -60 -97.5s-43.333 -57.667 -64 -83l32.5 -119l36.5 -124.5l38.5 -121.5c13 -39.333 26.167 -76 39.5 -110c10.667 26.667 20.167 54.667 28.5 84s15.5 58.666 21.5 87.999
s11 58.333 15 87s7 55.667 9 81h-98v113h311v-113h-102c-4.66699 -34 -10.334 -70.833 -17.001 -110.5s-15 -79.667 -25 -120s-22 -80 -36 -119s-30.333 -75.5 -49 -109.5c11.333 -16 22.5 -29.167 33.5 -39.5s21.5 -15.5 31.5 -15.5c14 0 26.5 5.33301 37.5 16
s20.5 26 28.5 46s14.833 44 20.5 72s10.5 59 14.5 93h98zM311.002 78.002c21.333 0 40.667 5.00098 58 15.001s34.333 25.333 51 46c-19.333 38 -38 80.667 -56 128s-34.5 94.166 -49.5 140.499l-40.5 129l-28 94.5c-21.333 -30 -39 -70.333 -53 -121
s-21 -107.334 -21 -170.001c0 -34 2.83301 -66.833 8.5 -98.5s14.167 -59.667 25.5 -84s25.833 -43.666 43.5 -57.999s38.167 -21.5 61.5 -21.5zM262.003 1102c0 -41.333 3.99902 -84.0029 11.999 -128.003s17 -82.667 27 -116c19.333 24.667 35.833 47.667 49.5 69
s24.667 43 33 65s14.5 45.333 18.5 70s6 53 6 85c0 18 -1.16699 35.833 -3.5 53.5s-6.16602 33.334 -11.499 47.001s-12 24.834 -20 33.501s-17.667 13 -29 13c-22.667 0 -42 -14.667 -58 -44s-24 -78.666 -24 -147.999z" />
    <glyph glyph-name="quotesingle" unicode="'" horiz-adv-x="205" 
d="M61 969l-20 405h123l-21 -405h-82z" />
    <glyph glyph-name="parenleft" unicode="(" horiz-adv-x="440" 
d="M195 684c0 -75.333 4.33301 -149.503 13 -222.503s20.834 -142.333 36.501 -208s34.5 -126.667 56.5 -183s46.667 -105.166 74 -146.499l-82 -65c-34 46.667 -65 100.167 -93 160.5s-52 125.666 -72 195.999s-35.333 144.833 -46 223.5s-16 160.334 -16 245.001
s5.33301 166.334 16 245.001s26 153.167 46 223.5s44 135.5 72 195.5s59 113.667 93 161l82 -65c-27.333 -41.333 -52 -90.166 -74 -146.499s-40.833 -117.333 -56.5 -183s-27.834 -135 -36.501 -208s-13 -147.167 -13 -222.5z" />
    <glyph glyph-name="parenright" unicode=")" horiz-adv-x="440" 
d="M246 684c0 75.333 -4.33301 149.503 -13 222.503s-20.834 142.333 -36.501 208s-34.667 126.667 -57 183s-46.833 105.166 -73.5 146.499l81 65c34.667 -47.333 66 -101 94 -161s52 -125.167 72 -195.5s35.333 -144.833 46 -223.5s16 -160.334 16 -245.001
s-5.33301 -166.334 -16 -245.001s-26 -153.167 -46 -223.5s-44 -135.666 -72 -195.999s-59.333 -113.833 -94 -160.5l-81 65c26.667 41.333 51.167 90.166 73.5 146.499s41.333 117.333 57 183s27.834 135 36.501 208s13 147.167 13 222.5z" />
    <glyph glyph-name="asterisk" unicode="*" horiz-adv-x="645" 
d="M539 938l-178.999 108.999c1.33301 -31.333 3.16602 -64 5.49902 -98s4.16602 -66.333 5.49902 -97h-97l11 197c-29.333 -17.333 -58.833 -36 -88.5 -56s-58.834 -38.333 -87.501 -55l-48 76l185 98l-93.5 51l-91.5 49l48 76l176 -106
c-1.33301 30.667 -3.16602 62.834 -5.49902 96.501s-4.16602 65.5 -5.49902 95.5h97l-11 -192l90 53.5l89 52.5l45 -76l-187 -100l92.5 -48l94.5 -50z" />
    <glyph glyph-name="plus" unicode="+" horiz-adv-x="936" 
d="M522 631v-285h-108v285h-281v108h281v285h108v-285h281v-108h-281z" />
    <glyph glyph-name="comma" unicode="," horiz-adv-x="309" 
d="M49 94c0 14.667 2.66992 28.668 8.00293 42.001s12.666 24.666 21.999 33.999s20.333 16.833 33 22.5s26.667 8.5 42 8.5c30.667 0 56 -10.333 76 -31s30 -50 30 -88c0 -28 -3.66699 -56 -11 -84s-17.333 -55 -30 -81s-27.167 -50.5 -43.5 -73.5
s-33.833 -43.833 -52.5 -62.5l-57 47c21.333 23.333 40.333 47.833 57 73.5s27.667 55.167 33 88.5c-19.333 0 -35.833 3 -49.5 9s-24.834 14 -33.501 24s-14.834 21.167 -18.501 33.5s-5.5 24.833 -5.5 37.5z" />
    <glyph glyph-name="hyphen" unicode="-" horiz-adv-x="463" 
d="M66 424v123h331v-123h-331z" />
    <glyph glyph-name="period" unicode="." horiz-adv-x="309" 
d="M49 94c0 14.667 2.66699 28.667 8 42s12.666 24.666 21.999 33.999s20.333 16.833 33 22.5s26.667 8.5 42 8.5c14.667 0 28.5 -2.83301 41.5 -8.5s24.167 -13.167 33.5 -22.5s16.833 -20.666 22.5 -33.999s8.5 -27.333 8.5 -42c0 -30 -10.167 -54.833 -30.5 -74.5
s-45.5 -29.5 -75.5 -29.5c-15.333 0 -29.333 2.66699 -42 8s-23.667 12.666 -33 21.999s-16.666 20.333 -21.999 33s-8 26.334 -8 41.001z" />
    <glyph glyph-name="slash" unicode="/" horiz-adv-x="477" 
d="M162 -41h-117l270 1477h117z" />
    <glyph glyph-name="zero" unicode="0" horiz-adv-x="682" 
d="M633 686c0 -125.333 -7.33301 -233 -22 -323s-35 -163.833 -61 -221.5s-56.833 -100.167 -92.5 -127.5s-74.167 -41 -115.5 -41c-42 0 -80.833 13.667 -116.5 41s-66.667 69.833 -93 127.5s-46.833 131.5 -61.5 221.5s-22 197.667 -22 323c0 124.667 7.33301 232 22 322
s35.167 164 61.5 222s57.333 100.667 93 128s74.5 41 116.5 41c41.333 0 79.833 -13.667 115.5 -41s66.5 -70 92.5 -128s46.333 -132 61 -222s22 -197.333 22 -322zM506 686c0 107.333 -4.16699 199.166 -12.5 275.499s-19.833 138.833 -34.5 187.5s-32 84.334 -52 107.001
s-41.667 34 -65 34s-45.166 -11.333 -65.499 -34s-38 -58.334 -53 -107.001s-26.667 -111.167 -35 -187.5s-12.5 -168.166 -12.5 -275.499s4.16699 -199.166 12.5 -275.499s20 -138.833 35 -187.5s32.667 -84.334 53 -107.001s42.166 -34 65.499 -34s45 11.333 65 34
s37.333 58.5 52 107.5s26.167 111.5 34.5 187.5s12.5 167.667 12.5 275z" />
    <glyph glyph-name="one" unicode="1" horiz-adv-x="467" 
d="M47 113h133v1151l-164 -103v111l164 102h123v-1261h133v-113h-389v113z" />
    <glyph glyph-name="two" unicode="2" horiz-adv-x="602" 
d="M20 0l0.000976562 84c60 84.667 113.833 165.834 161.5 243.501s88.167 154.5 121.5 230.5s58.833 153 76.5 231s26.5 159.667 26.5 245c0 33.333 -2.16699 65.333 -6.5 96s-11.166 57.834 -20.499 81.501s-22 42.667 -38 57s-35.333 21.5 -58 21.5
c-42 0 -73.667 -29.333 -95 -88s-32 -151.334 -32 -278.001h-127c0 86.667 7 160.167 21 220.5s32.5 109.333 55.5 147s49.667 65 80 82s61.5 25.5 93.5 25.5c41.333 0 77.666 -9.33301 108.999 -28s57.666 -44.667 78.999 -78s37.5 -73 48.5 -119s16.5 -96 16.5 -150
c0 -128 -29.5 -267.833 -88.5 -419.5s-148.833 -314.834 -269.5 -489.501h266v274h109v-389h-529z" />
    <glyph glyph-name="three" unicode="3" horiz-adv-x="616" 
d="M328 854c53.333 -13.333 95.833 -36.1641 127.5 -68.4971s55.667 -69 72 -110s27 -83.667 32 -128s7.5 -84.833 7.5 -121.5c0 -72 -6.33301 -136.167 -19 -192.5s-31 -103.833 -55 -142.5s-52.833 -68 -86.5 -88s-71.5 -30 -113.5 -30c-35.333 0 -68.5 8.5 -99.5 25.5
s-58.167 44.5 -81.5 82.5s-41.666 87.167 -54.999 147.5s-20 133.833 -20 220.5h123c0 -127.333 11.333 -220.333 34 -279s57.667 -88 105 -88c26 0 48 9.16699 66 27.5s32.5 43.166 43.5 74.499s19 67.666 24 108.999s7.5 85 7.5 131c0 50 -4 95.5 -12 136.5
s-20.833 76.167 -38.5 105.5s-40.834 52.166 -69.501 68.499s-63.667 24.833 -105 25.5v108l205 392h-248v-216h-109v330h498v-86z" />
    <glyph glyph-name="four" unicode="4" horiz-adv-x="651" 
d="M240 113h122v245h-337v105l299 911h159v-909h142v-107h-142v-245h123v-113h-366v113zM362 1178l-231 -713h231v713z" />
    <glyph glyph-name="five" unicode="5" horiz-adv-x="618" 
d="M182 834c21.333 24.667 43.8311 40.999 67.498 48.999s48.5 12 74.5 12c38 0 72.167 -11.667 102.5 -35s56 -55.833 77 -97.5s37.167 -91.167 48.5 -148.5s17 -120 17 -188c0 -62.667 -5 -121.5 -15 -176.5s-25.5 -103 -46.5 -144s-48.167 -73.333 -81.5 -97
s-73 -35.5 -119 -35.5c-34 -1.33301 -66.833 6.33398 -98.5 23.001s-60 43.167 -85 79.5s-45 83.5 -60 141.5s-22.5 127.667 -22.5 209h125c0 -116.667 13.5 -203.5 40.5 -260.5s60.5 -85.5 100.5 -85.5c22.667 0 42.334 8.5 59.001 25.5s30.667 40.833 42 71.5
s19.833 67.167 25.5 109.5s8.5 88.833 8.5 139.5c0 117.333 -11.667 207 -35 269s-60.666 93 -111.999 93c-30 0 -55.833 -9.83301 -77.5 -29.5s-38.167 -49.167 -49.5 -88.5h-102l24 704h434v-114h-325z" />
    <glyph glyph-name="six" unicode="6" horiz-adv-x="641" 
d="M178 713c4.66699 12 11.499 27.333 20.499 46s21 36.834 36 54.501s33.167 32.667 54.5 45s46.666 18.5 75.999 18.5c32.667 0 63.334 -9.33301 92.001 -28s53.5 -46.667 74.5 -84s37.667 -84.166 50 -140.499s18.5 -122.5 18.5 -198.5
c0 -62.667 -5.83301 -121.5 -17.5 -176.5s-28.5 -103 -50.5 -144s-49 -73.333 -81 -97s-68.333 -35.5 -109 -35.5s-78.5 13.833 -113.5 41.5s-65.5 69.334 -91.5 125.001s-46.5 125.5 -61.5 209.5s-22.5 182.667 -22.5 296c0 116 5.66699 220.5 17 313.5
s28.833 172.167 52.5 237.5s53.667 115.5 90 150.5s79.5 52.5 129.5 52.5c32 0 62.333 -8.83301 91 -26.5s53.834 -43.834 75.501 -78.501s38.667 -77.834 51 -129.501s18.5 -111.5 18.5 -179.5h-123c0 99.333 -9.83301 175 -29.5 227s-49.5 78 -89.5 78
c-28 0 -52 -15.5 -72 -46.5s-36.333 -72.833 -49 -125.5s-22 -113.834 -28 -183.501s-9 -143.5 -9 -221.5zM339.999 768c-20.667 0 -39.334 -9.66504 -56.001 -28.998s-31.5 -43 -44.5 -71s-23.833 -58 -32.5 -90s-15 -60.667 -19 -86c-1.33301 -50 1.5 -99.333 8.5 -148
s17.333 -92.5 31 -131.5s30.334 -70.5 50.001 -94.5s41.167 -36 64.5 -36c21.333 0 40.333 8.16699 57 24.5s30.667 39.5 42 69.5s19.833 66.167 25.5 108.5s8.5 89.5 8.5 141.5c0 53.333 -2.66699 101.166 -8 143.499s-13.5 78.166 -24.5 107.499s-25 51.833 -42 67.5
s-37.167 23.5 -60.5 23.5z" />
    <glyph glyph-name="seven" unicode="7" horiz-adv-x="539" 
d="M25 1004l-0.000976562 369.999h530v-69c-83.333 -173.333 -148.166 -367.666 -194.499 -582.999s-69.5 -456 -69.5 -722h-131c0 162 9.16699 308.5 27.5 439.5s40.5 248 66.5 351s53.5 193.167 82.5 270.5l75.5 199h-279v-256h-108z" />
    <glyph glyph-name="eight" unicode="8" horiz-adv-x="659" 
d="M428 750c60.667 -22.667 106.174 -66.6641 136.507 -131.997s45.5 -146.333 45.5 -243c0 -59.333 -6.33301 -113.666 -19 -162.999s-31 -91.666 -55 -126.999s-53.333 -62.833 -88 -82.5s-74 -29.5 -118 -29.5s-83.333 9.83301 -118 29.5s-64.167 47.167 -88.5 82.5
s-42.833 77.666 -55.5 126.999s-19 103.666 -19 162.999c0 48 4 92.667 12 134s19.667 78.166 35 110.499s34.333 60 57 83s48.667 40.167 78 51.5c-24 14 -44.833 32.167 -62.5 54.5s-32.334 46.666 -44.001 72.999s-20.334 54.166 -26.001 83.499s-8.5 58 -8.5 86
c0 51.333 5.66699 98.333 17 141s27.5 79.334 48.5 110.001s46.167 54.5 75.5 71.5s61.666 25.5 96.999 25.5s67.666 -8.5 96.999 -25.5s54.666 -40.833 75.999 -71.5s38 -67.334 50 -110.001s18 -89.667 18 -141c0 -28 -2.83301 -56.833 -8.5 -86.5
s-14.334 -58 -26.001 -85s-26.334 -51.833 -44.001 -74.5s-38.5 -41 -62.5 -55zM446.007 1044c0 32.667 -2.16895 64 -6.50195 94s-11 56.5 -20 79.5s-21 41.167 -36 54.5s-32.833 20 -53.5 20c-21.333 0 -39.5 -6.66699 -54.5 -20s-27.167 -31.5 -36.5 -54.5
s-16 -49.5 -20 -79.5s-6 -61.333 -6 -94s2.33301 -64 7 -94s11.834 -56.333 21.501 -79s21.834 -40.667 36.501 -54s32 -20 52 -20s37.333 6.66699 52 20s26.667 31.333 36 54s16.333 49 21 79s7 61.333 7 94zM330.005 696.003c-48.667 0 -86.5 -27 -113.5 -81
s-40.5 -129.333 -40.5 -226c0 -96 13 -171.5 39 -226.5s64.333 -82.5 115 -82.5c50 0 88 27.5 114 82.5s39 130.5 39 226.5c0 48 -3.5 91 -10.5 129s-17.167 70.167 -30.5 96.5s-29.5 46.5 -48.5 60.5s-40.167 21 -63.5 21z" />
    <glyph glyph-name="nine" unicode="9" horiz-adv-x="641" 
d="M463 659c-4.66699 -12 -11.499 -27.334 -20.499 -46.001s-21 -36.667 -36 -54s-33.167 -32.166 -54.5 -44.499s-46.666 -18.5 -75.999 -18.5c-32.667 0 -63.334 9.16699 -92.001 27.5s-53.5 46.166 -74.5 83.499s-37.667 84.166 -50 140.499s-18.5 122.5 -18.5 198.5
c0 62.667 5.66699 121.5 17 176.5s28 103 50 144s49 73.333 81 97s68.667 35.5 110 35.5c40.667 0 78.5 -13.833 113.5 -41.5s65.5 -69.334 91.5 -125.001s46.5 -125.5 61.5 -209.5s22.5 -182.667 22.5 -296c0 -116 -5.66699 -220.5 -17 -313.5
s-28.833 -172.167 -52.5 -237.5s-53.667 -115.5 -90 -150.5s-79.5 -52.5 -129.5 -52.5c-32 0 -62.333 8.83301 -91 26.5s-53.834 43.834 -75.501 78.501s-38.667 77.834 -51 129.501s-18.5 111.5 -18.5 179.5h123c0 -99.333 9.83301 -175 29.5 -227s49.5 -78 89.5 -78
c28 0 52 15.5 72 46.5s36.333 72.833 49 125.5s22 113.834 28 183.501s9 143.5 9 221.5zM301.001 603.999c20.667 0 39.334 9.66504 56.001 28.998s31.5 43 44.5 71s23.833 58 32.5 90s15 61 19 87c1.33301 49.333 -1.5 98.5 -8.5 147.5s-17.333 92.833 -31 131.5
s-30.334 70 -50.001 94s-41.167 36 -64.5 36c-21.333 0 -40.333 -8.16699 -57 -24.5s-30.667 -39.5 -42 -69.5s-19.833 -66.167 -25.5 -108.5s-8.5 -89.5 -8.5 -141.5c0 -53.333 2.66699 -101.166 8 -143.499s13.5 -78.166 24.5 -107.499s25 -51.833 42 -67.5
s37.167 -23.5 60.5 -23.5z" />
    <glyph glyph-name="colon" unicode=":" horiz-adv-x="391" 
d="M90 94c0 14.667 2.66699 28.667 8 42s12.666 24.666 21.999 33.999s20.333 16.833 33 22.5s26.667 8.5 42 8.5c14.667 0 28.5 -2.83301 41.5 -8.5s24.167 -13.167 33.5 -22.5s16.833 -20.666 22.5 -33.999s8.5 -27.333 8.5 -42c0 -30 -10.167 -54.833 -30.5 -74.5
s-45.5 -29.5 -75.5 -29.5c-15.333 0 -29.333 2.66699 -42 8s-23.667 12.666 -33 21.999s-16.666 20.333 -21.999 33s-8 26.334 -8 41.001zM90 709c0 14.667 2.66797 28.499 8.00098 41.499s12.666 24.167 21.999 33.5s20.333 16.833 33 22.5s26.667 8.5 42 8.5
c30 0 55.167 -10.167 75.5 -30.5s30.5 -45.5 30.5 -75.5c0 -15.333 -2.83301 -29.333 -8.5 -42s-13.167 -23.667 -22.5 -33s-20.5 -16.666 -33.5 -21.999s-26.833 -8 -41.5 -8c-30 0 -55 10 -75 30s-30 45 -30 75z" />
    <glyph glyph-name="semicolon" unicode=";" horiz-adv-x="391" 
d="M90 709c0 14.667 2.66797 28.499 8.00098 41.499s12.666 24.167 21.999 33.5s20.333 16.833 33 22.5s26.667 8.5 42 8.5c30 0 55.167 -10.167 75.5 -30.5s30.5 -45.5 30.5 -75.5c0 -15.333 -2.83301 -29.333 -8.5 -42s-13.167 -23.667 -22.5 -33
s-20.5 -16.666 -33.5 -21.999s-26.833 -8 -41.5 -8c-30 0 -55 10 -75 30s-30 45 -30 75zM90.001 93.999c0 14.667 2.66992 28.668 8.00293 42.001s12.666 24.666 21.999 33.999s20.333 16.833 33 22.5s26.667 8.5 42 8.5c30.667 0 56 -10.333 76 -31s30 -50 30 -88
c0 -28 -3.66699 -56 -11 -84s-17.333 -55 -30 -81s-27.167 -50.5 -43.5 -73.5s-33.833 -43.833 -52.5 -62.5l-58 47c22 23.333 41.333 47.833 58 73.5s27.667 55.167 33 88.5c-19.333 0 -35.833 3 -49.5 9s-24.834 14 -33.501 24s-14.834 21.167 -18.501 33.5
s-5.5 24.833 -5.5 37.5z" />
    <glyph glyph-name="less" unicode="&#x3c;" horiz-adv-x="936" 
d="M813 322l-700 315v94l700 316v-113l-555 -250l555 -248v-114z" />
    <glyph glyph-name="equal" unicode="=" horiz-adv-x="936" 
d="M113 801v108h710v-108h-710zM113 459v110h710v-110h-710z" />
    <glyph glyph-name="greater" unicode="&#x3e;" horiz-adv-x="936" 
d="M123 1047l700 -316v-94l-700 -315v112l555 250l-555 248v115z" />
    <glyph glyph-name="question" unicode="?" horiz-adv-x="545" 
d="M268 1290c-32.667 0 -56.834 -27.333 -72.501 -82s-23.5 -135.667 -23.5 -243h-127c0 76 4.66699 141.5 14 196.5s23.5 100 42.5 135s42.667 60.833 71 77.5s61.5 25 99.5 25c28.667 0 56 -7.16699 82 -21.5s48.833 -37.5 68.5 -69.5s35.334 -73.333 47.001 -124
s17.5 -112.334 17.5 -185.001c0 -76.667 -6.16699 -141.5 -18.5 -194.5s-27.833 -96.833 -46.5 -131.5s-39 -61.5 -61 -80.5s-42.667 -32.833 -62 -41.5v-223h-121v297c26 4 50 13.5 72 28.5s41 37.333 57 67s28.5 67.834 37.5 114.501s13.5 103.667 13.5 171
c0 56.667 -2.5 103.334 -7.5 140.001s-11.667 65.667 -20 87s-17.833 36.166 -28.5 44.499s-22 12.5 -34 12.5zM129 94c0 14.667 2.66699 28.667 8 42s12.666 24.666 21.999 33.999s20.333 16.833 33 22.5s26.334 8.5 41.001 8.5s28.667 -2.83301 42 -8.5
s24.666 -13.167 33.999 -22.5s16.833 -20.666 22.5 -33.999s8.5 -27.333 8.5 -42s-2.83301 -28.334 -8.5 -41.001s-13.167 -23.667 -22.5 -33s-20.666 -16.666 -33.999 -21.999s-27.333 -8 -42 -8c-30 0 -54.833 9.83301 -74.5 29.5s-29.5 44.5 -29.5 74.5z" />
    <glyph glyph-name="at" unicode="@" horiz-adv-x="1165" 
d="M684 436c-7.33301 -12.667 -16.3291 -25.6689 -26.9961 -39.002s-23.167 -25.333 -37.5 -36s-30.5 -19.5 -48.5 -26.5s-37.667 -10.5 -59 -10.5c-24.667 0 -48 4.33301 -70 13s-41.5 22.834 -58.5 42.501s-30.5 45.667 -40.5 78s-15 72.5 -15 120.5
c0 66.667 9.16699 129 27.5 187s41.666 108.333 69.999 151s60.166 76.167 95.499 100.5s70 36.5 104 36.5c12 0 23.5 -1.83301 34.5 -5.5s21.167 -8.16699 30.5 -13.5s17.666 -11.5 24.999 -18.5s13.333 -13.833 18 -20.5l8 43h119l-72 -432
c-1.33301 -9.33301 -2.83301 -19 -4.5 -29s-3 -19.333 -4 -28s-1.83301 -16.167 -2.5 -22.5s-1 -10.5 -1 -12.5c0 -30 5.83301 -52.5 17.5 -67.5s27.167 -22.5 46.5 -22.5c20.667 0 40.167 9.5 58.5 28.5s34.333 45 48 78s24.5 71.5 32.5 115.5s12 91.333 12 142
c0 82.667 -9 156 -27 220s-43.5 117.833 -76.5 161.5s-72.667 76.834 -119 99.501s-97.833 34 -154.5 34c-62 0 -119.667 -16.833 -173 -50.5s-99.5 -79.834 -138.5 -138.501s-69.5 -127.667 -91.5 -207s-33 -164.666 -33 -255.999c0 -88.667 9.83301 -168.167 29.5 -238.5
s47.834 -130 84.501 -179s81 -86.5 133 -112.5s110.333 -39 175 -39c18 0 37.5 1.83301 58.5 5.5s42.833 9.66699 65.5 18s45.5 19.166 68.5 32.499s45.5 30 67.5 50l51 -110c-53.333 -39.333 -108 -67 -164 -83s-114 -24 -174 -24c-77.333 0 -148 15.5 -212 46.5
s-119 75.667 -165 134s-81.667 129.5 -107 213.5s-38 179.333 -38 286s14.833 206.334 44.5 299.001s70.167 173.5 121.5 242.5s111.166 123.333 179.499 163s141.5 59.5 219.5 59.5c74 0 141.667 -14.833 203 -44.5s113.833 -71.667 157.5 -126s77.5 -119.833 101.5 -196.5
s36 -161.667 36 -255c0 -61.333 -7 -120.166 -21 -176.499s-33.667 -106.166 -59 -149.499s-55.833 -78 -91.5 -104s-74.834 -39 -117.501 -39c-11.333 0 -23.5 1.66699 -36.5 5s-26 9.16602 -39 17.499s-25.167 19.666 -36.5 33.999s-21 32.833 -29 55.5zM545.004 417.998
c18.667 0 38.1689 9.33301 58.502 28s38.166 51 53.499 97l56 344c-5.33301 17.333 -14.666 33.5 -27.999 48.5s-30.666 22.5 -51.999 22.5c-18.667 0 -38.334 -10 -59.001 -30s-39.834 -47 -57.501 -81s-32.334 -73.667 -44.001 -119s-17.5 -93.333 -17.5 -144
c0 -32.667 2.16699 -59.667 6.5 -81s10.5 -38.333 18.5 -51s17.5 -21.5 28.5 -26.5s23.167 -7.5 36.5 -7.5z" />
    <glyph glyph-name="A" unicode="A" horiz-adv-x="776" 
d="M487 467h-202l-49 -354h108v-113h-324v113h95l184 1149h-135v112h293l207 -1261h92v-113h-324v113h109zM299 573h172l-88 598z" />
    <glyph glyph-name="B" unicode="B" horiz-adv-x="754" 
d="M33 1374h374.997c15.333 0 32.166 -1.5 50.499 -4.5s36.5 -9 54.5 -18s35.333 -21.5 52 -37.5s31.334 -36.833 44.001 -62.5s22.834 -56.834 30.501 -93.501s11.5 -80 11.5 -130c0 -44.667 -3.16699 -83.5 -9.5 -116.5s-15.666 -61.333 -27.999 -85
s-27.5 -43.167 -45.5 -58.5s-38.667 -27 -62 -35c62.667 -9.33301 109.334 -44.666 140.001 -105.999s46 -144 46 -248c0 -80 -7.66699 -144.667 -23 -194s-35.5 -87.833 -60.5 -115.5s-53.5 -46.167 -85.5 -55.5s-65 -14 -99 -14h-391v113h114v1149h-114v112zM560.997 381
c0 52 -3.33203 96.332 -9.99902 132.999s-16.334 66.667 -29.001 90s-27.667 40.5 -45 51.5s-36.333 16.5 -57 16.5h-148v-559h152c22 0 41.5 4.83301 58.5 14.5s31.333 25.334 43 47.001s20.5 49.5 26.5 83.5s9 75 9 123zM534.998 1026
c0 29.333 -1.99902 58.166 -5.99902 86.499s-10.833 53.5 -20.5 75.5s-22.667 39.833 -39 53.5s-36.833 20.5 -61.5 20.5h-136v-480h136c23.333 0 43.166 6.5 59.499 19.5s29.5 30.667 39.5 53s17.167 48.333 21.5 78s6.5 60.834 6.5 93.501z" />
    <glyph glyph-name="C" unicode="C" horiz-adv-x="745" 
d="M410 -27c-52.667 0 -100.829 14.1689 -144.496 42.502s-81 71.666 -112 129.999s-55.167 132.333 -72.5 222s-26 195.834 -26 318.501c0 118 9.33301 221.667 28 311s43.667 163.666 75 222.999s67.666 104 108.999 134s84.666 45 129.999 45
c43.333 0 79.166 -9.5 107.499 -28.5s52.833 -42.5 73.5 -70.5v74h108v-473h-108v137c0 40 -4.5 75.333 -13.5 106s-21.167 56.5 -36.5 77.5s-33.166 37 -53.499 48s-41.833 16.5 -64.5 16.5c-38 0 -70.667 -14 -98 -42s-49.833 -68 -67.5 -120s-30.667 -115 -39 -189
s-12.5 -157 -12.5 -249s3.5 -174.833 10.5 -248.5s19.333 -136.334 37 -188.001s41 -91.5 70 -119.5s65.5 -42 109.5 -42c30 0 55.667 8.66699 77 26s39.666 39.166 54.999 65.499s28 54.833 38 85.5s18.667 59.667 26 87h115c-12 -59.333 -27.833 -112.5 -47.5 -159.5
s-42.834 -86.667 -69.501 -119s-57 -57.166 -91 -74.499s-71.667 -26 -113 -26z" />
    <glyph glyph-name="D" unicode="D" horiz-adv-x="803" 
d="M25 1374h385c50 0 95.667 -11 137 -33s77 -59.5 107 -112.5s53.167 -123.5 69.5 -211.5s24.5 -197.667 24.5 -329c0 -132 -8.16699 -242.167 -24.5 -330.5s-39.333 -159 -69 -212s-65.167 -90.5 -106.5 -112.5s-87.333 -33 -138 -33h-385v113h122v1149h-122v112zM618 688
c0 112 -4.5 204.999 -13.5 278.999s-22.333 132.833 -40 176.5s-39.167 74.334 -64.5 92.001s-54 26.5 -86 26.5h-142v-1149h142c32 0 60.667 9 86 27s46.833 48.833 64.5 92.5s31 102.5 40 176.5s13.5 167 13.5 279z" />
    <glyph glyph-name="E" unicode="E" horiz-adv-x="702" 
d="M520 963v299h-237v-480h221v-112h-221v-557h252v319h108v-432h-618v113h122v1149h-122v112h604v-411h-109z" />
    <glyph glyph-name="F" unicode="F" horiz-adv-x="655" 
d="M502 963v299h-230v-500h234v-113h-234v-536h150v-113h-397v113h122v1149h-122v112h585v-411h-108z" />
    <glyph glyph-name="G" unicode="G" horiz-adv-x="799" 
d="M555 0l0.00390625 60.9961c-30 -34 -60.167 -57.167 -90.5 -69.5s-61.5 -18.5 -93.5 -18.5c-45.333 0 -87.333 14.5 -126 43.5s-72 73 -100 132s-50 133.167 -66 222.5s-24 194.333 -24 315s9.16699 225.667 27.5 315s42.666 163.5 72.999 222.5s65.166 103 104.499 132
s80.333 43.5 123 43.5c23.333 0 44 -2.66699 62 -8s34.167 -12.666 48.5 -21.999s27.333 -20.166 39 -32.499s22.5 -25.833 32.5 -40.5v78h111v-438h-111v113c0 40 -5 74.833 -15 104.5s-23 54.334 -39 74.001s-33.5 34.334 -52.5 44.001s-37.5 14.5 -55.5 14.5
c-76.667 0 -132.334 -49.5 -167.001 -148.5s-52 -249.5 -52 -451.5c0 -87.333 4.66699 -167.833 14 -241.5s23.333 -137.167 42 -190.5s42 -95 70 -125s60.667 -45 98 -45c28 0 54.667 9.66699 80 29s47.666 44.333 66.999 75v383h-123v113h330v-113h-82v-571h-125z" />
    <glyph glyph-name="H" unicode="H" horiz-adv-x="887" 
d="M25 1374h370v-112h-123v-480h342v480h-122v112h370v-112h-123v-1149h123v-113h-370v113h122v553h-342v-553h123v-113h-370v113h122v1149h-122v112z" />
    <glyph glyph-name="I" unicode="I" horiz-adv-x="420" 
d="M25 1374h370v-112h-123v-1149h123v-113h-370v113h122v1149h-122v112z" />
    <glyph glyph-name="J" unicode="J" horiz-adv-x="635" 
d="M233 1374h392v-112h-123v-887c0 -72 -5.5 -132.833 -16.5 -182.5s-26.667 -90 -47 -121s-45 -53.333 -74 -67s-61.833 -20.5 -98.5 -20.5c-36 0 -68.167 6 -96.5 18s-52.5 34.5 -72.5 67.5s-35.333 78.833 -46 137.5s-16 134.334 -16 227.001h125
c0.666992 -62.667 2.16699 -115.334 4.5 -158.001s7 -77.167 14 -103.5s17.5 -45.333 31.5 -57s32.667 -17.5 56 -17.5s42.333 6.16699 57 18.5s26 30.333 34 54s13.333 53.167 16 88.5s4 76 4 122v881h-144v112z" />
    <glyph glyph-name="K" unicode="K" horiz-adv-x="782" 
d="M25 1374h370v-112h-123v-469l254 469h-75v112h305v-112h-103l-258 -478l283 -671h113v-113h-326v113h84l-232 565l-45 -82v-483h123v-113h-370v113h122v1149h-122v112z" />
    <glyph glyph-name="L" unicode="L" horiz-adv-x="674" 
d="M25 1374h378v-112h-131v-1149h260v319h109v-432h-616v113h122v1149h-122v112z" />
    <glyph glyph-name="M" unicode="M" horiz-adv-x="1083" 
d="M25 1374h305l213 -1128l209 1128h307v-112h-123v-1149h123v-113h-350v113h106v1036l-221 -1149h-105l-221 1153v-1040h107v-113h-350v113h122v1149h-122v112z" />
    <glyph glyph-name="N" unicode="N" horiz-adv-x="868" 
d="M25 1374h239l342 -1020v908h-125v112h371v-112h-123v-1262h-115l-342 1016v-903h123v-113h-370v113h122v1149h-122v112z" />
    <glyph glyph-name="O" unicode="O" horiz-adv-x="809" 
d="M754 686c0 -123.333 -9.00098 -229.835 -27.001 -319.502s-42.5 -163.667 -73.5 -222s-67.833 -101.5 -110.5 -129.5s-88.334 -42 -137.001 -42c-50 0 -96.333 14 -139 42s-79.667 71.167 -111 129.5s-56 132.333 -74 222s-27 196.167 -27 319.5
c0 122.667 9 228.834 27 318.501s42.833 163.834 74.5 222.501s68.834 102 111.501 130s88.667 42 138 42c48.667 0 94.334 -14 137.001 -42s79.5 -71.167 110.5 -129.5s55.5 -132.333 73.5 -222s27 -196.167 27 -319.5zM615.999 685.998c0 194.667 -17.667 343 -53 445
s-87.666 153 -156.999 153c-71.333 0 -124.666 -51.5 -159.999 -154.5s-53 -250.833 -53 -443.5c0 -194.667 17.667 -343 53 -445s88.666 -153 159.999 -153c69.333 0 121.666 51 156.999 153s53 250.333 53 445z" />
    <glyph glyph-name="P" unicode="P" horiz-adv-x="725" 
d="M25 1374h399c85.333 0 150 -35.667 194 -107s66 -176.333 66 -315c0 -138 -22 -243.167 -66 -315.5s-108.667 -108.5 -194 -108.5h-152v-415h123v-113h-370v113h122v1149h-122v112zM547 952c0 65.333 -3.66699 118.334 -11 159.001s-18 72.167 -32 94.5
s-30.667 37.333 -50 45s-41 11.5 -65 11.5h-117v-621h117h31c11.333 0 22.833 2.16699 34.5 6.5s23 12.166 34 23.499s20.833 28.5 29.5 51.5s15.667 53 21 90s8 83.5 8 139.5z" />
    <glyph glyph-name="Q" unicode="Q" horiz-adv-x="809" 
d="M754 686c0 -117.333 -8.16895 -219.002 -24.502 -305.002s-38.833 -158.333 -67.5 -217c34 -20.667 69.333 -38.334 106 -53.001s73 -25 109 -31l-50 -125c-38 13.333 -75.5 30.333 -112.5 51s-73.167 43.334 -108.5 68.001c-28 -34 -58.833 -59.333 -92.5 -76
s-69.5 -25 -107.5 -25c-50 0 -96.333 14 -139 42s-79.667 71.167 -111 129.5s-56 132.333 -74 222s-27 196.167 -27 319.5c0 122.667 9 228.834 27 318.501s42.833 163.834 74.5 222.501s68.834 102 111.501 130s88.667 42 138 42c48.667 0 94.334 -14 137.001 -42
s79.5 -71.167 110.5 -129.5s55.5 -132.333 73.5 -222s27 -196.167 27 -319.5zM615.998 685.998c0 194.667 -17.668 343 -53.001 445s-87.666 153 -156.999 153c-71.333 0 -124.666 -51.5 -159.999 -154.5s-53 -250.833 -53 -443.5c0 -194.667 17.667 -343 53 -445
s88.666 -153 159.999 -153c42 0 78.667 20.667 110 62c-32.667 30 -62 62 -88 96l51 80c22 -32 49.333 -62 82 -90c36.667 101.333 55 251.333 55 450z" />
    <glyph glyph-name="R" unicode="R" horiz-adv-x="774" 
d="M451 113l73 -0.000976562l-162 479h-28h-62v-479h123v-113h-370v113h122v1149h-122v112h376c87.333 0 151.833 -32.667 193.5 -98s62.5 -164.333 62.5 -297c0 -103.333 -14 -185.666 -42 -246.999s-73.333 -103.333 -136 -126l178 -493h111v-113h-317v113zM520 978.999
c0 58.667 -2.33496 106.499 -7.00195 143.499s-12.667 65.833 -24 86.5s-26.166 34.667 -44.499 42s-40.833 11 -67.5 11h-105v-557h103c26.667 0 49.334 3.16699 68.001 9.5s33.667 19.333 45 39s19.5 47.334 24.5 83.001s7.5 83.167 7.5 142.5z" />
    <glyph glyph-name="S" unicode="S" horiz-adv-x="666" 
d="M49 0l-0.00195312 453.004h109v-162c0 -40.667 5.16699 -74.334 15.5 -101.001s23.333 -48 39 -64s32.667 -27.333 51 -34s35.5 -10 51.5 -10c22.667 0 44.334 4.66699 65.001 14s39 24.166 55 44.499s28.667 46.833 38 79.5s14 72.667 14 120
c0 45.333 -6 84.5 -18 117.5s-28 62 -48 87s-42.667 47.167 -68 66.5l-78 58.5c-26.667 19.667 -52.667 40.167 -78 61.5s-48 46.5 -68 75.5s-36 63 -48 102s-18 85.167 -18 138.5c0 64.667 7.66699 119.334 23 164.001s35 81 59 109s50.5 48.167 79.5 60.5
s57.167 18.5 84.5 18.5c14 0 28.5 -1.66699 43.5 -5s29.667 -8.33301 44 -15s27.833 -15.167 40.5 -25.5s24 -22.5 34 -36.5v57h109v-411h-109v153c0 34 -4.5 62.167 -13.5 84.5s-20 40.166 -33 53.499s-26.833 22.666 -41.5 27.999s-27.667 8 -39 8
c-20.667 0 -40.167 -4.66699 -58.5 -14s-34.333 -23.833 -48 -43.5s-24.5 -44.5 -32.5 -74.5s-12 -65.667 -12 -107s6.16699 -77.166 18.5 -107.499s28.333 -57.333 48 -81s42.334 -45.5 68.001 -65.5l78 -60c26.333 -20 52.333 -41.5 78 -64.5s48.334 -49.5 68.001 -79.5
s35.667 -64.833 48 -104.5s18.5 -86.5 18.5 -140.5c0 -76.667 -8.66699 -139.334 -26 -188.001s-39 -86.834 -65 -114.501s-54.333 -46.667 -85 -57s-59.334 -15.5 -86.001 -15.5c-84 0 -150 32.333 -198 97v-70h-109z" />
    <glyph glyph-name="T" unicode="T" horiz-adv-x="756" 
d="M41 942v432h674v-432h-109v322h-166v-1151h144v-113h-412v113h143v1151h-165v-322h-109z" />
    <glyph glyph-name="U" unicode="U" horiz-adv-x="821" 
d="M10 1374h371v-112h-123v-881c0 -46 1.33301 -87.333 4 -124s9 -67.834 19 -93.501s25.333 -45.334 46 -59.001s49 -20.5 85 -20.5s64 6.83301 84 20.5s35 33.334 45 59.001s16.167 56.834 18.5 93.501s3.5 78 3.5 124v881h-123v112h371v-112h-123v-897
c0 -72 -4.83301 -132.833 -14.5 -182.5s-25.334 -90 -47.001 -121s-50.167 -53.5 -85.5 -67.5s-78.333 -21 -129 -21c-51.333 0 -94.666 7 -129.999 21s-64 36.5 -86 67.5s-38 71.333 -48 121s-15 110.5 -15 182.5v897h-123v112z" />
    <glyph glyph-name="V" unicode="V" horiz-adv-x="774" 
d="M0 1374h346v-112h-123l166 -992l162 992h-123v112h346v-112h-102l-228 -1262h-114l-228 1262h-102v112z" />
    <glyph glyph-name="W" unicode="W" horiz-adv-x="1153" 
d="M6 1374h332v-112h-111l135 -916l166 1028h97l166 -1028l135 916h-111v112h332v-112h-100l-203 -1262h-96l-173 1036l-169 -1036h-97l-203 1262h-100v112z" />
    <glyph glyph-name="X" unicode="X" horiz-adv-x="752" 
d="M440 690l199 -577h111v-113h-340v113h102l-137 417l-144 -417h103v-113h-340v113h110l209 577l-196 572h-111v112h336v-112h-98l135 -412l141 412h-98v112h336v-112h-111z" />
    <glyph glyph-name="Y" unicode="Y" horiz-adv-x="817" 
d="M0 1374h371v-112h-113l152 -535l149 535h-113v112h371v-112h-125l-221 -680v-469h143v-113h-411v113h143v469l-221 680h-125v112z" />
    <glyph glyph-name="Z" unicode="Z" horiz-adv-x="618" 
d="M66 963v411h491v-88l-379 -1169h279v315h108v-432h-520v102l373 1155h-244v-294h-108z" />
    <glyph glyph-name="bracketleft" unicode="[" horiz-adv-x="453" 
d="M102 -121v1610h254v-107h-129v-1396h129v-107h-254z" />
    <glyph glyph-name="backslash" unicode="\" horiz-adv-x="477" 
d="M45 1436h117l270 -1477h-117z" />
    <glyph glyph-name="bracketright" unicode="]" horiz-adv-x="453" 
d="M96 -121v107h129v1396h-129v107h254v-1610h-254z" />
    <glyph glyph-name="asciicircum" unicode="^" horiz-adv-x="434" 
d="M295 825l-78 351l-78 -351h-108l137 549h98l137 -549h-108z" />
    <glyph glyph-name="underscore" unicode="_" horiz-adv-x="512" 
d="M0 -250v115h512v-115h-512z" />
    <glyph glyph-name="grave" unicode="`" 
d="M164 1356l268 -209l-43 -66l-291 176z" />
    <glyph glyph-name="a" unicode="a" horiz-adv-x="555" 
d="M328 500c-35.333 -3.33301 -63.835 -10.498 -85.502 -21.498s-38.5 -26.333 -50.5 -46s-20 -43.834 -24 -72.501s-6 -62 -6 -100c0 -58.667 6 -103.334 18 -134.001s28.333 -46 49 -46c8.66699 0 17.834 3.33301 27.501 10s19 15.667 28 27s17.333 24.833 25 40.5
s13.834 32.167 18.501 49.5v293zM73.998 743.002c4 48 11.999 87.165 23.999 117.498s26.5 54.333 43.5 72s36.167 29.834 57.5 36.501s43.666 10 66.999 10c26 0 50.333 -4.16699 73 -12.5s42.5 -23.333 59.5 -45s30.333 -51.5 40 -89.5s14.5 -86.667 14.5 -146v-573h82
v-113h-207v66c-19.333 -31.333 -39 -54.666 -59 -69.999s-46.333 -23 -79 -23c-20 0 -39 6 -57 18s-34 29.833 -48 53.5s-25.167 53 -33.5 88s-12.5 75.5 -12.5 121.5c0 65.333 7.33301 118.833 22 160.5s35 75 61 100s56.5 43.333 91.5 55s73.167 20.5 114.5 26.5v92
c0 40 -1.83301 72 -5.5 96s-8.5 42.5 -14.5 55.5s-12.833 21.667 -20.5 26s-15.5 6.5 -23.5 6.5c-21.333 0 -37.666 -11.833 -48.999 -35.5s-18.666 -61.5 -21.999 -113.5z" />
    <glyph glyph-name="b" unicode="b" horiz-adv-x="602" 
d="M16 1374l207.001 0.00292969v-497c34.667 68 77.667 102 129 102c26 0 51.167 -8.83301 75.5 -26.5s46.166 -46.667 65.499 -87s34.833 -93 46.5 -158s17.5 -144.5 17.5 -238.5c0 -84 -5.5 -157.167 -16.5 -219.5s-25.833 -114 -44.5 -155s-40.667 -71.5 -66 -91.5
s-52 -30 -80 -30c-30.667 0 -57 9.33301 -79 28s-42.667 45.667 -62 81c0 -10.667 -0.833008 -20.834 -2.5 -30.501l-4.5 -25.5c-2.66699 -8.66699 -5 -17.334 -7 -26.001h-117c4 13.333 7.33301 26.666 10 39.999c2.66699 11.333 5 23.5 7 36.5s3 25.167 3 36.5v1149h-82
v112zM223.001 207.003c12.667 -37.333 27.665 -67.8311 44.998 -91.498s36.666 -35.5 57.999 -35.5c32.667 0 58.834 33.667 78.501 101s29.5 163.333 29.5 288c0 130 -9 229.667 -27 299s-44.333 104 -79 104c-11.333 0 -22.166 -5.83301 -32.499 -17.5
s-20 -26.834 -29 -45.501s-17.167 -39.334 -24.5 -62.001s-13.666 -45 -18.999 -67v-473z" />
    <glyph glyph-name="c" unicode="c" horiz-adv-x="543" 
d="M387 604l-0.000976562 71.998c0 40.667 -3.16699 73.834 -9.5 99.501s-14.166 45.667 -23.499 60s-19.5 24 -30.5 29s-21.167 7.5 -30.5 7.5c-20.667 0 -38.5 -9.16699 -53.5 -27.5s-27.333 -44.666 -37 -78.999s-16.834 -75.833 -21.501 -124.5s-7 -103.334 -7 -164.001
c0 -61.333 2 -116.333 6 -165s10.833 -90 20.5 -124s22 -60.167 37 -78.5s33.5 -27.5 55.5 -27.5c19.333 0 35.666 6.16699 48.999 18.5s24.333 27.666 33 45.999s15.667 38 21 59s10 40.5 14 58.5h98c-5.33301 -41.333 -13.833 -79.833 -25.5 -115.5
s-26.5 -66.5 -44.5 -92.5s-39.167 -46.333 -63.5 -61s-52.166 -22 -83.499 -22c-77.333 0 -138 42.667 -182 128s-66 210 -66 374c0 81.333 6.33301 153.333 19 216s29.834 115.167 51.501 157.5s46.667 74.333 75 96s58.5 32.5 90.5 32.5c14 0 26.667 -2.33301 38 -7
s21.5 -10.667 30.5 -18s16.833 -15.666 23.5 -24.999s12 -18.666 16 -27.999v53h105v-348h-105z" />
    <glyph glyph-name="d" unicode="d" horiz-adv-x="602" 
d="M584 0h-207v63c-19.333 -28.667 -39.333 -50.834 -60 -66.501s-45.667 -23.5 -75 -23.5c-27.333 0 -53 8 -77 24s-45 43.5 -63 82.5s-32.333 91.333 -43 157s-16 147.834 -16 246.501c0 84 5.33301 157 16 219s25.167 113.5 43.5 154.5s40 71.667 65 92
s51.833 30.5 80.5 30.5c26.667 0 50.5 -7.33301 71.5 -22s40.167 -40 57.5 -76v381h-88v112h213v-1261h82v-113zM272 80c22.667 0 43.002 12.5 61.002 37.5s32.667 59.5 44 103.5v467c-4 20 -9.5 40.833 -16.5 62.5s-14.833 41.5 -23.5 59.5s-18.334 32.833 -29.001 44.5
s-22 17.5 -34 17.5c-15.333 0 -29.5 -8.66699 -42.5 -26s-24.333 -42.5 -34 -75.5s-17.334 -73.667 -23.001 -122s-8.5 -103.5 -8.5 -165.5c0 -130 9 -229.667 27 -299s44.333 -104 79 -104z" />
    <glyph glyph-name="e" unicode="e" horiz-adv-x="535" 
d="M362 520c-0.666992 44.667 -2.83203 87.667 -6.49902 129s-9.16699 77.833 -16.5 109.5s-16.833 56.834 -28.5 75.501s-25.834 28 -42.501 28c-15.333 0 -28.666 -9.33301 -39.999 -28s-21 -43.834 -29 -75.501s-14.333 -68.167 -19 -109.5
s-7.33398 -84.333 -8.00098 -129h190zM285.002 82c19.333 0 35.3311 6.16797 47.998 18.501s23 27.666 31 45.999s14.333 38 19 59s8.66699 40.5 12 58.5h99c-5.33301 -41.333 -13.666 -79.833 -24.999 -115.5s-26 -66.5 -44 -92.5s-39.167 -46.333 -63.5 -61
s-51.833 -22 -82.5 -22c-36 0 -68.5 10.667 -97.5 32s-53.833 53 -74.5 95s-36.5 94 -47.5 156s-16.5 133.667 -16.5 215c0 76.667 5.5 146 16.5 208s26.5 114.667 46.5 158s43.833 76.833 71.5 100.5s58.5 35.5 92.5 35.5c70.667 0 125.334 -45.667 164.001 -137
s58 -224 58 -398v-22h-320c2 -109.333 11.333 -192.333 28 -249s45 -85 85 -85z" />
    <glyph glyph-name="f" unicode="f" horiz-adv-x="424" 
d="M31 952h82.001v109c0 108 21.833 190.667 65.5 248s102.834 86 177.501 86c35.333 0 66.5 -6 93.5 -18s49.833 -24.667 68.5 -38l-45 -98l-22 18.5c-6.66699 5.66699 -13.334 10.5 -20.001 14.5s-14.334 7 -23.001 9s-19 3 -31 3c-45.333 0 -79.833 -18.667 -103.5 -56
s-35.5 -92.333 -35.5 -165v-113h170v-112h-170v-727h122v-113h-329v113h82v727h-82v112z" />
    <glyph glyph-name="g" unicode="g" horiz-adv-x="604" 
d="M502 10c0 -60 -4 -115.832 -12 -167.499s-21.5 -96.5 -40.5 -134.5s-44.833 -67.833 -77.5 -89.5s-73.334 -32.5 -122.001 -32.5c-22.667 0 -43.334 2.66699 -62.001 8s-35.667 12.166 -51 20.499s-29.333 17.5 -42 27.5s-24 20 -34 30l60 95l22.5 -22.5
c8.33301 -8.33301 17.666 -16 27.999 -23s21.5 -12.833 33.5 -17.5s25 -7 39 -7c27.333 0 49.666 7 66.999 21s30.833 34.333 40.5 61s16.334 59.167 20.001 97.5s5.5 82.166 5.5 131.499v58c-15.333 -28 -32.166 -50.5 -50.499 -67.5s-43.166 -25.5 -74.499 -25.5
c-28 0 -54.5 8 -79.5 24s-47.167 43.5 -66.5 82.5s-34.666 91.333 -45.999 157s-17 147.834 -17 246.501c0 84 5 157 15 219s24 113.5 42 154.5s39.667 71.667 65 92s53 30.5 83 30.5c26.667 0 51 -9.33301 73 -28s40.667 -42 56 -70v71h207v-112h-82v-830zM272 80.001
c22.667 0 43 12.834 61 38.501s32.667 60.5 44 104.5v465c-5.33301 23.333 -11.5 46.166 -18.5 68.499s-14.833 42 -23.5 59s-18 30.667 -28 41s-20.333 15.5 -31 15.5c-32.667 0 -59.167 -33.833 -79.5 -101.5s-30.5 -163.5 -30.5 -287.5c0 -130 9 -229.667 27 -299
s44.333 -104 79 -104z" />
    <glyph glyph-name="h" unicode="h" horiz-adv-x="641" 
d="M25 1374h206.002v-524c24 40 49.167 71.5 75.5 94.5s56.5 34.5 90.5 34.5c49.333 0 84.666 -21.667 105.999 -65s32 -105 32 -185v-616h81v-113h-268v113h62v577c0 36.667 -0.833008 66.334 -2.5 89.001s-4.5 40.5 -8.5 53.5s-9 21.833 -15 26.5s-13.333 7 -22 7
c-12.667 0 -25.834 -6.5 -39.501 -19.5s-26.5 -29.833 -38.5 -50.5s-22.833 -43.834 -32.5 -69.501s-16.5 -51.5 -20.5 -77.5v-536h62v-113h-268v113h81v1149h-81v112z" />
    <glyph glyph-name="i" unicode="i" horiz-adv-x="350" 
d="M31 952h207v-839h100v-113h-307v113h82v727h-82v112zM66 1221c0 26.667 8.83301 49.334 26.5 68.001s40.167 28 67.5 28c26.667 0 49.334 -9.33301 68.001 -28s28 -41.334 28 -68.001c0 -27.333 -9.33301 -50 -28 -68s-41.334 -27 -68.001 -27
c-27.333 0 -49.833 9 -67.5 27s-26.5 40.667 -26.5 68z" />
    <glyph glyph-name="j" unicode="j" horiz-adv-x="317" 
d="M47 1221c0 26.667 9 49.334 27 68.001s40.333 28 67 28c27.333 0 50.333 -9.33301 69 -28s28 -41.334 28 -68.001c0 -27.333 -9.33301 -50 -28 -68s-41.667 -27 -69 -27c-26.667 0 -49 9 -67 27s-27 40.667 -27 68zM-74 -250c12.667 -11.333 25.832 -21.667 39.499 -31
s29.834 -14 48.501 -14c14 0 26.667 3 38 9s21 16.167 29 30.5s14.167 33.166 18.5 56.499s6.5 52 6.5 86v953h-94v112h219v-1061c0 -58 -5.33301 -106.5 -16 -145.5s-25 -70.333 -43 -94s-39 -40.5 -63 -50.5s-49.333 -15 -76 -15c-19.333 0 -37.166 2.33301 -53.499 7
s-31.333 10.334 -45 17.001s-25.834 14 -36.501 22s-19.667 15.333 -27 22z" />
    <glyph glyph-name="k" unicode="k" horiz-adv-x="627" 
d="M25 1374h205.998v-774l185 283c17.333 28 36.5 49.333 57.5 64s45.5 22 73.5 22c13.333 0 26.333 -2 39 -6s24.334 -9.66699 35.001 -17l-37 -98c-11.333 5.33301 -21.666 8 -30.999 8c-13.333 0 -25.5 -6.5 -36.5 -19.5s-26.167 -34.5 -45.5 -64.5l-104 -160l186 -499
h82v-113h-277v113h66l-139 381l-54 -80v-301h82v-113h-288v113h81v1149h-81v112z" />
    <glyph glyph-name="l" unicode="l" horiz-adv-x="344" 
d="M4 1374l207 -0.00195312v-1153c0 -25.333 2 -45.166 6 -59.499s10 -25 18 -32s18.167 -11.5 30.5 -13.5s26.833 -3 43.5 -3h27v-113h-25c-38 0 -71 3.33301 -99 10s-51.333 18.834 -70 36.501s-32.667 41.5 -42 71.5s-14 68.333 -14 115v1029h-82v112z" />
    <glyph glyph-name="m" unicode="m" horiz-adv-x="934" 
d="M641 113l60.999 0.00195312v575c0 18.667 -0.333008 38.5 -1 59.5s-2.66699 40.333 -6 58s-8.16602 32.167 -14.499 43.5s-15.5 17 -27.5 17c-9.33301 0 -18.833 -4 -28.5 -12s-19 -18.167 -28 -30.5s-17.5 -26.5 -25.5 -42.5s-14.833 -31.833 -20.5 -47.5
s-10.167 -30.834 -13.5 -45.501s-5 -27 -5 -37v-538h62v-113h-248v113h62v575c0 58.667 -3.16699 103 -9.5 133s-19.166 45 -38.499 45c-11.333 0 -23.166 -6.16699 -35.499 -18.5s-24 -28.666 -35 -48.999s-21.167 -43.333 -30.5 -69s-16.333 -51.834 -21 -78.501v-538h61
v-113h-268v113h82v727h-82v112h207v-106c8.66699 18.667 19.167 36 31.5 52s25.666 30 39.999 42s29.166 21.5 44.499 28.5s31 10.5 47 10.5c36 0 61.833 -14 77.5 -42s26.167 -66 31.5 -114c28 54 57.5 93.5 88.5 118.5s62.833 37.5 95.5 37.5
c24.667 0 45.5 -6.5 62.5 -19.5s30.667 -30.833 41 -53.5s17.833 -49.334 22.5 -80.001s7 -63.667 7 -99v-614h82v-113h-268v113z" />
    <glyph glyph-name="n" unicode="n" horiz-adv-x="647" 
d="M31 952h207.003v-106c23.333 40 48.166 72.167 74.499 96.5s56.5 36.5 90.5 36.5c49.333 0 84.666 -21.667 105.999 -65s32 -105 32 -185v-616h82v-113h-269v113h62v577c0 36.667 -0.833008 66.334 -2.5 89.001s-4.33398 40.5 -8.00098 53.5s-8.5 21.833 -14.5 26.5
s-13.333 7 -22 7c-13.333 0 -26.833 -6.5 -40.5 -19.5s-26.5 -29.833 -38.5 -50.5s-22.667 -43.834 -32 -69.501s-16 -51.5 -20 -77.5v-536h61v-113h-268v113h82v727h-82v112z" />
    <glyph glyph-name="o" unicode="o" horiz-adv-x="575" 
d="M532 475c0 -87.333 -6.16699 -162.501 -18.5 -225.501s-29.5 -115 -51.5 -156s-47.833 -71.333 -77.5 -91s-61.5 -29.5 -95.5 -29.5c-34.667 0 -67 9.83301 -97 29.5s-56 50 -78 91s-39.333 93 -52 156s-19 138.167 -19 225.5c0 86.667 6.33301 161.834 19 225.501
s30.167 116 52.5 157s48.5 71.5 78.5 91.5s62 30 96 30s65.833 -9.83301 95.5 -29.5s55.5 -50 77.5 -91s39.167 -93.333 51.5 -157s18.5 -139.167 18.5 -226.5zM410 474.999c0 130 -10.167 228.667 -30.5 296s-50.5 101 -90.5 101c-41.333 0 -72.166 -34 -92.499 -102
s-30.5 -166.333 -30.5 -295s10.167 -226.667 30.5 -294s51.166 -101 92.499 -101c40 0 70.167 33.667 90.5 101s30.5 165.333 30.5 294z" />
    <glyph glyph-name="p" unicode="p" horiz-adv-x="610" 
d="M25 952l205.998 -0.000976562v-75c19.333 38 39.833 64.5 61.5 79.5s46.5 22.5 74.5 22.5c22.667 0 45.834 -8.5 69.501 -25.5s45 -45.167 64 -84.5s34.5 -91.166 46.5 -155.499s18 -143.833 18 -238.5c0 -87.333 -5.5 -162.5 -16.5 -225.5s-26 -115 -45 -156
s-41 -71.333 -66 -91s-51.5 -29.5 -79.5 -29.5c-22.667 0 -44.667 5.5 -66 16.5s-41.666 31.5 -60.999 61.5v-332h103v-112h-309v112h81v1121h-81v112zM230.998 187.999c11.333 -30.667 24.998 -56.333 40.998 -77s34.667 -31 56 -31c32 0 59 33.667 81 101
s33 165.333 33 294c0 130 -8.16699 228.667 -24.5 296s-42.166 101 -77.499 101c-11.333 0 -22.666 -5.5 -33.999 -16.5s-22 -25.333 -32 -43s-18.667 -37.5 -26 -59.5s-13 -44.333 -17 -67v-498z" />
    <glyph glyph-name="q" unicode="q" horiz-adv-x="610" 
d="M586 840h-81.999v-1121h82v-112h-289v112h82v349c-19.333 -34 -39 -58.333 -59 -73s-44.667 -22 -74 -22s-56.333 10.167 -81 30.5s-45.834 51.5 -63.501 93.5s-31.5 95 -41.5 159s-15 139.667 -15 227c0 84 5.5 157 16.5 219s26 113.5 45 154.5s41.167 71.667 66.5 92
s52.333 30.5 81 30.5c52 0 93.667 -34 125 -102v75h207v-112zM274.001 80c22.667 0 43 14.167 61 42.5s32.667 64.5 44 108.5v474c-3.33301 21.333 -8.66602 42 -15.999 62s-15.666 37.833 -24.999 53.5s-19.333 28.167 -30 37.5s-21.334 14 -32.001 14
c-32.667 0 -58.834 -33.667 -78.501 -101s-29.5 -163.333 -29.5 -288c0 -130 9 -229.667 27 -299s44.333 -104 79 -104z" />
    <glyph glyph-name="r" unicode="r" horiz-adv-x="479" 
d="M31 952l207 -0.000976562v-90c25.333 42 50.833 72 76.5 90s51.834 27 78.501 27c13.333 0 25.833 -1.83301 37.5 -5.5s22.167 -7.66699 31.5 -12s17.333 -8.83301 24 -13.5l14 -10l-45 -113l-9.5 10c-4.33301 4.66699 -9.5 9.33398 -15.5 14.001
s-12.833 8.66699 -20.5 12s-16.5 5 -26.5 5c-16.667 0 -32.5 -5.16699 -47.5 -15.5s-28.833 -24.333 -41.5 -42s-23.834 -38 -33.501 -61s-17.167 -46.833 -22.5 -71.5v-563h102v-113h-309v113h82v727h-82v112z" />
    <glyph glyph-name="s" unicode="s" horiz-adv-x="502" 
d="M49 0l-0.00195312 350.004h107v-84c0 -34.667 2.83301 -63.334 8.5 -86.001s12.834 -40.667 21.501 -54s18.5 -22.666 29.5 -27.999s21.833 -8 32.5 -8c10 0 20 2 30 6s19 11.333 27 22s14.5 25.167 19.5 43.5s7.5 42.166 7.5 71.499
c0 39.333 -6.83301 72.666 -20.5 99.999s-30.834 52 -51.501 74s-42.834 43 -66.501 63s-45.834 42.667 -66.501 68s-37.834 55 -51.501 89s-20.5 75.667 -20.5 125c0 35.333 4.5 66.833 13.5 94.5s21 51 36 70s32.167 33.5 51.5 43.5s39 15 59 15
c22.667 0 43.334 -6.66699 62.001 -20s33.667 -32.666 45 -57.999v55h100v-321h-107v80c0 29.333 -1.83301 54 -5.5 74s-8.5 36.167 -14.5 48.5s-13.167 21.166 -21.5 26.499s-17.5 8 -27.5 8c-8.66699 0 -17.167 -1.83301 -25.5 -5.5s-15.833 -9.83398 -22.5 -18.501
s-12 -20.167 -16 -34.5s-6 -32.166 -6 -53.499c0 -40.667 6.83301 -74.334 20.5 -101.001s30.834 -50.667 51.501 -72s42.834 -41.833 66.501 -61.5s45.834 -42.334 66.501 -68.001s37.834 -56.5 51.501 -92.5s20.5 -80.667 20.5 -134c0 -45.333 -5.66699 -83.5 -17 -114.5
s-25.5 -56 -42.5 -75s-35.5 -32.667 -55.5 -41s-38.333 -12.5 -55 -12.5c-32 0 -58.333 7.16699 -79 21.5s-38.667 34.5 -54 60.5v-66h-101z" />
    <glyph glyph-name="t" unicode="t" horiz-adv-x="420" 
d="M295 94c19.333 0 36.002 4.66895 50.002 14.002s27.333 19.666 40 30.999l55 -96c-7.33301 -6.66699 -16.166 -14 -26.499 -22s-22.333 -15.333 -36 -22s-28.834 -12.334 -45.501 -17.001s-34.334 -7 -53.001 -7c-54.667 0 -97.834 18.5 -129.501 55.5
s-47.5 93.167 -47.5 168.5v641h-114v112h114v289h125v-289h166v-112h-166v-641c0 -36 5.66699 -62.5 17 -79.5s28.333 -25.5 51 -25.5z" />
    <glyph glyph-name="u" unicode="u" horiz-adv-x="637" 
d="M612 0h-206v109c-10 -28 -20.833 -50.833 -32.5 -68.5s-24 -31.5 -37 -41.5s-26.667 -16.833 -41 -20.5s-28.833 -5.5 -43.5 -5.5c-19.333 0 -38 3.66699 -56 11s-34 20 -48 38s-25.167 42.167 -33.5 72.5s-12.5 68.5 -12.5 114.5v631h-82v112h207v-680
c0 -38 1.33301 -69 4 -93s6.5 -42.833 11.5 -56.5s11.167 -23.167 18.5 -28.5s15.333 -8 24 -8c14.667 0 28.667 7.33301 42 22s25.5 33.5 36.5 56.5s20.167 49 27.5 78s12.333 57.5 15 85.5v512h-103v112h227v-839h82v-113z" />
    <glyph glyph-name="v" unicode="v" horiz-adv-x="586" 
d="M0 952h258v-112h-65l100 -658l100 658h-65v112h258v-112h-66l-162 -840h-133l-159 840h-66v112z" />
    <glyph glyph-name="w" unicode="w" horiz-adv-x="885" 
d="M342 0h-127l-145 840h-66v112h256v-112h-65l88 -615l114 727h95l114 -727l88 615h-65v112h256v-112h-66l-145 -840h-127l-103 653z" />
    <glyph glyph-name="x" unicode="x" horiz-adv-x="524" 
d="M319 487l132 -374h61v-113h-227v113h51l-74 231l-74 -231h52v-113h-228v113h62l131 374l-123 353h-62v112h224v-112h-47l65 -209l66 209h-47v112h223v-112h-62z" />
    <glyph glyph-name="y" unicode="y" horiz-adv-x="586" 
d="M96 -414c-19.333 0 -36.8369 2.33203 -52.5039 6.99902s-29.667 10.334 -42 17.001s-23.5 14 -33.5 22s-18.333 15.333 -25 22l55 96c12.667 -11.333 25.834 -22.333 39.501 -33s29.834 -16 48.501 -16c20.667 0 38.167 6.16699 52.5 18.5s27 31.5 38 57.5s21 59 30 99
s18.833 87.333 29.5 142l-170 822h-66v112h258v-112h-65l102 -594l98 594h-65v112h258v-112h-66l-158 -770c-12.667 -62 -25.667 -122.167 -39 -180.5s-29.666 -110 -48.999 -155s-43.166 -81 -71.499 -108s-63.833 -40.5 -106.5 -40.5z" />
    <glyph glyph-name="z" unicode="z" horiz-adv-x="516" 
d="M55 952h406v-98l-285 -737h184v213h107v-330h-422v102l283 734h-166v-185h-107v301z" />
    <glyph glyph-name="braceleft" unicode="{" horiz-adv-x="442" 
d="M123 354c0 50 -1.16699 92.667 -3.5 128s-7.16602 64.333 -14.499 87s-17.833 39.334 -31.5 50.001s-32.167 16 -55.5 16h-20v102h20c24 0 42.833 5.5 56.5 16.5s24.167 28 31.5 51s12 52.333 14 88s3 78.167 3 127.5v164c0 62 3.33301 112.833 10 152.5
s17.334 70.667 32.001 93s33.167 37.833 55.5 46.5s49.166 13 80.499 13h59v-107h-34c-13.333 0 -24.833 -1.33301 -34.5 -4s-17.667 -9.33398 -24 -20.001s-11.166 -27 -14.499 -49s-5 -52 -5 -90v-199c0 -37.333 -0.5 -74 -1.5 -110s-5.5 -69 -13.5 -99
s-20.833 -56 -38.5 -78s-42.834 -37.667 -75.501 -47c32 -10 56.833 -25.833 74.5 -47.5s30.5 -47.5 38.5 -77.5s12.667 -63 14 -99s2 -72.667 2 -110v-202c0 -38.667 1.66699 -68.834 5 -90.501s8.16602 -38 14.499 -49s14.333 -17.833 24 -20.5s21.167 -4 34.5 -4h34v-107
h-59c-31.333 0 -58.166 4.33301 -80.499 13s-40.833 24.334 -55.5 47.001s-25.334 53.667 -32.001 93s-10 90 -10 152v170z" />
    <glyph glyph-name="bar" unicode="|" horiz-adv-x="266" 
d="M82 -483v2048h102v-2048h-102z" />
    <glyph glyph-name="braceright" unicode="}" horiz-adv-x="442" 
d="M319 184c0 -62 -3.33301 -112.667 -10 -152s-17.334 -70.333 -32.001 -93s-33.167 -38.334 -55.5 -47.001s-49.166 -13 -80.499 -13h-59v107h35c12.667 0 23.834 1.33301 33.501 4s17.834 9.5 24.501 20.5s11.667 27.333 15 49s5 51.834 5 90.501v202
c0 37.333 0.666992 74 2 110s6 69 14 99s20.833 55.833 38.5 77.5s42.5 37.5 74.5 47.5c-32.667 9.33301 -57.834 25 -75.501 47s-30.5 48 -38.5 78s-12.5 63 -13.5 99s-1.5 72.667 -1.5 110v199c0 38 -1.66699 68 -5 90s-8.33301 38.333 -15 49
s-14.834 17.334 -24.501 20.001s-20.834 4 -33.501 4h-35v107h59c31.333 0 58.166 -4.33301 80.499 -13s40.833 -24.167 55.5 -46.5s25.334 -53.333 32.001 -93s10 -90.5 10 -152.5v-164c0 -49.333 1 -91.833 3 -127.5s6.66699 -65 14 -88s18 -40 32 -51
s32.667 -16.5 56 -16.5h20v-102h-20c-23.333 0 -41.833 -5.33301 -55.5 -16s-24.167 -27.334 -31.5 -50.001s-12.166 -51.667 -14.499 -87s-3.5 -78 -3.5 -128v-170z" />
    <glyph glyph-name="asciitilde" unicode="~" horiz-adv-x="936" 
d="M844 678c-10 -14 -22.0029 -26.9922 -36.0029 -38.9922s-29.5 -22.5 -46.5 -31.5s-35.167 -16.167 -54.5 -21.5s-38.666 -8 -57.999 -8c-29.333 0 -60 5.66699 -92 17s-64 23.666 -96 36.999s-63.5 25.666 -94.5 36.999s-60.167 17 -87.5 17
c-16.667 0 -34 -3.33301 -52 -10s-35.5 -15.334 -52.5 -26.001s-32.667 -22.834 -47 -36.501s-26.166 -27.167 -35.499 -40.5v119c10 14.667 22.5 28.167 37.5 40.5s31.333 23.166 49 32.499s35.667 16.666 54 21.999s35.833 8 52.5 8c28.667 0 59.167 -5.83301 91.5 -17.5
s64.833 -24.334 97.5 -38.001s64.5 -26.334 95.5 -38.001s60.167 -17.5 87.5 -17.5c16.667 0 33.834 3.33301 51.501 10s35 15.5 52 26.5s32.667 23.333 47 37s26.5 27.5 36.5 41.5v-121v0z" />
    <glyph glyph-name="nonbreakingspace" unicode="&#xa0;" horiz-adv-x="340" 
 />
    <glyph glyph-name="exclamdown" unicode="&#xa1;" horiz-adv-x="391" 
d="M154 713h83.999l28 -830v-166c0 -19.333 -5.16699 -36.666 -15.5 -51.999s-28.166 -23 -53.499 -23c-26 0 -44.5 7.66699 -55.5 23s-16.5 32.666 -16.5 51.999v166zM300.999 946c0 -30 -9.83301 -55.167 -29.5 -75.5s-44.5 -30.5 -74.5 -30.5
c-15.333 0 -29.5 2.83301 -42.5 8.5s-24.167 13.167 -33.5 22.5s-16.833 20.5 -22.5 33.5s-8.5 26.833 -8.5 41.5s2.83301 28.5 8.5 41.5s13.167 24.167 22.5 33.5s20.5 16.666 33.5 21.999s27.167 8 42.5 8c14.667 0 28.334 -2.66699 41.001 -8s23.667 -12.666 33 -21.999
s16.666 -20.5 21.999 -33.5s8 -26.833 8 -41.5z" />
    <glyph glyph-name="cent" unicode="&#xa2;" horiz-adv-x="553" 
d="M399 860l0.00292969 31c0 54.667 -5.83301 96.167 -17.5 124.5s-24.834 47.5 -39.501 57.5v-772c19.333 6 37.333 18.167 54 36.5s32 41.166 46 68.499l70 -66c-24.667 -41.333 -50.334 -74.333 -77.001 -99s-57.667 -40.667 -93 -48v-183h-82v183
c-68.667 14 -120.667 63.167 -156 147.5s-53 200.833 -53 349.5c0 76 5.33301 143.5 16 202.5s25.5 109.5 44.5 151.5s41.167 75 66.5 99s52.666 39 81.999 45v176h82v-186c13.333 -8.66699 24.833 -18.667 34.5 -30s17.167 -22.666 22.5 -33.999v53h101v-307h-101z
M178.003 692c0 -49.333 1.16797 -94.6709 3.50098 -136.004s6.66602 -78.166 12.999 -110.499s14.833 -59.666 25.5 -81.999s24 -39.166 40 -50.499v758c-28 -22.667 -48.667 -66.667 -62 -132s-20 -147.666 -20 -246.999z" />
    <glyph glyph-name="sterling" unicode="&#xa3;" horiz-adv-x="686" 
d="M322 621c10 -32 18.5029 -64.002 25.5029 -96.002s10.5 -67 10.5 -105c0 -64.667 -9.16699 -120.667 -27.5 -168s-42.5 -87.666 -72.5 -120.999c26 0 49.333 -2.66699 70 -8s39.667 -11.166 57 -17.499l48.5 -17.5c15 -5.33301 30.167 -8 45.5 -8
c14.667 0 27.5 4.66699 38.5 14s20.333 22 28 38s13.834 34.667 18.501 56s8.33398 44 11.001 68h109c-3.33301 -32 -9 -65 -17 -99s-19.667 -64.667 -35 -92s-34.5 -49.833 -57.5 -67.5s-50.5 -26.5 -82.5 -26.5c-22.667 0 -44.334 3 -65.001 9s-41.5 12.667 -62.5 20
s-42.5 14 -64.5 20s-45.667 9 -71 9c-17.333 0 -32.833 -1.5 -46.5 -4.5s-26.167 -6.66699 -37.5 -11s-21.833 -9 -31.5 -14s-18.834 -9.5 -27.501 -13.5l-39 98c34.667 12 64.167 28.333 88.5 49s44.333 45 60 73s27 59 34 93s10.5 70.333 10.5 109c0 34.667 -5 69 -15 103
s-21.667 70.667 -35 110h-149v100h121c-10.667 37.333 -19.167 77.833 -25.5 121.5s-9.5 92.5 -9.5 146.5c0 78.667 6.5 144.167 19.5 196.5s29.5 94.333 49.5 126s42.167 54.167 66.5 67.5s48.166 20 71.499 20c15.333 0 33.166 -5.66699 53.499 -17s38.5 -31 54.5 -59v57
h113v-417h-113v116c0 40 -3 73.5 -9 100.5s-13.333 48.667 -22 65s-18 28 -28 35s-19 10.5 -27 10.5c-14 0 -27.333 -5.33301 -40 -16s-23.834 -27.667 -33.501 -51s-17.167 -54 -22.5 -92s-8 -84 -8 -138c0 -58 3.5 -108.833 10.5 -152.5s15.833 -83.5 26.5 -119.5h215
v-100h-182z" />
    <glyph glyph-name="currency" unicode="&#xa4;" horiz-adv-x="748" 
d="M598 877c16.667 -24 28.334 -48.667 35.001 -74s10 -52 10 -80c0 -28.667 -3.16699 -55.667 -9.5 -81s-18.166 -49.666 -35.499 -72.999l109 -108l-70 -72l-111 111c-22.667 -14.667 -47.667 -26.167 -75 -34.5s-53.333 -12.5 -78 -12.5c-28 0 -54.667 3.66699 -80 11
s-49.333 19.333 -72 36l-110 -111l-70 72l111 110c-16.667 22.667 -28.834 46.667 -36.501 72s-11.5 52 -11.5 80c0 28.667 3.66699 55.5 11 80.5s19.666 49.5 36.999 73.5l-111 110l70 70l110 -111c22.667 15.333 47.667 27 75 35s54.333 12 81 12
c28 0 54.5 -3.33301 79.5 -10s48.833 -18.334 71.5 -35.001l54.5 55l54.5 54l70 -70zM250 598c16.667 -16.667 35.667 -28.668 57 -36.001s43.333 -11 66 -11c22 0 43.5 3.83301 64.5 11.5s39.833 18.667 56.5 33s30 32.166 40 53.499s15 46 15 74
c0 23.333 -4.66699 45.5 -14 66.5s-22 39.5 -38 55.5s-34.667 28.667 -56 38s-44 14 -68 14c-24.667 0 -47.5 -4.83301 -68.5 -14.5s-39.167 -22.5 -54.5 -38.5s-27.333 -34.5 -36 -55.5s-13 -42.833 -13 -65.5c0 -23.333 3.83301 -45.666 11.5 -66.999
s20.167 -40.666 37.5 -57.999z" />
    <glyph glyph-name="yen" unicode="&#xa5;" horiz-adv-x="776" 
d="M451 373v-260h122v-113h-370v113h123v260h-244v108h244v101l-13 36h-231v109h201l-158 535h-105v112h330v-112h-96l135 -525l133 525h-96v112h330v-112h-105l-157 -535h200v-109h-233l-10 -36v-101h243v-108h-243z" />
    <glyph glyph-name="brokenbar" unicode="&#xa6;" horiz-adv-x="266" 
d="M82 672v758h102v-758h-102zM82 -352v758h102v-758h-102z" />
    <glyph glyph-name="section" unicode="&#xa7;" horiz-adv-x="543" 
d="M387 408c20.667 -25.333 37.835 -53.999 51.502 -85.999s20.5 -69.667 20.5 -113c0 -40 -5.5 -74.833 -16.5 -104.5s-25.667 -54.167 -44 -73.5s-39.833 -33.833 -64.5 -43.5s-50.667 -14.5 -78 -14.5s-51.833 4.66699 -73.5 14s-41 22 -58 38s-31.5 34.167 -43.5 54.5
s-22 41.5 -30 63.5l103 58c4.66699 -16 10.167 -31.5 16.5 -46.5s13.666 -28.333 21.999 -40s17.833 -21 28.5 -28s23 -10.5 37 -10.5c24.667 0 44.5 11.833 59.5 35.5s22.5 54.167 22.5 91.5s-7.16699 70 -21.5 98s-32.333 54 -54 78s-45 47.167 -70 69.5
s-48.333 46.166 -70 71.499s-39.667 53.666 -54 84.999s-21.5 68 -21.5 110c0 30.667 2.83301 58.334 8.5 83.001s13.667 47 24 67s22.333 37.833 36 53.5s28.5 29.834 44.5 42.501c-19.333 24.667 -36.166 53.167 -50.499 85.5s-21.5 70.5 -21.5 114.5
c0 38 5.16699 71.667 15.5 101s24.166 54 41.499 74s37.5 35.167 60.5 45.5s47.5 15.5 73.5 15.5c22 0 42.667 -4.33301 62 -13s36.833 -20.334 52.5 -35.001s29.5 -31.834 41.5 -51.501s22 -40.5 30 -62.5l-100 -57c-3.33301 12 -7.66602 24.833 -12.999 38.5
s-11.666 26.334 -18.999 38.001s-15.333 21.167 -24 28.5s-18 11 -28 11c-19.333 0 -36.5 -11.333 -51.5 -34s-22.5 -53.667 -22.5 -93c0 -36 7 -67.667 21 -95s31.667 -52.833 53 -76.5s44.166 -46.667 68.499 -69s47.166 -46.5 68.499 -72.5s39 -55 53 -87
s21 -69.333 21 -112c0 -31.333 -2.83301 -59.166 -8.5 -83.499s-13.334 -46.333 -23.001 -66s-21 -37.334 -34 -53.001s-26.833 -30.5 -41.5 -44.5zM373.001 627.001c0 34.667 -4.5 64.501 -13.5 89.501s-20.667 47.5 -35 67.5s-30.5 38.667 -48.5 56l-55 55
c-5.33301 -6 -11 -13.167 -17 -21.5s-11.5 -18.333 -16.5 -30s-9.16699 -25.667 -12.5 -42s-5 -35.833 -5 -58.5c0 -35.333 4.66699 -65.333 14 -90s21.333 -46.834 36 -66.501s31.167 -38.167 49.5 -55.5s36.5 -36 54.5 -56c11.333 13.333 22.333 33 33 59s16 57 16 93z
" />
    <glyph glyph-name="dieresis" unicode="&#xa8;" 
d="M98 1176c0 21.333 7.33301 39.5 22 54.5s32.667 22.5 54 22.5s39.666 -7.5 54.999 -22.5s23 -33.167 23 -54.5s-7.66699 -39.333 -23 -54s-33.666 -22 -54.999 -22s-39.333 7.33301 -54 22s-22 32.667 -22 54zM362 1176c0 21.333 7.33301 39.5 22 54.5
s32.667 22.5 54 22.5s39.666 -7.5 54.999 -22.5s23 -33.167 23 -54.5s-7.66699 -39.333 -23 -54s-33.666 -22 -54.999 -22s-39.333 7.33301 -54 22s-22 32.667 -22 54z" />
    <glyph glyph-name="copyright" unicode="&#xa9;" horiz-adv-x="1538" 
d="M1456 686c0 -63.333 -8.16699 -124.166 -24.5 -182.499s-39.333 -113 -69 -164s-65.5 -97.333 -107.5 -139s-88.5 -77.334 -139.5 -107.001s-105.833 -52.667 -164.5 -69s-119.667 -24.5 -183 -24.5c-94.667 0 -183.667 18 -267 54s-156 85 -218 147
s-111 134.667 -147 218s-54 172.333 -54 267c0 63.333 8.16699 124.333 24.5 183s39.333 113.5 69 164.5s65.334 97.5 107.001 139.5s88 77.833 139 107.5s105.667 52.667 164 69s119.166 24.5 182.499 24.5s124.333 -8.16699 183 -24.5s113.5 -39.333 164.5 -69
s97.5 -65.5 139.5 -107.5s77.833 -88.5 107.5 -139.5s52.667 -105.833 69 -164.5s24.5 -119.667 24.5 -183zM176 686c0 -82 15.5 -159 46.5 -231s73.167 -134.667 126.5 -188s116 -95.5 188 -126.5s149 -46.5 231 -46.5c82.667 0 160.167 15.5 232.5 46.5
s135.5 73.167 189.5 126.5s96.5 116 127.5 188s46.5 149 46.5 231c0 82.667 -15.5 160.167 -46.5 232.5s-73.5 135.5 -127.5 189.5s-117.167 96.5 -189.5 127.5s-149.833 46.5 -232.5 46.5c-82 0 -159 -15.5 -231 -46.5s-134.667 -73.5 -188 -127.5
s-95.5 -117.167 -126.5 -189.5s-46.5 -149.833 -46.5 -232.5zM760 272c-41.333 0 -81 8.16504 -119 24.498s-71.5 41.5 -100.5 75.5s-52.333 77.167 -70 129.5s-26.5 114.5 -26.5 186.5c0 68.667 8.66699 128.834 26 180.501s40.5 94.834 69.5 129.501s62.667 60.667 101 78
s78.833 26 121.5 26c39.333 0 72 -6.16699 98 -18.5s48.667 -26.833 68 -43.5v47h98v-290h-98v53c0 22.667 -4.16699 44 -12.5 64s-19.666 37.5 -33.999 52.5s-31 26.667 -50 35s-38.833 12.5 -59.5 12.5c-34.667 0 -64.667 -8 -90 -24s-46.166 -38.333 -62.499 -67
s-28.5 -63 -36.5 -103s-12 -84 -12 -132s4 -92 12 -132s20.167 -74.333 36.5 -103s37.166 -51 62.499 -67s55.333 -24 90 -24c27.333 0 50.666 4.83301 69.999 14.5s35.5 22 48.5 37s23.5 31.5 31.5 49.5s14.667 35 20 51h107c-9.33301 -36 -22.5 -68.833 -39.5 -98.5
s-37.5 -55.167 -61.5 -76.5s-51.833 -37.833 -83.5 -49.5s-66.5 -17.5 -104.5 -17.5z" />
    <glyph glyph-name="ordfeminine" unicode="&#xaa;" horiz-adv-x="438" 
d="M250 1053c-21.333 -3.33301 -39.333 -8.83496 -54 -16.502s-26.5 -18.167 -35.5 -31.5s-15.5 -29.666 -19.5 -48.999s-6 -42.333 -6 -69c0 -41.333 3.33301 -71.166 10 -89.499s18.334 -27.5 35.001 -27.5c14.667 0 28.167 8.5 40.5 25.5s22.166 37.833 29.499 62.5v195z
M49 1227c2.66699 34 9.16602 61.666 19.499 82.999s22.833 38.166 37.5 50.499s31 20.833 49 25.5s36.667 7 56 7c20.667 0 40.334 -2.83301 59.001 -8.5s34.667 -16.167 48 -31.5s24 -36.333 32 -63s12 -60.667 12 -102v-395h52v-88h-164v47
c-15.333 -21.333 -30.166 -37.666 -44.499 -48.999s-32.833 -17 -55.5 -17c-16.667 0 -32.5 4.16699 -47.5 12.5s-28.333 20.833 -40 37.5s-20.834 37.334 -27.501 62.001s-10 53 -10 85c0 46 5.5 83.833 16.5 113.5s26.333 53.667 46 72s43.334 31.833 71.001 40.5
s58.167 15 91.5 19v60c0 24 -1.16699 43.833 -3.5 59.5s-5.5 28 -9.5 37s-8.66699 15.333 -14 19s-11.333 5.5 -18 5.5c-14.667 0 -26.334 -6.83301 -35.001 -20.5s-14.667 -39.167 -18 -76.5zM44.999 495.997v92h358v-92h-358z" />
    <glyph glyph-name="guillemotleft" unicode="&#xab;" horiz-adv-x="602" 
d="M31 444v91l209 329l86 -59l-201 -316l201 -315l-86 -59zM276 444v91l209 329l86 -59l-200 -316l200 -315l-86 -59z" />
    <glyph glyph-name="logicalnot" unicode="&#xac;" horiz-adv-x="936" 
d="M694 508v246h-561v108h670v-354h-109z" />
    <glyph glyph-name="uni00AD" unicode="&#xad;" horiz-adv-x="463" 
d="M66 424v123h331v-123h-331z" />
    <glyph glyph-name="registered" unicode="&#xae;" horiz-adv-x="1174" 
d="M1092 893c0 -70 -13.167 -135.5 -39.5 -196.5s-62.5 -114.333 -108.5 -160s-99.667 -81.667 -161 -108s-127 -39.5 -197 -39.5s-135.5 13.167 -196.5 39.5s-114.333 62.333 -160 108s-81.667 99 -108 160s-39.5 126.5 -39.5 196.5s13.167 135.833 39.5 197.5
s62.333 115.334 108 161.001s99 81.667 160 108s126.5 39.5 196.5 39.5s135.667 -13.167 197 -39.5s115 -62.333 161 -108s82.167 -99.334 108.5 -161.001s39.5 -127.5 39.5 -197.5zM162 893c0 -59.333 11 -114.666 33 -165.999s52.167 -96.166 90.5 -134.499
s83.166 -68.5 134.499 -90.5s106.666 -33 165.999 -33s114.833 11 166.5 33s96.834 52.167 135.501 90.5s69 83.166 91 134.499s33 106.666 33 165.999s-11 114.833 -33 166.5s-52.333 96.834 -91 135.501s-83.834 69 -135.501 91s-107.167 33 -166.5 33
s-114.666 -11 -165.999 -33s-96.166 -52.333 -134.499 -91s-68.5 -83.834 -90.5 -135.501s-33 -107.167 -33 -166.5zM647 674h49l-110 172h-21h-41v-172h82v-68h-256v68h84v446h-84v68h262c119.333 0 179 -56 179 -168c0 -43.333 -8.5 -79.333 -25.5 -108
s-47.5 -48 -91.5 -58l117 -180h77v-68h-221v68zM694 1020c0 38 -7.16699 64.168 -21.5 78.501s-40.5 21.5 -78.5 21.5h-70v-205h70c38 0 64.167 8.16699 78.5 24.5s21.5 43.166 21.5 80.499z" />
    <glyph glyph-name="macron" unicode="&#xaf;" 
d="M115 1112v105h385v-105h-385z" />
    <glyph glyph-name="degree" unicode="&#xb0;" horiz-adv-x="471" 
d="M49 1198c0 26 4.83301 50.5 14.5 73.5s22.834 43 39.501 60s36.167 30.333 58.5 40s46.166 14.5 71.499 14.5c26 0 50.5 -4.83301 73.5 -14.5s43 -23 60 -40s30.5 -37 40.5 -60s15 -47.5 15 -73.5c0 -25.333 -5 -49.166 -15 -71.499s-23.5 -41.833 -40.5 -58.5
s-37 -29.834 -60 -39.501s-47.5 -14.5 -73.5 -14.5c-25.333 0 -49.166 4.83301 -71.499 14.5s-41.833 22.834 -58.5 39.501s-29.834 36.167 -39.501 58.5s-14.5 46.166 -14.5 71.499zM145 1198c0 -24.667 8.50098 -45.5 25.501 -62.5s37.833 -25.5 62.5 -25.5
c26 0 48 8.5 66 25.5s27 37.833 27 62.5c0 12.667 -2.33301 24.667 -7 36s-11.334 21.166 -20.001 29.499s-18.667 14.833 -30 19.5s-23.333 7 -36 7c-12 0 -23.333 -2.33301 -34 -7s-20 -11.167 -28 -19.5s-14.333 -18.166 -19 -29.499s-7 -23.333 -7 -36z" />
    <glyph glyph-name="plusminus" unicode="&#xb1;" horiz-adv-x="936" 
d="M133 98v109h670v-109h-670zM522 631v-285h-108v285h-281v108h281v285h108v-285h281v-108h-281z" />
    <glyph glyph-name="twosuperior" unicode="&#xb2;" horiz-adv-x="432" 
d="M31 508l0.00292969 62.999c40.667 53.333 76.167 103.833 106.5 151.5s55.666 94.834 75.999 141.501s35.5 94 45.5 142s15 99 15 153c0 17.333 -0.833008 34.833 -2.5 52.5s-4.83398 33.5 -9.50098 47.5s-11.5 25.5 -20.5 34.5s-20.5 13.5 -34.5 13.5
c-45.333 0 -68 -72.333 -68 -217h-102c0 54 4.66699 100 14 138s21.666 69 36.999 93s33.166 41.333 53.499 52s41.5 16 63.5 16c28 0 52.667 -5.83301 74 -17.5s39.333 -28 54 -49s25.667 -46 33 -75s11 -60.5 11 -94.5c0 -40.667 -4 -82.167 -12 -124.5
s-20.667 -86.5 -38 -132.5s-40.166 -94 -68.499 -144s-62.5 -102.667 -102.5 -158h145v139h86v-225h-356z" />
    <glyph glyph-name="threesuperior" unicode="&#xb3;" horiz-adv-x="438" 
d="M246 1047c34.667 -10 62.001 -25.3301 82.001 -45.9971s35.167 -43.834 45.5 -69.501s16.833 -52.334 19.5 -80.001s4 -52.834 4 -75.501c0 -91.333 -16.5 -161.5 -49.5 -210.5s-77.833 -73.5 -134.5 -73.5c-24.667 0 -47.5 5.33301 -68.5 16s-39.167 27.667 -54.5 51
s-27.333 54 -36 92s-13 84.667 -13 140h98c0 -80 6.33301 -136.333 19 -169s32.334 -49 59.001 -49c14.667 0 27 5 37 15s18 24 24 42s10.333 39.333 13 64s4 51.334 4 80.001c0 32 -2.33301 60.333 -7 85s-12.334 45.667 -23.001 63s-24.834 30.666 -42.501 39.999
s-39.167 14.333 -64.5 15v78l131 231h-144v-127h-86v215h334v-74z" />
    <glyph glyph-name="acute" unicode="&#xb4;" 
d="M516 1257l-291 -176l-43 66l269 209z" />
    <glyph glyph-name="micro" unicode="&#xb5;" horiz-adv-x="645" 
d="M260 958l-75.999 -635.999c6.66699 -73.333 15.667 -128.333 27 -165s27.666 -55 48.999 -55c16 0 31 7.33301 45 22s26.833 34 38.5 58s21.667 51.667 30 83s14.833 63.666 19.5 96.999l70 596h121l-72 -596c-3.33301 -28 -5.16602 -53 -5.49902 -75
s0.166992 -42.667 1.5 -62c1.33301 -22.667 3.83301 -43.5 7.5 -62.5s8.16699 -37.167 13.5 -54.5s11.166 -34.833 17.499 -52.5l20.5 -55.5h-118l-13.5 31c-3.66699 8.66699 -7 18 -10 28s-6 21.833 -9 35.5s-6.5 31.167 -10.5 52.5c-24 -60 -47.5 -103.333 -70.5 -130
s-48.833 -40 -77.5 -40c-19.333 0 -38.5 9.16699 -57.5 27.5s-34.5 51.5 -46.5 99.5l-58 -514h-116l161 1368h119z" />
    <glyph glyph-name="paragraph" unicode="&#xb6;" horiz-adv-x="709" 
d="M195 0v92.001h102v582c-32 0 -63.333 5.33301 -94 16s-58 29.167 -82 55.5s-43.333 62 -58 107s-22 102.167 -22 171.5c0 68.667 7.83301 125.667 23.5 171s36.5 81.166 62.5 107.499s55.5 44.833 88.5 55.5s66.833 16 101.5 16h347v-92h-103v-1190h103v-92h-469z
M387 92.001h84v1190h-84v-1190z" />
    <glyph glyph-name="periodcentered" unicode="&#xb7;" horiz-adv-x="309" 
d="M49 672c0 14.667 2.66797 28.499 8.00098 41.499s12.666 24.167 21.999 33.5s20.333 16.833 33 22.5s26.667 8.5 42 8.5c30 0 55.167 -10.167 75.5 -30.5s30.5 -45.5 30.5 -75.5c0 -15.333 -2.83301 -29.333 -8.5 -42s-13.167 -23.667 -22.5 -33
s-20.5 -16.666 -33.5 -21.999s-26.833 -8 -41.5 -8c-30 0 -55 10 -75 30s-30 45 -30 75z" />
    <glyph glyph-name="cedilla" unicode="&#xb8;" 
d="M334 -98c14 0 29.334 -2.33594 46.001 -7.00293s32.334 -12.5 47.001 -23.5s27 -25.667 37 -44s15 -41.5 15 -69.5c0 -30 -5.5 -55.167 -16.5 -75.5s-25.333 -36.666 -43 -48.999s-37.334 -21.166 -59.001 -26.499s-42.834 -8 -63.501 -8c-42 0 -78 5.5 -108 16.5
s-53.333 21.167 -70 30.5l49 88c15.333 -12.667 33 -23.334 53 -32.001s41.333 -13 64 -13c28.667 0 51.167 6.33301 67.5 19s24.5 29.334 24.5 50.001c0 12.667 -2.66699 23.334 -8 32.001s-12.5 15.5 -21.5 20.5s-19 8.5 -30 10.5s-22.5 3 -34.5 3
c-20 0 -39.333 -2 -58 -6l49 202h88z" />
    <glyph glyph-name="onesuperior" unicode="&#xb9;" horiz-adv-x="340" 
d="M31 594h90v694l-111 -65v86l111 65h98v-780h90v-86h-278v86z" />
    <glyph glyph-name="ordmasculine" unicode="&#xba;" horiz-adv-x="449" 
d="M424 1038c0 -60.667 -5 -113.167 -15 -157.5s-24 -80.833 -42 -109.5s-39.167 -50 -63.5 -64s-50.5 -21 -78.5 -21c-28.667 0 -55.167 7 -79.5 21s-45.5 35.333 -63.5 64s-32 65.167 -42 109.5s-15 96.833 -15 157.5c0 61.333 5.16699 114.333 15.5 159
s24.5 81.5 42.5 110.5s39.167 50.5 63.5 64.5s50.5 21 78.5 21s54.167 -7 78.5 -21s45.5 -35.5 63.5 -64.5s32 -65.833 42 -110.5s15 -97.667 15 -159zM313 1038c0 92 -7.33301 160.167 -22 204.5s-36.667 66.5 -66 66.5c-60 0 -90 -90.333 -90 -271
c0 -178.667 30 -268 90 -268c58.667 0 88 89.333 88 268zM45 496v92h358v-92h-358z" />
    <glyph glyph-name="guillemotright" unicode="&#xbb;" horiz-adv-x="602" 
d="M571 535v-91l-209 -329l-86 59l201 315l-201 316l86 59zM326 535v-91l-209 -329l-86 59l200 315l-200 316l86 59z" />
    <glyph glyph-name="onequarter" unicode="&#xbc;" horiz-adv-x="850" 
d="M555 86h84v111h-227v63l200 469h123v-450h94v-82h-94v-111h82v-86h-262v86zM639 621l-137 -342h137v342zM41 731h90v557l-111 -65v86l111 65h98v-643h90v-86h-278v86zM248 0h-96l464 1374h97z" />
    <glyph glyph-name="onehalf" unicode="&#xbd;" horiz-adv-x="899" 
d="M41 731h90v557l-111 -65v86l111 65h98v-643h90v-86h-278v86zM248 0h-96l464 1374h97zM502 0v62.999c40.667 44.667 76.167 86.834 106.5 126.501s55.666 79 75.999 118s35.5 78.333 45.5 118s15 82.167 15 127.5c0 14 -1 27.667 -3 41s-5.5 25 -10.5 35
s-11.5 18 -19.5 24s-18 9 -30 9c-10 0 -19.333 -3.16699 -28 -9.5s-16.167 -16.666 -22.5 -30.999s-11.5 -33.5 -15.5 -57.5s-6 -53.667 -6 -89h-102c0 44.667 4.66699 83.667 14 117s22 61.166 38 83.499s34.5 39.166 55.5 50.499s43.167 17 66.5 17
c27.333 0 51.333 -5.16699 72 -15.5s38 -24.5 52 -42.5s24.5 -38.667 31.5 -62s10.5 -48 10.5 -74c0 -34 -4 -68.667 -12 -104s-20.667 -72 -38 -110s-40.166 -77.667 -68.499 -119s-62.5 -84.666 -102.5 -129.999h145v119h86v-205h-356z" />
    <glyph glyph-name="threequarters" unicode="&#xbe;" horiz-adv-x="891" 
d="M596 86h84v111h-227v63l200 469h123v-450h94v-82h-94v-111h82v-86h-262v86zM680 621l-137 -342h137v342zM289 0h-96l464 1374h97zM272 1090c28 -8 50.332 -20.333 66.999 -37s29.334 -35.334 38.001 -56.001s14.167 -42.167 16.5 -64.5s3.5 -43.166 3.5 -62.499
c0 -38 -4.5 -71.833 -13.5 -101.5s-21.333 -54.667 -37 -75s-34.167 -35.833 -55.5 -46.5s-44.666 -16 -69.999 -16c-24.667 0 -47.834 4.16699 -69.501 12.5s-40.667 23 -57 44s-29.333 49.5 -39 85.5s-14.5 81.333 -14.5 136h98c0 -40 1.66699 -72.667 5 -98
s8.33301 -45.166 15 -59.499s15 -24.333 25 -30s21.667 -8.5 35 -8.5c14.667 0 27 4 37 12s17.833 19.333 23.5 34s9.66699 31.667 12 51s3.5 40.666 3.5 63.999c0 52 -9.83301 90 -29.5 114s-49.5 38 -89.5 42v62l113 194h-144v-123h-86v211h334v-76z" />
    <glyph glyph-name="questiondown" unicode="&#xbf;" horiz-adv-x="545" 
d="M264 -250c33.333 0 57.668 27.499 73.001 82.499s23 136.167 23 243.5h127c0 -76 -4.66699 -141.5 -14 -196.5s-23.5 -100 -42.5 -135s-42.667 -60.833 -71 -77.5s-61.5 -25 -99.5 -25c-28.667 0 -56 7.16699 -82 21.5s-48.833 37.333 -68.5 69
s-35.334 72.834 -47.001 123.501s-17.5 112.334 -17.5 185.001c0 76.667 6.16699 141.5 18.5 194.5s27.833 96.833 46.5 131.5s39 61.5 61 80.5s42.667 32.833 62 41.5v224h121v-297c-25.333 -4 -49 -13.667 -71 -29s-41 -37.833 -57 -67.5s-28.667 -67.834 -38 -114.501
s-14 -103.334 -14 -170.001c0 -57.333 2.5 -104.333 7.5 -141s11.667 -65.667 20 -87s17.833 -36.166 28.5 -44.499s22 -12.5 34 -12.5zM403.002 945.999c0 -30 -9.83301 -55.167 -29.5 -75.5s-44.5 -30.5 -74.5 -30.5s-55.167 10.167 -75.5 30.5s-30.5 45.5 -30.5 75.5
c0 14.667 2.83301 28.5 8.5 41.5s13.167 24.167 22.5 33.5s20.5 16.666 33.5 21.999s26.833 8 41.5 8s28.334 -2.66699 41.001 -8s23.667 -12.666 33 -21.999s16.666 -20.5 21.999 -33.5s8 -26.833 8 -41.5z" />
    <glyph glyph-name="Agrave" unicode="&#xc0;" horiz-adv-x="776" 
d="M487 467h-202l-49 -354h108v-113h-324v113h95l184 1149h-135v112h293l207 -1261h92v-113h-324v113h109zM299 573h172l-88 598zM225 1751l268 -209l-43 -66l-291 176z" />
    <glyph glyph-name="Aacute" unicode="&#xc1;" horiz-adv-x="776" 
d="M487 467h-202l-49 -354h108v-113h-324v113h95l184 1149h-135v112h293l207 -1261h92v-113h-324v113h109zM299 573h172l-88 598zM577 1652l-291 -176l-43 66l269 209z" />
    <glyph glyph-name="Acircumflex" unicode="&#xc2;" horiz-adv-x="776" 
d="M487 467h-202l-49 -354h108v-113h-324v113h95l184 1149h-135v112h293l207 -1261h92v-113h-324v113h109zM299 573h172l-88 598zM565 1476l-197 150l-196 -150l-60 62l256 219l256 -219z" />
    <glyph glyph-name="Atilde" unicode="&#xc3;" horiz-adv-x="776" 
d="M487 467h-202l-49 -354h108v-113h-324v113h95l184 1149h-135v112h293l207 -1261h92v-113h-324v113h109zM299 573h172l-88 598zM602 1706c0 -17.333 -2.5 -38.6689 -7.5 -64.002s-12.667 -49.666 -23 -72.999s-23.833 -43.166 -40.5 -59.499s-36.667 -24.5 -60 -24.5
s-44.333 6.16699 -63 18.5s-35.834 26 -51.501 41l-42.5 41.5c-12.667 12.667 -24.667 19 -36 19c-12 0 -21.667 -5 -29 -15s-12.833 -21.667 -16.5 -35s-6 -26.666 -7 -39.999s-1.83301 -23.333 -2.5 -30h-88c0 16.667 2.5 37.5 7.5 62.5s12.667 49.333 23 73
s24 43.834 41 60.501s37.5 25 61.5 25c22.667 0 43.334 -6.33301 62.001 -19s35.5 -26.5 50.5 -41.5l41.5 -41.5c12.667 -12.667 24.667 -19 36 -19c12 0 21.667 5 29 15s12.833 21.667 16.5 35s6.16699 26.666 7.5 39.999s2.33301 23.666 3 30.999h88v0z" />
    <glyph glyph-name="Adieresis" unicode="&#xc4;" horiz-adv-x="776" 
d="M487 467h-202l-49 -354h108v-113h-324v113h95l184 1149h-135v112h293l207 -1261h92v-113h-324v113h109zM299 573h172l-88 598zM159 1571c0 21.333 7.33301 39.5 22 54.5s32.667 22.5 54 22.5s39.666 -7.5 54.999 -22.5s23 -33.167 23 -54.5s-7.66699 -39.333 -23 -54
s-33.666 -22 -54.999 -22s-39.333 7.33301 -54 22s-22 32.667 -22 54zM423 1571c0 21.333 7.33301 39.5 22 54.5s32.667 22.5 54 22.5s39.666 -7.5 54.999 -22.5s23 -33.167 23 -54.5s-7.66699 -39.333 -23 -54s-33.666 -22 -54.999 -22s-39.333 7.33301 -54 22
s-22 32.667 -22 54z" />
    <glyph glyph-name="Aring" unicode="&#xc5;" horiz-adv-x="776" 
d="M487 467h-202l-49 -354h108v-113h-324v113h95l184 1149h-135v112h293l207 -1261h92v-113h-324v113h109zM299 573h172l-88 598zM180 1640c0 26 5 50.5 15 73.5s23.5 43 40.5 60s37 30.5 60 40.5s47.5 15 73.5 15s50.333 -5 73 -15s42.5 -23.5 59.5 -40.5
s30.5 -37 40.5 -60s15 -47.5 15 -73.5s-5 -50.5 -15 -73.5s-23.5 -43 -40.5 -60s-36.833 -30.333 -59.5 -40s-47 -14.5 -73 -14.5s-50.5 4.83301 -73.5 14.5s-43 23 -60 40s-30.5 37 -40.5 60s-15 47.5 -15 73.5zM272 1640c0 -26.667 9.33301 -49.334 28 -68.001
s41.667 -28 69 -28c26.667 0 49.334 9.33301 68.001 28s28 41.334 28 68.001s-9.33301 49.334 -28 68.001s-41.334 28 -68.001 28c-27.333 0 -50.333 -9.33301 -69 -28s-28 -41.334 -28 -68.001z" />
    <glyph glyph-name="AE" unicode="&#xc6;" horiz-adv-x="1061" 
d="M879 963v299h-238v-480h221v-112h-221v-557h252v319h108v-432h-618v113h123v354h-213l-76 -354h102v-113h-299v113h74l250 1149h-119v112h762v-411h-108zM461 1262l-146 -689h191v689h-45z" />
    <glyph glyph-name="Ccedilla" unicode="&#xc7;" horiz-adv-x="745" 
d="M731 352c-23.333 -112 -59.165 -200.666 -107.498 -265.999s-110.166 -102.333 -185.499 -111l-16 -73c14 0 29.333 -2.33301 46 -7s32.334 -12.5 47.001 -23.5s27 -25.667 37 -44s15 -41.5 15 -69.5c0 -30 -5.5 -55.167 -16.5 -75.5s-25.333 -36.666 -43 -48.999
s-37.334 -21.166 -59.001 -26.499s-42.834 -8 -63.501 -8c-42 0 -78 5.5 -108 16.5s-53.333 21.167 -70 30.5l49 88c15.333 -12.667 33 -23.334 53 -32.001s41.333 -13 64 -13c28.667 0 51.167 6.33301 67.5 19s24.5 29.334 24.5 50.001c0 12.667 -2.66699 23.334 -8 32.001
s-12.5 15.5 -21.5 20.5s-19 8.5 -30 10.5s-22.5 3 -34.5 3c-20 0 -39.333 -2 -58 -6l39 162c-45.333 8.66699 -86.166 29.5 -122.499 62.5s-67.5 78.5 -93.5 136.5s-46 129.167 -60 213.5s-21 182.166 -21 293.499c0 118 9.33301 221.667 28 311s43.667 163.666 75 222.999
s67.666 104 108.999 134s84.666 45 129.999 45c43.333 0 79.166 -9.5 107.499 -28.5s52.833 -42.5 73.5 -70.5v74h108v-473h-108v137c0 40 -4.5 75.333 -13.5 106s-21.167 56.5 -36.5 77.5s-33.166 37 -53.499 48s-41.833 16.5 -64.5 16.5c-38 0 -70.667 -14 -98 -42
s-49.833 -68 -67.5 -120s-30.667 -115 -39 -189s-12.5 -157 -12.5 -249s3.5 -174.833 10.5 -248.5s19.333 -136.334 37 -188.001s41 -91.5 70 -119.5s65.5 -42 109.5 -42c30 0 55.667 8.66699 77 26s39.666 39.166 54.999 65.499s28 54.833 38 85.5s18.667 59.667 26 87h115
v0z" />
    <glyph glyph-name="Egrave" unicode="&#xc8;" horiz-adv-x="702" 
d="M520 963v299h-237v-480h221v-112h-221v-557h252v319h108v-432h-618v113h122v1149h-122v112h604v-411h-109zM195 1751l268 -209l-43 -66l-291 176z" />
    <glyph glyph-name="Eacute" unicode="&#xc9;" horiz-adv-x="702" 
d="M520 963v299h-237v-480h221v-112h-221v-557h252v319h108v-432h-618v113h122v1149h-122v112h604v-411h-109zM547 1652l-291 -176l-43 66l269 209z" />
    <glyph glyph-name="Ecircumflex" unicode="&#xca;" horiz-adv-x="702" 
d="M520 963v299h-237v-480h221v-112h-221v-557h252v319h108v-432h-618v113h122v1149h-122v112h604v-411h-109zM535 1476l-197 150l-196 -150l-60 62l256 219l256 -219z" />
    <glyph glyph-name="Edieresis" unicode="&#xcb;" horiz-adv-x="702" 
d="M520 963v299h-237v-480h221v-112h-221v-557h252v319h108v-432h-618v113h122v1149h-122v112h604v-411h-109zM129 1571c0 21.333 7.33301 39.5 22 54.5s32.667 22.5 54 22.5s39.666 -7.5 54.999 -22.5s23 -33.167 23 -54.5s-7.66699 -39.333 -23 -54
s-33.666 -22 -54.999 -22s-39.333 7.33301 -54 22s-22 32.667 -22 54zM393 1571c0 21.333 7.33301 39.5 22 54.5s32.667 22.5 54 22.5s39.666 -7.5 54.999 -22.5s23 -33.167 23 -54.5s-7.66699 -39.333 -23 -54s-33.666 -22 -54.999 -22s-39.333 7.33301 -54 22
s-22 32.667 -22 54z" />
    <glyph glyph-name="Igrave" unicode="&#xcc;" horiz-adv-x="420" 
d="M25 1374h370v-112h-123v-1149h123v-113h-370v113h122v1149h-122v112zM69 1751l268 -209l-43 -66l-291 176z" />
    <glyph glyph-name="Iacute" unicode="&#xcd;" horiz-adv-x="420" 
d="M25 1374h370v-112h-123v-1149h123v-113h-370v113h122v1149h-122v112zM421 1652l-291 -176l-43 66l269 209z" />
    <glyph glyph-name="Icircumflex" unicode="&#xce;" horiz-adv-x="420" 
d="M25 1374h370v-112h-123v-1149h123v-113h-370v113h122v1149h-122v112zM409 1476l-197 150l-196 -150l-60 62l256 219l256 -219z" />
    <glyph glyph-name="Idieresis" unicode="&#xcf;" horiz-adv-x="420" 
d="M25 1374h370v-112h-123v-1149h123v-113h-370v113h122v1149h-122v112zM3 1571c0 21.333 7.33301 39.5 22 54.5s32.667 22.5 54 22.5s39.666 -7.5 54.999 -22.5s23 -33.167 23 -54.5s-7.66699 -39.333 -23 -54s-33.666 -22 -54.999 -22s-39.333 7.33301 -54 22
s-22 32.667 -22 54zM267 1571c0 21.333 7.33301 39.5 22 54.5s32.667 22.5 54 22.5s39.666 -7.5 54.999 -22.5s23 -33.167 23 -54.5s-7.66699 -39.333 -23 -54s-33.666 -22 -54.999 -22s-39.333 7.33301 -54 22s-22 32.667 -22 54z" />
    <glyph glyph-name="Eth" unicode="&#xd0;" horiz-adv-x="803" 
d="M25 1374h385c50 0 95.667 -11 137 -33s77 -59.5 107 -112.5s53.167 -123.5 69.5 -211.5s24.5 -197.667 24.5 -329c0 -132 -8.16699 -242.167 -24.5 -330.5s-39.333 -159 -69 -212s-65.167 -90.5 -106.5 -112.5s-87.333 -33 -138 -33h-385v113h122v530h-122v109h122v510
h-122v112zM272 643v-530.001h142c32 0 60.667 9 86 27s46.833 48.833 64.5 92.5s31 102.5 40 176.5s13.5 167 13.5 279s-4.5 205 -13.5 279s-22.333 132.833 -40 176.5s-39.167 74.334 -64.5 92.001s-54 26.5 -86 26.5h-142v-510h179v-109h-179z" />
    <glyph glyph-name="Ntilde" unicode="&#xd1;" horiz-adv-x="868" 
d="M25 1374h239l342 -1020v908h-125v112h371v-112h-123v-1262h-115l-342 1016v-903h123v-113h-370v113h122v1149h-122v112zM676 1706c0 -17.333 -2.5 -38.6689 -7.5 -64.002s-12.667 -49.666 -23 -72.999s-23.833 -43.166 -40.5 -59.499s-36.667 -24.5 -60 -24.5
s-44.333 6.16699 -63 18.5s-35.834 26 -51.501 41l-42.5 41.5c-12.667 12.667 -24.667 19 -36 19c-12 0 -21.667 -5 -29 -15s-12.833 -21.667 -16.5 -35s-6 -26.666 -7 -39.999s-1.83301 -23.333 -2.5 -30h-88c0 16.667 2.5 37.5 7.5 62.5s12.667 49.333 23 73
s24 43.834 41 60.501s37.5 25 61.5 25c22.667 0 43.334 -6.33301 62.001 -19s35.5 -26.5 50.5 -41.5l41.5 -41.5c12.667 -12.667 24.667 -19 36 -19c12 0 21.667 5 29 15s12.833 21.667 16.5 35s6.16699 26.666 7.5 39.999s2.33301 23.666 3 30.999h88v0z" />
    <glyph glyph-name="Ograve" unicode="&#xd2;" horiz-adv-x="809" 
d="M754 686c0 -123.333 -9.00098 -229.835 -27.001 -319.502s-42.5 -163.667 -73.5 -222s-67.833 -101.5 -110.5 -129.5s-88.334 -42 -137.001 -42c-50 0 -96.333 14 -139 42s-79.667 71.167 -111 129.5s-56 132.333 -74 222s-27 196.167 -27 319.5
c0 122.667 9 228.834 27 318.501s42.833 163.834 74.5 222.501s68.834 102 111.501 130s88.667 42 138 42c48.667 0 94.334 -14 137.001 -42s79.5 -71.167 110.5 -129.5s55.5 -132.333 73.5 -222s27 -196.167 27 -319.5zM615.999 685.998c0 194.667 -17.667 343 -53 445
s-87.666 153 -156.999 153c-71.333 0 -124.666 -51.5 -159.999 -154.5s-53 -250.833 -53 -443.5c0 -194.667 17.667 -343 53 -445s88.666 -153 159.999 -153c69.333 0 121.666 51 156.999 153s53 250.333 53 445zM261.999 1751l268 -209l-43 -66l-291 176z" />
    <glyph glyph-name="Oacute" unicode="&#xd3;" horiz-adv-x="809" 
d="M754 686c0 -123.333 -9.00098 -229.835 -27.001 -319.502s-42.5 -163.667 -73.5 -222s-67.833 -101.5 -110.5 -129.5s-88.334 -42 -137.001 -42c-50 0 -96.333 14 -139 42s-79.667 71.167 -111 129.5s-56 132.333 -74 222s-27 196.167 -27 319.5
c0 122.667 9 228.834 27 318.501s42.833 163.834 74.5 222.501s68.834 102 111.501 130s88.667 42 138 42c48.667 0 94.334 -14 137.001 -42s79.5 -71.167 110.5 -129.5s55.5 -132.333 73.5 -222s27 -196.167 27 -319.5zM615.999 685.998c0 194.667 -17.667 343 -53 445
s-87.666 153 -156.999 153c-71.333 0 -124.666 -51.5 -159.999 -154.5s-53 -250.833 -53 -443.5c0 -194.667 17.667 -343 53 -445s88.666 -153 159.999 -153c69.333 0 121.666 51 156.999 153s53 250.333 53 445zM613.999 1652l-291 -176l-43 66l269 209z" />
    <glyph glyph-name="Ocircumflex" unicode="&#xd4;" horiz-adv-x="809" 
d="M754 686c0 -123.333 -9.00098 -229.835 -27.001 -319.502s-42.5 -163.667 -73.5 -222s-67.833 -101.5 -110.5 -129.5s-88.334 -42 -137.001 -42c-50 0 -96.333 14 -139 42s-79.667 71.167 -111 129.5s-56 132.333 -74 222s-27 196.167 -27 319.5
c0 122.667 9 228.834 27 318.501s42.833 163.834 74.5 222.501s68.834 102 111.501 130s88.667 42 138 42c48.667 0 94.334 -14 137.001 -42s79.5 -71.167 110.5 -129.5s55.5 -132.333 73.5 -222s27 -196.167 27 -319.5zM615.999 685.998c0 194.667 -17.667 343 -53 445
s-87.666 153 -156.999 153c-71.333 0 -124.666 -51.5 -159.999 -154.5s-53 -250.833 -53 -443.5c0 -194.667 17.667 -343 53 -445s88.666 -153 159.999 -153c69.333 0 121.666 51 156.999 153s53 250.333 53 445zM601.999 1476l-197 150l-196 -150l-60 62l256 219l256 -219z
" />
    <glyph glyph-name="Otilde" unicode="&#xd5;" horiz-adv-x="809" 
d="M754 686c0 -123.333 -9.00098 -229.835 -27.001 -319.502s-42.5 -163.667 -73.5 -222s-67.833 -101.5 -110.5 -129.5s-88.334 -42 -137.001 -42c-50 0 -96.333 14 -139 42s-79.667 71.167 -111 129.5s-56 132.333 -74 222s-27 196.167 -27 319.5
c0 122.667 9 228.834 27 318.501s42.833 163.834 74.5 222.501s68.834 102 111.501 130s88.667 42 138 42c48.667 0 94.334 -14 137.001 -42s79.5 -71.167 110.5 -129.5s55.5 -132.333 73.5 -222s27 -196.167 27 -319.5zM615.999 685.998c0 194.667 -17.667 343 -53 445
s-87.666 153 -156.999 153c-71.333 0 -124.666 -51.5 -159.999 -154.5s-53 -250.833 -53 -443.5c0 -194.667 17.667 -343 53 -445s88.666 -153 159.999 -153c69.333 0 121.666 51 156.999 153s53 250.333 53 445zM638.999 1706c0 -17.333 -2.5 -38.6689 -7.5 -64.002
s-12.667 -49.666 -23 -72.999s-23.833 -43.166 -40.5 -59.499s-36.667 -24.5 -60 -24.5s-44.333 6.16699 -63 18.5s-35.834 26 -51.501 41l-42.5 41.5c-12.667 12.667 -24.667 19 -36 19c-12 0 -21.667 -5 -29 -15s-12.833 -21.667 -16.5 -35s-6 -26.666 -7 -39.999
s-1.83301 -23.333 -2.5 -30h-88c0 16.667 2.5 37.5 7.5 62.5s12.667 49.333 23 73s24 43.834 41 60.501s37.5 25 61.5 25c22.667 0 43.334 -6.33301 62.001 -19s35.5 -26.5 50.5 -41.5l41.5 -41.5c12.667 -12.667 24.667 -19 36 -19c12 0 21.667 5 29 15
s12.833 21.667 16.5 35s6.16699 26.666 7.5 39.999s2.33301 23.666 3 30.999h88v0z" />
    <glyph glyph-name="Odieresis" unicode="&#xd6;" horiz-adv-x="809" 
d="M754 686c0 -123.333 -9.00098 -229.835 -27.001 -319.502s-42.5 -163.667 -73.5 -222s-67.833 -101.5 -110.5 -129.5s-88.334 -42 -137.001 -42c-50 0 -96.333 14 -139 42s-79.667 71.167 -111 129.5s-56 132.333 -74 222s-27 196.167 -27 319.5
c0 122.667 9 228.834 27 318.501s42.833 163.834 74.5 222.501s68.834 102 111.501 130s88.667 42 138 42c48.667 0 94.334 -14 137.001 -42s79.5 -71.167 110.5 -129.5s55.5 -132.333 73.5 -222s27 -196.167 27 -319.5zM615.999 685.998c0 194.667 -17.667 343 -53 445
s-87.666 153 -156.999 153c-71.333 0 -124.666 -51.5 -159.999 -154.5s-53 -250.833 -53 -443.5c0 -194.667 17.667 -343 53 -445s88.666 -153 159.999 -153c69.333 0 121.666 51 156.999 153s53 250.333 53 445zM195.999 1571c0 21.333 7.33301 39.5 22 54.5
s32.667 22.5 54 22.5s39.666 -7.5 54.999 -22.5s23 -33.167 23 -54.5s-7.66699 -39.333 -23 -54s-33.666 -22 -54.999 -22s-39.333 7.33301 -54 22s-22 32.667 -22 54zM459.999 1571c0 21.333 7.33301 39.5 22 54.5s32.667 22.5 54 22.5s39.666 -7.5 54.999 -22.5
s23 -33.167 23 -54.5s-7.66699 -39.333 -23 -54s-33.666 -22 -54.999 -22s-39.333 7.33301 -54 22s-22 32.667 -22 54z" />
    <glyph glyph-name="multiply" unicode="&#xd7;" horiz-adv-x="936" 
d="M543 686l245 -246l-75 -75l-246 243l-242 -241l-78 77l244 242l-246 244l76 78l246 -246l242 242l77 -76z" />
    <glyph glyph-name="Oslash" unicode="&#xd8;" horiz-adv-x="809" 
d="M657 1219c30 -58.667 53.667 -132.003 71 -220.003s26 -192.333 26 -313c0 -123.333 -9 -229.833 -27 -319.5s-42.5 -163.667 -73.5 -222s-67.833 -101.5 -110.5 -129.5s-88.334 -42 -137.001 -42c-70 0 -131.667 26.667 -185 80l-51 -141h-109l91 240
c-31.333 58.667 -55.333 131.834 -72 219.501s-25 192.5 -25 314.5c0 122.667 9 228.834 27 318.501s42.833 163.834 74.5 222.501s68.834 102 111.501 130s88.667 42 138 42c32.667 0 64.5 -6.66699 95.5 -20s59.167 -33.333 84.5 -60l53 141h109zM616 685.997
c0 70 -2.33203 134 -6.99902 192s-11.667 110 -21 156l-318 -852c17.333 -30.667 37.333 -54 60 -70s48 -24 76 -24c69.333 0 121.666 51 156.999 153s53 250.333 53 445zM193.001 685.997c0 -70.667 1.99902 -135.167 5.99902 -193.5s10.667 -110.5 20 -156.5l318 852
c-33.333 64 -77 96 -131 96c-71.333 0 -124.666 -51.5 -159.999 -154.5s-53 -250.833 -53 -443.5z" />
    <glyph glyph-name="Ugrave" unicode="&#xd9;" horiz-adv-x="821" 
d="M10 1374h371v-112h-123v-881c0 -46 1.33301 -87.333 4 -124s9 -67.834 19 -93.501s25.333 -45.334 46 -59.001s49 -20.5 85 -20.5s64 6.83301 84 20.5s35 33.334 45 59.001s16.167 56.834 18.5 93.501s3.5 78 3.5 124v881h-123v112h371v-112h-123v-897
c0 -72 -4.83301 -132.833 -14.5 -182.5s-25.334 -90 -47.001 -121s-50.167 -53.5 -85.5 -67.5s-78.333 -21 -129 -21c-51.333 0 -94.666 7 -129.999 21s-64 36.5 -86 67.5s-38 71.333 -48 121s-15 110.5 -15 182.5v897h-123v112zM266 1751l268 -209l-43 -66l-291 176z" />
    <glyph glyph-name="Uacute" unicode="&#xda;" horiz-adv-x="821" 
d="M10 1374h371v-112h-123v-881c0 -46 1.33301 -87.333 4 -124s9 -67.834 19 -93.501s25.333 -45.334 46 -59.001s49 -20.5 85 -20.5s64 6.83301 84 20.5s35 33.334 45 59.001s16.167 56.834 18.5 93.501s3.5 78 3.5 124v881h-123v112h371v-112h-123v-897
c0 -72 -4.83301 -132.833 -14.5 -182.5s-25.334 -90 -47.001 -121s-50.167 -53.5 -85.5 -67.5s-78.333 -21 -129 -21c-51.333 0 -94.666 7 -129.999 21s-64 36.5 -86 67.5s-38 71.333 -48 121s-15 110.5 -15 182.5v897h-123v112zM618 1652l-291 -176l-43 66l269 209z" />
    <glyph glyph-name="Ucircumflex" unicode="&#xdb;" horiz-adv-x="821" 
d="M10 1374h371v-112h-123v-881c0 -46 1.33301 -87.333 4 -124s9 -67.834 19 -93.501s25.333 -45.334 46 -59.001s49 -20.5 85 -20.5s64 6.83301 84 20.5s35 33.334 45 59.001s16.167 56.834 18.5 93.501s3.5 78 3.5 124v881h-123v112h371v-112h-123v-897
c0 -72 -4.83301 -132.833 -14.5 -182.5s-25.334 -90 -47.001 -121s-50.167 -53.5 -85.5 -67.5s-78.333 -21 -129 -21c-51.333 0 -94.666 7 -129.999 21s-64 36.5 -86 67.5s-38 71.333 -48 121s-15 110.5 -15 182.5v897h-123v112zM606 1476l-197 150l-196 -150l-60 62
l256 219l256 -219z" />
    <glyph glyph-name="Udieresis" unicode="&#xdc;" horiz-adv-x="821" 
d="M10 1374h371v-112h-123v-881c0 -46 1.33301 -87.333 4 -124s9 -67.834 19 -93.501s25.333 -45.334 46 -59.001s49 -20.5 85 -20.5s64 6.83301 84 20.5s35 33.334 45 59.001s16.167 56.834 18.5 93.501s3.5 78 3.5 124v881h-123v112h371v-112h-123v-897
c0 -72 -4.83301 -132.833 -14.5 -182.5s-25.334 -90 -47.001 -121s-50.167 -53.5 -85.5 -67.5s-78.333 -21 -129 -21c-51.333 0 -94.666 7 -129.999 21s-64 36.5 -86 67.5s-38 71.333 -48 121s-15 110.5 -15 182.5v897h-123v112zM200 1571c0 21.333 7.33301 39.5 22 54.5
s32.667 22.5 54 22.5s39.666 -7.5 54.999 -22.5s23 -33.167 23 -54.5s-7.66699 -39.333 -23 -54s-33.666 -22 -54.999 -22s-39.333 7.33301 -54 22s-22 32.667 -22 54zM464 1571c0 21.333 7.33301 39.5 22 54.5s32.667 22.5 54 22.5s39.666 -7.5 54.999 -22.5
s23 -33.167 23 -54.5s-7.66699 -39.333 -23 -54s-33.666 -22 -54.999 -22s-39.333 7.33301 -54 22s-22 32.667 -22 54z" />
    <glyph glyph-name="Yacute" unicode="&#xdd;" horiz-adv-x="817" 
d="M0 1374h371v-112h-113l152 -535l149 535h-113v112h371v-112h-125l-221 -680v-469h143v-113h-411v113h143v469l-221 680h-125v112zM618 1652l-291 -176l-43 66l269 209z" />
    <glyph glyph-name="Thorn" unicode="&#xde;" horiz-adv-x="725" 
d="M147 1262h-122v112h370v-112h-123v-132h152c85.333 0 150 -35.667 194 -107s66 -176 66 -314c0 -138.667 -22 -244 -66 -316s-108.667 -108 -194 -108h-152v-172h123v-113h-370v113h122v1149zM547 709c0 65.333 -3.66699 118.168 -11 158.501s-18 71.666 -32 93.999
s-30.667 37.333 -50 45s-41 11.5 -65 11.5h-117v-621h117h31c11.333 0 22.833 2.16699 34.5 6.5s23 12.333 34 24s20.833 29 29.5 52s15.667 53 21 90s8 83.5 8 139.5z" />
    <glyph glyph-name="germandbls" unicode="&#xdf;" horiz-adv-x="625" 
d="M113 1069c0 109.333 18.665 191.006 55.998 245.006s91.666 81 162.999 81c24 0 48.167 -5.83301 72.5 -17.5s46.333 -29.667 66 -54s35.667 -55.5 48 -93.5s18.5 -83.333 18.5 -136c0 -34 -2.33301 -66.5 -7 -97.5s-12.5 -59.333 -23.5 -85s-25.5 -48.334 -43.5 -68.001
s-40.667 -35.167 -68 -46.5c58.667 -13.333 104.167 -53.833 136.5 -121.5s48.5 -160.5 48.5 -278.5c0 -74.667 -5 -138.834 -15 -192.501s-23.667 -97.667 -41 -132s-37.666 -59.5 -60.999 -75.5s-48.666 -24 -75.999 -24c-23.333 0 -44.833 3.66699 -64.5 11
s-39.834 16.666 -60.501 27.999l41 97c7.33301 -5.33301 16.333 -11.5 27 -18.5s23.667 -10.5 39 -10.5c14 0 26.333 6 37 18s19.667 30.667 27 56s12.833 58.166 16.5 98.499s5.5 88.5 5.5 144.5c0 46 -2.5 88.833 -7.5 128.5s-13.833 74.167 -26.5 103.5
s-30 52.666 -52 69.999s-50 26.666 -84 27.999v107c26 0 47.333 6 64 18s29.834 29.333 39.501 52s16.334 50 20.001 82s5.5 68 5.5 108c0 27.333 -1.66699 52.833 -5 76.5s-8.5 44 -15.5 61s-15.833 30.333 -26.5 40s-23.667 14.5 -39 14.5c-30 0 -52.5 -16.5 -67.5 -49.5
s-22.5 -89.5 -22.5 -169.5v-1067h-207v113h82v956z" />
    <glyph glyph-name="agrave" unicode="&#xe0;" horiz-adv-x="555" 
d="M328 500c-35.333 -3.33301 -63.835 -10.498 -85.502 -21.498s-38.5 -26.333 -50.5 -46s-20 -43.834 -24 -72.501s-6 -62 -6 -100c0 -58.667 6 -103.334 18 -134.001s28.333 -46 49 -46c8.66699 0 17.834 3.33301 27.501 10s19 15.667 28 27s17.333 24.833 25 40.5
s13.834 32.167 18.501 49.5v293zM73.998 743.002c4 48 11.999 87.165 23.999 117.498s26.5 54.333 43.5 72s36.167 29.834 57.5 36.501s43.666 10 66.999 10c26 0 50.333 -4.16699 73 -12.5s42.5 -23.333 59.5 -45s30.333 -51.5 40 -89.5s14.5 -86.667 14.5 -146v-573h82
v-113h-207v66c-19.333 -31.333 -39 -54.666 -59 -69.999s-46.333 -23 -79 -23c-20 0 -39 6 -57 18s-34 29.833 -48 53.5s-25.167 53 -33.5 88s-12.5 75.5 -12.5 121.5c0 65.333 7.33301 118.833 22 160.5s35 75 61 100s56.5 43.333 91.5 55s73.167 20.5 114.5 26.5v92
c0 40 -1.83301 72 -5.5 96s-8.5 42.5 -14.5 55.5s-12.833 21.667 -20.5 26s-15.5 6.5 -23.5 6.5c-21.333 0 -37.666 -11.833 -48.999 -35.5s-18.666 -61.5 -21.999 -113.5zM123.997 1356l268 -209l-43 -66l-291 176z" />
    <glyph glyph-name="aacute" unicode="&#xe1;" horiz-adv-x="555" 
d="M328 500c-35.333 -3.33301 -63.835 -10.498 -85.502 -21.498s-38.5 -26.333 -50.5 -46s-20 -43.834 -24 -72.501s-6 -62 -6 -100c0 -58.667 6 -103.334 18 -134.001s28.333 -46 49 -46c8.66699 0 17.834 3.33301 27.501 10s19 15.667 28 27s17.333 24.833 25 40.5
s13.834 32.167 18.501 49.5v293zM73.998 743.002c4 48 11.999 87.165 23.999 117.498s26.5 54.333 43.5 72s36.167 29.834 57.5 36.501s43.666 10 66.999 10c26 0 50.333 -4.16699 73 -12.5s42.5 -23.333 59.5 -45s30.333 -51.5 40 -89.5s14.5 -86.667 14.5 -146v-573h82
v-113h-207v66c-19.333 -31.333 -39 -54.666 -59 -69.999s-46.333 -23 -79 -23c-20 0 -39 6 -57 18s-34 29.833 -48 53.5s-25.167 53 -33.5 88s-12.5 75.5 -12.5 121.5c0 65.333 7.33301 118.833 22 160.5s35 75 61 100s56.5 43.333 91.5 55s73.167 20.5 114.5 26.5v92
c0 40 -1.83301 72 -5.5 96s-8.5 42.5 -14.5 55.5s-12.833 21.667 -20.5 26s-15.5 6.5 -23.5 6.5c-21.333 0 -37.666 -11.833 -48.999 -35.5s-18.666 -61.5 -21.999 -113.5zM475.997 1257l-291 -176l-43 66l269 209z" />
    <glyph glyph-name="acircumflex" unicode="&#xe2;" horiz-adv-x="555" 
d="M328 500c-35.333 -3.33301 -63.835 -10.498 -85.502 -21.498s-38.5 -26.333 -50.5 -46s-20 -43.834 -24 -72.501s-6 -62 -6 -100c0 -58.667 6 -103.334 18 -134.001s28.333 -46 49 -46c8.66699 0 17.834 3.33301 27.501 10s19 15.667 28 27s17.333 24.833 25 40.5
s13.834 32.167 18.501 49.5v293zM73.998 743.002c4 48 11.999 87.165 23.999 117.498s26.5 54.333 43.5 72s36.167 29.834 57.5 36.501s43.666 10 66.999 10c26 0 50.333 -4.16699 73 -12.5s42.5 -23.333 59.5 -45s30.333 -51.5 40 -89.5s14.5 -86.667 14.5 -146v-573h82
v-113h-207v66c-19.333 -31.333 -39 -54.666 -59 -69.999s-46.333 -23 -79 -23c-20 0 -39 6 -57 18s-34 29.833 -48 53.5s-25.167 53 -33.5 88s-12.5 75.5 -12.5 121.5c0 65.333 7.33301 118.833 22 160.5s35 75 61 100s56.5 43.333 91.5 55s73.167 20.5 114.5 26.5v92
c0 40 -1.83301 72 -5.5 96s-8.5 42.5 -14.5 55.5s-12.833 21.667 -20.5 26s-15.5 6.5 -23.5 6.5c-21.333 0 -37.666 -11.833 -48.999 -35.5s-18.666 -61.5 -21.999 -113.5zM463.997 1081l-197 150l-196 -150l-60 62l256 219l256 -219z" />
    <glyph glyph-name="atilde" unicode="&#xe3;" horiz-adv-x="555" 
d="M328 500c-35.333 -3.33301 -63.835 -10.498 -85.502 -21.498s-38.5 -26.333 -50.5 -46s-20 -43.834 -24 -72.501s-6 -62 -6 -100c0 -58.667 6 -103.334 18 -134.001s28.333 -46 49 -46c8.66699 0 17.834 3.33301 27.501 10s19 15.667 28 27s17.333 24.833 25 40.5
s13.834 32.167 18.501 49.5v293zM73.998 743.002c4 48 11.999 87.165 23.999 117.498s26.5 54.333 43.5 72s36.167 29.834 57.5 36.501s43.666 10 66.999 10c26 0 50.333 -4.16699 73 -12.5s42.5 -23.333 59.5 -45s30.333 -51.5 40 -89.5s14.5 -86.667 14.5 -146v-573h82
v-113h-207v66c-19.333 -31.333 -39 -54.666 -59 -69.999s-46.333 -23 -79 -23c-20 0 -39 6 -57 18s-34 29.833 -48 53.5s-25.167 53 -33.5 88s-12.5 75.5 -12.5 121.5c0 65.333 7.33301 118.833 22 160.5s35 75 61 100s56.5 43.333 91.5 55s73.167 20.5 114.5 26.5v92
c0 40 -1.83301 72 -5.5 96s-8.5 42.5 -14.5 55.5s-12.833 21.667 -20.5 26s-15.5 6.5 -23.5 6.5c-21.333 0 -37.666 -11.833 -48.999 -35.5s-18.666 -61.5 -21.999 -113.5zM500.997 1311c0 -17.333 -2.5 -38.6689 -7.5 -64.002s-12.667 -49.666 -23 -72.999
s-23.833 -43.166 -40.5 -59.499s-36.667 -24.5 -60 -24.5s-44.333 6.16699 -63 18.5s-35.834 26 -51.501 41l-42.5 41.5c-12.667 12.667 -24.667 19 -36 19c-12 0 -21.667 -5 -29 -15s-12.833 -21.667 -16.5 -35s-6 -26.666 -7 -39.999s-1.83301 -23.333 -2.5 -30h-88
c0 16.667 2.5 37.5 7.5 62.5s12.667 49.333 23 73s24 43.834 41 60.501s37.5 25 61.5 25c22.667 0 43.334 -6.33301 62.001 -19s35.5 -26.5 50.5 -41.5l41.5 -41.5c12.667 -12.667 24.667 -19 36 -19c12 0 21.667 5 29 15s12.833 21.667 16.5 35s6.16699 26.666 7.5 39.999
s2.33301 23.666 3 30.999h88v0z" />
    <glyph glyph-name="adieresis" unicode="&#xe4;" horiz-adv-x="555" 
d="M328 500c-35.333 -3.33301 -63.835 -10.498 -85.502 -21.498s-38.5 -26.333 -50.5 -46s-20 -43.834 -24 -72.501s-6 -62 -6 -100c0 -58.667 6 -103.334 18 -134.001s28.333 -46 49 -46c8.66699 0 17.834 3.33301 27.501 10s19 15.667 28 27s17.333 24.833 25 40.5
s13.834 32.167 18.501 49.5v293zM73.998 743.002c4 48 11.999 87.165 23.999 117.498s26.5 54.333 43.5 72s36.167 29.834 57.5 36.501s43.666 10 66.999 10c26 0 50.333 -4.16699 73 -12.5s42.5 -23.333 59.5 -45s30.333 -51.5 40 -89.5s14.5 -86.667 14.5 -146v-573h82
v-113h-207v66c-19.333 -31.333 -39 -54.666 -59 -69.999s-46.333 -23 -79 -23c-20 0 -39 6 -57 18s-34 29.833 -48 53.5s-25.167 53 -33.5 88s-12.5 75.5 -12.5 121.5c0 65.333 7.33301 118.833 22 160.5s35 75 61 100s56.5 43.333 91.5 55s73.167 20.5 114.5 26.5v92
c0 40 -1.83301 72 -5.5 96s-8.5 42.5 -14.5 55.5s-12.833 21.667 -20.5 26s-15.5 6.5 -23.5 6.5c-21.333 0 -37.666 -11.833 -48.999 -35.5s-18.666 -61.5 -21.999 -113.5zM57.9971 1176c0 21.333 7.33301 39.5 22 54.5s32.667 22.5 54 22.5s39.666 -7.5 54.999 -22.5
s23 -33.167 23 -54.5s-7.66699 -39.333 -23 -54s-33.666 -22 -54.999 -22s-39.333 7.33301 -54 22s-22 32.667 -22 54zM321.997 1176c0 21.333 7.33301 39.5 22 54.5s32.667 22.5 54 22.5s39.666 -7.5 54.999 -22.5s23 -33.167 23 -54.5s-7.66699 -39.333 -23 -54
s-33.666 -22 -54.999 -22s-39.333 7.33301 -54 22s-22 32.667 -22 54z" />
    <glyph glyph-name="aring" unicode="&#xe5;" horiz-adv-x="555" 
d="M328 500c-35.333 -3.33301 -63.835 -10.498 -85.502 -21.498s-38.5 -26.333 -50.5 -46s-20 -43.834 -24 -72.501s-6 -62 -6 -100c0 -58.667 6 -103.334 18 -134.001s28.333 -46 49 -46c8.66699 0 17.834 3.33301 27.501 10s19 15.667 28 27s17.333 24.833 25 40.5
s13.834 32.167 18.501 49.5v293zM73.998 743.002c4 48 11.999 87.165 23.999 117.498s26.5 54.333 43.5 72s36.167 29.834 57.5 36.501s43.666 10 66.999 10c26 0 50.333 -4.16699 73 -12.5s42.5 -23.333 59.5 -45s30.333 -51.5 40 -89.5s14.5 -86.667 14.5 -146v-573h82
v-113h-207v66c-19.333 -31.333 -39 -54.666 -59 -69.999s-46.333 -23 -79 -23c-20 0 -39 6 -57 18s-34 29.833 -48 53.5s-25.167 53 -33.5 88s-12.5 75.5 -12.5 121.5c0 65.333 7.33301 118.833 22 160.5s35 75 61 100s56.5 43.333 91.5 55s73.167 20.5 114.5 26.5v92
c0 40 -1.83301 72 -5.5 96s-8.5 42.5 -14.5 55.5s-12.833 21.667 -20.5 26s-15.5 6.5 -23.5 6.5c-21.333 0 -37.666 -11.833 -48.999 -35.5s-18.666 -61.5 -21.999 -113.5zM78.9971 1245c0 26 5 50.5 15 73.5s23.5 43 40.5 60s37 30.5 60 40.5s47.5 15 73.5 15
s50.333 -5 73 -15s42.5 -23.5 59.5 -40.5s30.5 -37 40.5 -60s15 -47.5 15 -73.5s-5 -50.5 -15 -73.5s-23.5 -43 -40.5 -60s-36.833 -30.333 -59.5 -40s-47 -14.5 -73 -14.5s-50.5 4.83301 -73.5 14.5s-43 23 -60 40s-30.5 37 -40.5 60s-15 47.5 -15 73.5zM170.997 1245
c0 -26.667 9.33301 -49.334 28 -68.001s41.667 -28 69 -28c26.667 0 49.334 9.33301 68.001 28s28 41.334 28 68.001s-9.33301 49.334 -28 68.001s-41.334 28 -68.001 28c-27.333 0 -50.333 -9.33301 -69 -28s-28 -41.334 -28 -68.001z" />
    <glyph glyph-name="ae" unicode="&#xe6;" horiz-adv-x="819" 
d="M569 82c19.333 0 35.334 6.16699 48.001 18.5s23.167 27.666 31.5 45.999s14.833 38 19.5 59s8.66699 40.5 12 58.5h98c-5.33301 -41.333 -13.5 -79.833 -24.5 -115.5s-25.5 -66.5 -43.5 -92.5s-39.167 -46.333 -63.5 -61s-52.166 -22 -83.499 -22
c-78.667 0 -138.667 48.667 -180 146c-15.333 -28 -30.5 -51.5 -45.5 -70.5s-30 -34 -45 -45s-30 -18.833 -45 -23.5s-30.5 -7 -46.5 -7c-22.667 0 -43.834 6 -63.501 18s-36.834 29.833 -51.501 53.5s-26.167 53 -34.5 88s-12.5 75.5 -12.5 121.5
c0 65.333 7.5 118.833 22.5 160.5s35.833 75 62.5 100s57.667 43.333 93 55s73.666 20.5 114.999 26.5v92c0 40 -2 72 -6 96s-9.16699 42.5 -15.5 55.5s-13.666 21.667 -21.999 26s-16.5 6.5 -24.5 6.5c-21.333 0 -38.833 -11.833 -52.5 -35.5s-22.167 -61.5 -25.5 -113.5
l-112 20c4 48 12.833 87.167 26.5 117.5s29.5 54.333 47.5 72s37.167 29.834 57.5 36.501s39.166 10 56.499 10c34 0 63.333 -10.333 88 -31s45.334 -48.667 62.001 -84c16 35.333 37.5 62.333 64.5 81s53.167 28 78.5 28c70 0 124.333 -45.667 163 -137s58 -224 58 -398
v-22h-319c2 -109.333 11.167 -192.333 27.5 -249s44.5 -85 84.5 -85zM229.001 80c10.667 0 21.6699 5.33398 33.0029 16.001s22.333 24.5 33 41.5s20.167 35.833 28.5 56.5s15.166 41.334 20.499 62.001c-2.66699 14.667 -4.83398 30 -6.50098 46s-3.16699 33.667 -4.5 53
s-2.33301 40.833 -3 64.5s-1.33398 50.5 -2.00098 80.5c-35.333 -3.33301 -63.833 -10.5 -85.5 -21.5s-38.5 -26.333 -50.5 -46s-20 -43.834 -24 -72.501s-6 -62 -6 -100c0 -58.667 6 -103.334 18 -134.001s28.333 -46 49 -46zM647.004 520.001
c-0.666992 44.667 -2.83105 87.667 -6.49805 129s-9.33398 77.833 -17.001 109.5s-17.334 56.834 -29.001 75.501s-25.5 28 -41.5 28c-15.333 0 -28.666 -9.33301 -39.999 -28s-21 -43.834 -29 -75.501s-14.333 -68.167 -19 -109.5s-7.33398 -84.333 -8.00098 -129h190z" />
    <glyph glyph-name="ccedilla" unicode="&#xe7;" horiz-adv-x="543" 
d="M387 604l-0.00195312 71.9941c0 40.667 -3.16699 73.834 -9.5 99.501s-14.166 45.667 -23.499 60s-19.5 24 -30.5 29s-21.167 7.5 -30.5 7.5c-20.667 0 -38.5 -9.16699 -53.5 -27.5s-27.333 -44.666 -37 -78.999s-16.834 -75.833 -21.501 -124.5s-7 -103.334 -7 -164.001
c0 -61.333 2 -116.333 6 -165s10.833 -90 20.5 -124s22 -60.167 37 -78.5s33.5 -27.5 55.5 -27.5c19.333 0 35.666 6.16699 48.999 18.5s24.333 27.666 33 45.999s15.667 38 21 59s10 40.5 14 58.5h98c-4.66699 -37.333 -12 -72.166 -22 -104.499s-22.667 -61 -38 -86
s-33.166 -45.833 -53.499 -62.5s-43.166 -28 -68.499 -34l-19 -75c14 0 29.333 -2.33301 46 -7s32.5 -12.5 47.5 -23.5s27.5 -25.667 37.5 -44s15 -41.5 15 -69.5c0 -30 -5.66699 -55.167 -17 -75.5s-25.666 -36.666 -42.999 -48.999s-37 -21.166 -59 -26.499
s-43.333 -8 -64 -8c-42 0 -78 5.5 -108 16.5s-53.333 21.167 -70 30.5l49 88c15.333 -12.667 33 -23.334 53 -32.001s41.333 -13 64 -13c28.667 0 51.167 6.33301 67.5 19s24.5 29.334 24.5 50.001c0 12.667 -2.66699 23.334 -8 32.001s-12.5 15.5 -21.5 20.5
s-19 8.5 -30 10.5s-22.5 3 -34.5 3c-20 0 -39 -2 -57 -6l39 164c-60.667 18 -108.334 68.333 -143.001 151s-52 196.667 -52 342c0 81.333 6.33301 153.333 19 216s29.834 115.167 51.501 157.5s46.667 74.333 75 96s58.5 32.5 90.5 32.5c14 0 26.667 -2.33301 38 -7
s21.5 -10.667 30.5 -18s16.833 -15.666 23.5 -24.999s12 -18.666 16 -27.999v53h105v-348h-105z" />
    <glyph glyph-name="egrave" unicode="&#xe8;" horiz-adv-x="535" 
d="M362 520c-0.666992 44.667 -2.83203 87.667 -6.49902 129s-9.16699 77.833 -16.5 109.5s-16.833 56.834 -28.5 75.501s-25.834 28 -42.501 28c-15.333 0 -28.666 -9.33301 -39.999 -28s-21 -43.834 -29 -75.501s-14.333 -68.167 -19 -109.5
s-7.33398 -84.333 -8.00098 -129h190zM285.002 82c19.333 0 35.3311 6.16797 47.998 18.501s23 27.666 31 45.999s14.333 38 19 59s8.66699 40.5 12 58.5h99c-5.33301 -41.333 -13.666 -79.833 -24.999 -115.5s-26 -66.5 -44 -92.5s-39.167 -46.333 -63.5 -61
s-51.833 -22 -82.5 -22c-36 0 -68.5 10.667 -97.5 32s-53.833 53 -74.5 95s-36.5 94 -47.5 156s-16.5 133.667 -16.5 215c0 76.667 5.5 146 16.5 208s26.5 114.667 46.5 158s43.833 76.833 71.5 100.5s58.5 35.5 92.5 35.5c70.667 0 125.334 -45.667 164.001 -137
s58 -224 58 -398v-22h-320c2 -109.333 11.333 -192.333 28 -249s45 -85 85 -85zM128 1356l268 -209l-43 -66l-291 176z" />
    <glyph glyph-name="eacute" unicode="&#xe9;" horiz-adv-x="535" 
d="M362 520c-0.666992 44.667 -2.83203 87.667 -6.49902 129s-9.16699 77.833 -16.5 109.5s-16.833 56.834 -28.5 75.501s-25.834 28 -42.501 28c-15.333 0 -28.666 -9.33301 -39.999 -28s-21 -43.834 -29 -75.501s-14.333 -68.167 -19 -109.5
s-7.33398 -84.333 -8.00098 -129h190zM285.002 82c19.333 0 35.3311 6.16797 47.998 18.501s23 27.666 31 45.999s14.333 38 19 59s8.66699 40.5 12 58.5h99c-5.33301 -41.333 -13.666 -79.833 -24.999 -115.5s-26 -66.5 -44 -92.5s-39.167 -46.333 -63.5 -61
s-51.833 -22 -82.5 -22c-36 0 -68.5 10.667 -97.5 32s-53.833 53 -74.5 95s-36.5 94 -47.5 156s-16.5 133.667 -16.5 215c0 76.667 5.5 146 16.5 208s26.5 114.667 46.5 158s43.833 76.833 71.5 100.5s58.5 35.5 92.5 35.5c70.667 0 125.334 -45.667 164.001 -137
s58 -224 58 -398v-22h-320c2 -109.333 11.333 -192.333 28 -249s45 -85 85 -85zM480 1257l-291 -176l-43 66l269 209z" />
    <glyph glyph-name="ecircumflex" unicode="&#xea;" horiz-adv-x="535" 
d="M362 520c-0.666992 44.667 -2.83203 87.667 -6.49902 129s-9.16699 77.833 -16.5 109.5s-16.833 56.834 -28.5 75.501s-25.834 28 -42.501 28c-15.333 0 -28.666 -9.33301 -39.999 -28s-21 -43.834 -29 -75.501s-14.333 -68.167 -19 -109.5
s-7.33398 -84.333 -8.00098 -129h190zM285.002 82c19.333 0 35.3311 6.16797 47.998 18.501s23 27.666 31 45.999s14.333 38 19 59s8.66699 40.5 12 58.5h99c-5.33301 -41.333 -13.666 -79.833 -24.999 -115.5s-26 -66.5 -44 -92.5s-39.167 -46.333 -63.5 -61
s-51.833 -22 -82.5 -22c-36 0 -68.5 10.667 -97.5 32s-53.833 53 -74.5 95s-36.5 94 -47.5 156s-16.5 133.667 -16.5 215c0 76.667 5.5 146 16.5 208s26.5 114.667 46.5 158s43.833 76.833 71.5 100.5s58.5 35.5 92.5 35.5c70.667 0 125.334 -45.667 164.001 -137
s58 -224 58 -398v-22h-320c2 -109.333 11.333 -192.333 28 -249s45 -85 85 -85zM468 1081l-197 150l-196 -150l-60 62l256 219l256 -219z" />
    <glyph glyph-name="edieresis" unicode="&#xeb;" horiz-adv-x="535" 
d="M362 520c-0.666992 44.667 -2.83203 87.667 -6.49902 129s-9.16699 77.833 -16.5 109.5s-16.833 56.834 -28.5 75.501s-25.834 28 -42.501 28c-15.333 0 -28.666 -9.33301 -39.999 -28s-21 -43.834 -29 -75.501s-14.333 -68.167 -19 -109.5
s-7.33398 -84.333 -8.00098 -129h190zM285.002 82c19.333 0 35.3311 6.16797 47.998 18.501s23 27.666 31 45.999s14.333 38 19 59s8.66699 40.5 12 58.5h99c-5.33301 -41.333 -13.666 -79.833 -24.999 -115.5s-26 -66.5 -44 -92.5s-39.167 -46.333 -63.5 -61
s-51.833 -22 -82.5 -22c-36 0 -68.5 10.667 -97.5 32s-53.833 53 -74.5 95s-36.5 94 -47.5 156s-16.5 133.667 -16.5 215c0 76.667 5.5 146 16.5 208s26.5 114.667 46.5 158s43.833 76.833 71.5 100.5s58.5 35.5 92.5 35.5c70.667 0 125.334 -45.667 164.001 -137
s58 -224 58 -398v-22h-320c2 -109.333 11.333 -192.333 28 -249s45 -85 85 -85zM62 1176c0 21.333 7.33301 39.5 22 54.5s32.667 22.5 54 22.5s39.666 -7.5 54.999 -22.5s23 -33.167 23 -54.5s-7.66699 -39.333 -23 -54s-33.666 -22 -54.999 -22s-39.333 7.33301 -54 22
s-22 32.667 -22 54zM326 1176c0 21.333 7.33301 39.5 22 54.5s32.667 22.5 54 22.5s39.666 -7.5 54.999 -22.5s23 -33.167 23 -54.5s-7.66699 -39.333 -23 -54s-33.666 -22 -54.999 -22s-39.333 7.33301 -54 22s-22 32.667 -22 54z" />
    <glyph glyph-name="igrave" unicode="&#xec;" horiz-adv-x="350" 
d="M31 952h207v-839h100v-113h-307v113h82v727h-82v112zM5 1356l268 -209l-43 -66l-291 176z" />
    <glyph glyph-name="iacute" unicode="&#xed;" horiz-adv-x="350" 
d="M31 952h207v-839h100v-113h-307v113h82v727h-82v112zM357 1257l-291 -176l-43 66l269 209z" />
    <glyph glyph-name="icircumflex" unicode="&#xee;" horiz-adv-x="350" 
d="M31 952h207v-839h100v-113h-307v113h82v727h-82v112zM345 1081l-197 150l-196 -150l-60 62l256 219l256 -219z" />
    <glyph glyph-name="idieresis" unicode="&#xef;" horiz-adv-x="350" 
d="M31 952h207v-839h100v-113h-307v113h82v727h-82v112zM-61 1176c0 21.333 7.33301 39.5 22 54.5s32.667 22.5 54 22.5s39.666 -7.5 54.999 -22.5s23 -33.167 23 -54.5s-7.66699 -39.333 -23 -54s-33.666 -22 -54.999 -22s-39.333 7.33301 -54 22s-22 32.667 -22 54z
M203 1176c0 21.333 7.33301 39.5 22 54.5s32.667 22.5 54 22.5s39.666 -7.5 54.999 -22.5s23 -33.167 23 -54.5s-7.66699 -39.333 -23 -54s-33.666 -22 -54.999 -22s-39.333 7.33301 -54 22s-22 32.667 -22 54z" />
    <glyph glyph-name="eth" unicode="&#xf0;" horiz-adv-x="575" 
d="M391 1223c46 -83.333 80.999 -185.166 104.999 -305.499s36 -260.833 36 -421.5c0 -92 -6.16699 -171 -18.5 -237s-29.5 -120.167 -51.5 -162.5s-47.833 -73.5 -77.5 -93.5s-61.5 -30 -95.5 -30c-34.667 0 -67 9 -97 27s-56 46.5 -78 85.5s-39.333 89.167 -52 150.5
s-19 135.666 -19 222.999c0 86.667 6.33301 161.167 19 223.5s30.167 113.5 52.5 153.5s48.5 69.333 78.5 88s62 28 96 28c26.667 0 52.667 -6 78 -18c-10.667 44 -22 84.833 -34 122.5s-25.333 71.834 -40 102.501l-119 -76l-53 86l123 78c-23.333 34 -46 61.333 -68 82
l62 78c17.333 -14.667 34.333 -29.834 51 -45.501s32.334 -33.167 47.001 -52.5l129 82l55 -84zM409.999 496c0 51.333 -1.50195 100.002 -4.50195 146.002s-7.16699 90 -12.5 132c-13.333 21.333 -30.166 38.666 -50.499 51.999s-38.166 20 -53.499 20
c-41.333 0 -72.166 -32.333 -92.499 -97s-30.5 -161.334 -30.5 -290.001s10.167 -224 30.5 -286s51.166 -93 92.499 -93c80.667 0 121 138.667 121 416z" />
    <glyph glyph-name="ntilde" unicode="&#xf1;" horiz-adv-x="647" 
d="M31 952h207.003v-106c23.333 40 48.166 72.167 74.499 96.5s56.5 36.5 90.5 36.5c49.333 0 84.666 -21.667 105.999 -65s32 -105 32 -185v-616h82v-113h-269v113h62v577c0 36.667 -0.833008 66.334 -2.5 89.001s-4.33398 40.5 -8.00098 53.5s-8.5 21.833 -14.5 26.5
s-13.333 7 -22 7c-13.333 0 -26.833 -6.5 -40.5 -19.5s-26.5 -29.833 -38.5 -50.5s-22.667 -43.834 -32 -69.501s-16 -51.5 -20 -77.5v-536h61v-113h-268v113h82v727h-82v112zM541.003 1311c0 -17.333 -2.5 -38.6689 -7.5 -64.002s-12.667 -49.666 -23 -72.999
s-23.833 -43.166 -40.5 -59.499s-36.667 -24.5 -60 -24.5s-44.333 6.16699 -63 18.5s-35.834 26 -51.501 41l-42.5 41.5c-12.667 12.667 -24.667 19 -36 19c-12 0 -21.667 -5 -29 -15s-12.833 -21.667 -16.5 -35s-6 -26.666 -7 -39.999s-1.83301 -23.333 -2.5 -30h-88
c0 16.667 2.5 37.5 7.5 62.5s12.667 49.333 23 73s24 43.834 41 60.501s37.5 25 61.5 25c22.667 0 43.334 -6.33301 62.001 -19s35.5 -26.5 50.5 -41.5l41.5 -41.5c12.667 -12.667 24.667 -19 36 -19c12 0 21.667 5 29 15s12.833 21.667 16.5 35s6.16699 26.666 7.5 39.999
s2.33301 23.666 3 30.999h88v0z" />
    <glyph glyph-name="ograve" unicode="&#xf2;" horiz-adv-x="575" 
d="M532 475c0 -87.333 -6.16699 -162.501 -18.5 -225.501s-29.5 -115 -51.5 -156s-47.833 -71.333 -77.5 -91s-61.5 -29.5 -95.5 -29.5c-34.667 0 -67 9.83301 -97 29.5s-56 50 -78 91s-39.333 93 -52 156s-19 138.167 -19 225.5c0 86.667 6.33301 161.834 19 225.501
s30.167 116 52.5 157s48.5 71.5 78.5 91.5s62 30 96 30s65.833 -9.83301 95.5 -29.5s55.5 -50 77.5 -91s39.167 -93.333 51.5 -157s18.5 -139.167 18.5 -226.5zM410 474.999c0 130 -10.167 228.667 -30.5 296s-50.5 101 -90.5 101c-41.333 0 -72.166 -34 -92.499 -102
s-30.5 -166.333 -30.5 -295s10.167 -226.667 30.5 -294s51.166 -101 92.499 -101c40 0 70.167 33.667 90.5 101s30.5 165.333 30.5 294zM147 1356l268 -209l-43 -66l-291 176z" />
    <glyph glyph-name="oacute" unicode="&#xf3;" horiz-adv-x="575" 
d="M532 475c0 -87.333 -6.16699 -162.501 -18.5 -225.501s-29.5 -115 -51.5 -156s-47.833 -71.333 -77.5 -91s-61.5 -29.5 -95.5 -29.5c-34.667 0 -67 9.83301 -97 29.5s-56 50 -78 91s-39.333 93 -52 156s-19 138.167 -19 225.5c0 86.667 6.33301 161.834 19 225.501
s30.167 116 52.5 157s48.5 71.5 78.5 91.5s62 30 96 30s65.833 -9.83301 95.5 -29.5s55.5 -50 77.5 -91s39.167 -93.333 51.5 -157s18.5 -139.167 18.5 -226.5zM410 474.999c0 130 -10.167 228.667 -30.5 296s-50.5 101 -90.5 101c-41.333 0 -72.166 -34 -92.499 -102
s-30.5 -166.333 -30.5 -295s10.167 -226.667 30.5 -294s51.166 -101 92.499 -101c40 0 70.167 33.667 90.5 101s30.5 165.333 30.5 294zM499 1257l-291 -176l-43 66l269 209z" />
    <glyph glyph-name="ocircumflex" unicode="&#xf4;" horiz-adv-x="575" 
d="M532 475c0 -87.333 -6.16699 -162.501 -18.5 -225.501s-29.5 -115 -51.5 -156s-47.833 -71.333 -77.5 -91s-61.5 -29.5 -95.5 -29.5c-34.667 0 -67 9.83301 -97 29.5s-56 50 -78 91s-39.333 93 -52 156s-19 138.167 -19 225.5c0 86.667 6.33301 161.834 19 225.501
s30.167 116 52.5 157s48.5 71.5 78.5 91.5s62 30 96 30s65.833 -9.83301 95.5 -29.5s55.5 -50 77.5 -91s39.167 -93.333 51.5 -157s18.5 -139.167 18.5 -226.5zM410 474.999c0 130 -10.167 228.667 -30.5 296s-50.5 101 -90.5 101c-41.333 0 -72.166 -34 -92.499 -102
s-30.5 -166.333 -30.5 -295s10.167 -226.667 30.5 -294s51.166 -101 92.499 -101c40 0 70.167 33.667 90.5 101s30.5 165.333 30.5 294zM487 1081l-197 150l-196 -150l-60 62l256 219l256 -219z" />
    <glyph glyph-name="otilde" unicode="&#xf5;" horiz-adv-x="575" 
d="M532 475c0 -87.333 -6.16699 -162.501 -18.5 -225.501s-29.5 -115 -51.5 -156s-47.833 -71.333 -77.5 -91s-61.5 -29.5 -95.5 -29.5c-34.667 0 -67 9.83301 -97 29.5s-56 50 -78 91s-39.333 93 -52 156s-19 138.167 -19 225.5c0 86.667 6.33301 161.834 19 225.501
s30.167 116 52.5 157s48.5 71.5 78.5 91.5s62 30 96 30s65.833 -9.83301 95.5 -29.5s55.5 -50 77.5 -91s39.167 -93.333 51.5 -157s18.5 -139.167 18.5 -226.5zM410 474.999c0 130 -10.167 228.667 -30.5 296s-50.5 101 -90.5 101c-41.333 0 -72.166 -34 -92.499 -102
s-30.5 -166.333 -30.5 -295s10.167 -226.667 30.5 -294s51.166 -101 92.499 -101c40 0 70.167 33.667 90.5 101s30.5 165.333 30.5 294zM524 1311c0 -17.333 -2.5 -38.6689 -7.5 -64.002s-12.667 -49.666 -23 -72.999s-23.833 -43.166 -40.5 -59.499
s-36.667 -24.5 -60 -24.5s-44.333 6.16699 -63 18.5s-35.834 26 -51.501 41l-42.5 41.5c-12.667 12.667 -24.667 19 -36 19c-12 0 -21.667 -5 -29 -15s-12.833 -21.667 -16.5 -35s-6 -26.666 -7 -39.999s-1.83301 -23.333 -2.5 -30h-88c0 16.667 2.5 37.5 7.5 62.5
s12.667 49.333 23 73s24 43.834 41 60.501s37.5 25 61.5 25c22.667 0 43.334 -6.33301 62.001 -19s35.5 -26.5 50.5 -41.5l41.5 -41.5c12.667 -12.667 24.667 -19 36 -19c12 0 21.667 5 29 15s12.833 21.667 16.5 35s6.16699 26.666 7.5 39.999s2.33301 23.666 3 30.999h88
v0z" />
    <glyph glyph-name="odieresis" unicode="&#xf6;" horiz-adv-x="575" 
d="M532 475c0 -87.333 -6.16699 -162.501 -18.5 -225.501s-29.5 -115 -51.5 -156s-47.833 -71.333 -77.5 -91s-61.5 -29.5 -95.5 -29.5c-34.667 0 -67 9.83301 -97 29.5s-56 50 -78 91s-39.333 93 -52 156s-19 138.167 -19 225.5c0 86.667 6.33301 161.834 19 225.501
s30.167 116 52.5 157s48.5 71.5 78.5 91.5s62 30 96 30s65.833 -9.83301 95.5 -29.5s55.5 -50 77.5 -91s39.167 -93.333 51.5 -157s18.5 -139.167 18.5 -226.5zM410 474.999c0 130 -10.167 228.667 -30.5 296s-50.5 101 -90.5 101c-41.333 0 -72.166 -34 -92.499 -102
s-30.5 -166.333 -30.5 -295s10.167 -226.667 30.5 -294s51.166 -101 92.499 -101c40 0 70.167 33.667 90.5 101s30.5 165.333 30.5 294zM81 1176c0 21.333 7.33301 39.5 22 54.5s32.667 22.5 54 22.5s39.666 -7.5 54.999 -22.5s23 -33.167 23 -54.5
s-7.66699 -39.333 -23 -54s-33.666 -22 -54.999 -22s-39.333 7.33301 -54 22s-22 32.667 -22 54zM345 1176c0 21.333 7.33301 39.5 22 54.5s32.667 22.5 54 22.5s39.666 -7.5 54.999 -22.5s23 -33.167 23 -54.5s-7.66699 -39.333 -23 -54s-33.666 -22 -54.999 -22
s-39.333 7.33301 -54 22s-22 32.667 -22 54z" />
    <glyph glyph-name="divide" unicode="&#xf7;" horiz-adv-x="936" 
d="M133 631v108h670v-108h-670zM387 932c0 24.667 7.66699 45.167 23 61.5s34.333 24.5 57 24.5c24.667 0 45.167 -8.16699 61.5 -24.5s24.5 -36.833 24.5 -61.5c0 -22.667 -8.16699 -41.667 -24.5 -57s-36.833 -23 -61.5 -23c-22.667 0 -41.667 7.66699 -57 23
s-23 34.333 -23 57zM387 432c0 24.667 7.66699 45.167 23 61.5s34.333 24.5 57 24.5c24.667 0 45.167 -8.16699 61.5 -24.5s24.5 -36.833 24.5 -61.5c0 -22.667 -8.16699 -41.667 -24.5 -57s-36.833 -23 -61.5 -23c-22.667 0 -41.667 7.66699 -57 23s-23 34.333 -23 57z" />
    <glyph glyph-name="oslash" unicode="&#xf8;" horiz-adv-x="575" 
d="M473 838c18.667 -41.333 33.168 -91.999 43.501 -151.999s15.5 -130.333 15.5 -211c0 -87.333 -6.16699 -162.5 -18.5 -225.5s-29.5 -115 -51.5 -156s-47.833 -71.333 -77.5 -91s-61.5 -29.5 -95.5 -29.5c-46.667 0 -89 18 -127 54l-43 -115h-96l77 207
c-18.667 41.333 -32.834 91.166 -42.501 149.499s-14.5 127.166 -14.5 206.499c0 86.667 6.33301 161.834 19 225.501s30.167 116 52.5 157s48.5 71.5 78.5 91.5s62 30 96 30c46 0 87 -17 123 -51l43 112h96zM410.001 475.001c0 33.333 -0.833008 64.668 -2.5 94.001
s-3.83398 56.666 -6.50098 81.999l-192 -504c9.33301 -22.667 20.833 -39.5 34.5 -50.5s28.834 -16.5 45.501 -16.5c40 0 70.167 33.667 90.5 101s30.5 165.333 30.5 294zM166.001 475.003c0 -63.333 1.99805 -119.333 5.99805 -168l193 500
c-19.333 43.333 -44.666 65 -75.999 65c-41.333 0 -72.166 -34 -92.499 -102s-30.5 -166.333 -30.5 -295z" />
    <glyph glyph-name="ugrave" unicode="&#xf9;" horiz-adv-x="637" 
d="M612 0h-206v109c-10 -28 -20.833 -50.833 -32.5 -68.5s-24 -31.5 -37 -41.5s-26.667 -16.833 -41 -20.5s-28.833 -5.5 -43.5 -5.5c-19.333 0 -38 3.66699 -56 11s-34 20 -48 38s-25.167 42.167 -33.5 72.5s-12.5 68.5 -12.5 114.5v631h-82v112h207v-680
c0 -38 1.33301 -69 4 -93s6.5 -42.833 11.5 -56.5s11.167 -23.167 18.5 -28.5s15.333 -8 24 -8c14.667 0 28.667 7.33301 42 22s25.5 33.5 36.5 56.5s20.167 49 27.5 78s12.333 57.5 15 85.5v512h-103v112h227v-839h82v-113zM161 1356l268 -209l-43 -66l-291 176z" />
    <glyph glyph-name="uacute" unicode="&#xfa;" horiz-adv-x="637" 
d="M612 0h-206v109c-10 -28 -20.833 -50.833 -32.5 -68.5s-24 -31.5 -37 -41.5s-26.667 -16.833 -41 -20.5s-28.833 -5.5 -43.5 -5.5c-19.333 0 -38 3.66699 -56 11s-34 20 -48 38s-25.167 42.167 -33.5 72.5s-12.5 68.5 -12.5 114.5v631h-82v112h207v-680
c0 -38 1.33301 -69 4 -93s6.5 -42.833 11.5 -56.5s11.167 -23.167 18.5 -28.5s15.333 -8 24 -8c14.667 0 28.667 7.33301 42 22s25.5 33.5 36.5 56.5s20.167 49 27.5 78s12.333 57.5 15 85.5v512h-103v112h227v-839h82v-113zM513 1257l-291 -176l-43 66l269 209z" />
    <glyph glyph-name="ucircumflex" unicode="&#xfb;" horiz-adv-x="637" 
d="M612 0h-206v109c-10 -28 -20.833 -50.833 -32.5 -68.5s-24 -31.5 -37 -41.5s-26.667 -16.833 -41 -20.5s-28.833 -5.5 -43.5 -5.5c-19.333 0 -38 3.66699 -56 11s-34 20 -48 38s-25.167 42.167 -33.5 72.5s-12.5 68.5 -12.5 114.5v631h-82v112h207v-680
c0 -38 1.33301 -69 4 -93s6.5 -42.833 11.5 -56.5s11.167 -23.167 18.5 -28.5s15.333 -8 24 -8c14.667 0 28.667 7.33301 42 22s25.5 33.5 36.5 56.5s20.167 49 27.5 78s12.333 57.5 15 85.5v512h-103v112h227v-839h82v-113zM501 1081l-197 150l-196 -150l-60 62l256 219
l256 -219z" />
    <glyph glyph-name="udieresis" unicode="&#xfc;" horiz-adv-x="637" 
d="M612 0h-206v109c-10 -28 -20.833 -50.833 -32.5 -68.5s-24 -31.5 -37 -41.5s-26.667 -16.833 -41 -20.5s-28.833 -5.5 -43.5 -5.5c-19.333 0 -38 3.66699 -56 11s-34 20 -48 38s-25.167 42.167 -33.5 72.5s-12.5 68.5 -12.5 114.5v631h-82v112h207v-680
c0 -38 1.33301 -69 4 -93s6.5 -42.833 11.5 -56.5s11.167 -23.167 18.5 -28.5s15.333 -8 24 -8c14.667 0 28.667 7.33301 42 22s25.5 33.5 36.5 56.5s20.167 49 27.5 78s12.333 57.5 15 85.5v512h-103v112h227v-839h82v-113zM95 1176c0 21.333 7.33301 39.5 22 54.5
s32.667 22.5 54 22.5s39.666 -7.5 54.999 -22.5s23 -33.167 23 -54.5s-7.66699 -39.333 -23 -54s-33.666 -22 -54.999 -22s-39.333 7.33301 -54 22s-22 32.667 -22 54zM359 1176c0 21.333 7.33301 39.5 22 54.5s32.667 22.5 54 22.5s39.666 -7.5 54.999 -22.5
s23 -33.167 23 -54.5s-7.66699 -39.333 -23 -54s-33.666 -22 -54.999 -22s-39.333 7.33301 -54 22s-22 32.667 -22 54z" />
    <glyph glyph-name="yacute" unicode="&#xfd;" horiz-adv-x="586" 
d="M96 -414c-19.333 0 -36.8369 2.33203 -52.5039 6.99902s-29.667 10.334 -42 17.001s-23.5 14 -33.5 22s-18.333 15.333 -25 22l55 96c12.667 -11.333 25.834 -22.333 39.501 -33s29.834 -16 48.501 -16c20.667 0 38.167 6.16699 52.5 18.5s27 31.5 38 57.5s21 59 30 99
s18.833 87.333 29.5 142l-170 822h-66v112h258v-112h-65l102 -594l98 594h-65v112h258v-112h-66l-158 -770c-12.667 -62 -25.667 -122.167 -39 -180.5s-29.666 -110 -48.999 -155s-43.166 -81 -71.499 -108s-63.833 -40.5 -106.5 -40.5zM502.996 1257l-291 -176l-43 66
l269 209z" />
    <glyph glyph-name="thorn" unicode="&#xfe;" horiz-adv-x="590" 
d="M211 188c11.333 -30.667 24.833 -56.333 40.5 -77s34.167 -31 55.5 -31c32 0 59.167 33.833 81.5 101.5s33.5 165.5 33.5 293.5c0 130 -8.33301 228.667 -25 296s-42.667 101 -78 101c-11.333 0 -22.666 -5.5 -33.999 -16.5s-21.833 -25.333 -31.5 -43
s-18.334 -37.5 -26.001 -59.5s-13.167 -44.333 -16.5 -67v-498zM211 877.001c19.333 38 39.665 64.499 60.998 79.499s46 22.5 74 22.5c22.667 0 45.834 -8.5 69.501 -25.5s45.167 -45.167 64.5 -84.5s35 -91.166 47 -155.499s18 -143.833 18 -238.5
c0 -87.333 -5.5 -162.5 -16.5 -225.5s-26 -115 -45 -156s-41 -71.333 -66 -91s-51.5 -29.5 -79.5 -29.5c-22.667 0 -44.667 5.5 -66 16.5s-41.666 31.5 -60.999 61.5v-332h102v-112h-309v112h82v1543h-82v112h207v-497z" />
    <glyph glyph-name="ydieresis" unicode="&#xff;" horiz-adv-x="586" 
d="M96 -414c-19.333 0 -36.8369 2.33203 -52.5039 6.99902s-29.667 10.334 -42 17.001s-23.5 14 -33.5 22s-18.333 15.333 -25 22l55 96c12.667 -11.333 25.834 -22.333 39.501 -33s29.834 -16 48.501 -16c20.667 0 38.167 6.16699 52.5 18.5s27 31.5 38 57.5s21 59 30 99
s18.833 87.333 29.5 142l-170 822h-66v112h258v-112h-65l102 -594l98 594h-65v112h258v-112h-66l-158 -770c-12.667 -62 -25.667 -122.167 -39 -180.5s-29.666 -110 -48.999 -155s-43.166 -81 -71.499 -108s-63.833 -40.5 -106.5 -40.5zM84.9961 1176
c0 21.333 7.33301 39.5 22 54.5s32.667 22.5 54 22.5s39.666 -7.5 54.999 -22.5s23 -33.167 23 -54.5s-7.66699 -39.333 -23 -54s-33.666 -22 -54.999 -22s-39.333 7.33301 -54 22s-22 32.667 -22 54zM348.996 1176c0 21.333 7.33301 39.5 22 54.5s32.667 22.5 54 22.5
s39.666 -7.5 54.999 -22.5s23 -33.167 23 -54.5s-7.66699 -39.333 -23 -54s-33.666 -22 -54.999 -22s-39.333 7.33301 -54 22s-22 32.667 -22 54z" />
    <glyph glyph-name="Amacron" unicode="&#x100;" horiz-adv-x="776" 
d="M487 467h-202l-49 -354h108v-113h-324v113h95l184 1149h-135v112h293l207 -1261h92v-113h-324v113h109zM299 573h172l-88 598zM176 1507v105h385v-105h-385z" />
    <glyph glyph-name="amacron" unicode="&#x101;" horiz-adv-x="555" 
d="M328 500c-35.333 -3.33301 -63.835 -10.498 -85.502 -21.498s-38.5 -26.333 -50.5 -46s-20 -43.834 -24 -72.501s-6 -62 -6 -100c0 -58.667 6 -103.334 18 -134.001s28.333 -46 49 -46c8.66699 0 17.834 3.33301 27.501 10s19 15.667 28 27s17.333 24.833 25 40.5
s13.834 32.167 18.501 49.5v293zM73.998 743.002c4 48 11.999 87.165 23.999 117.498s26.5 54.333 43.5 72s36.167 29.834 57.5 36.501s43.666 10 66.999 10c26 0 50.333 -4.16699 73 -12.5s42.5 -23.333 59.5 -45s30.333 -51.5 40 -89.5s14.5 -86.667 14.5 -146v-573h82
v-113h-207v66c-19.333 -31.333 -39 -54.666 -59 -69.999s-46.333 -23 -79 -23c-20 0 -39 6 -57 18s-34 29.833 -48 53.5s-25.167 53 -33.5 88s-12.5 75.5 -12.5 121.5c0 65.333 7.33301 118.833 22 160.5s35 75 61 100s56.5 43.333 91.5 55s73.167 20.5 114.5 26.5v92
c0 40 -1.83301 72 -5.5 96s-8.5 42.5 -14.5 55.5s-12.833 21.667 -20.5 26s-15.5 6.5 -23.5 6.5c-21.333 0 -37.666 -11.833 -48.999 -35.5s-18.666 -61.5 -21.999 -113.5zM74.9971 1112v105h385v-105h-385z" />
    <glyph glyph-name="Abreve" unicode="&#x102;" horiz-adv-x="776" 
d="M487 467h-202l-49 -354h108v-113h-324v113h95l184 1149h-135v112h293l207 -1261h92v-113h-324v113h109zM299 573h172l-88 598zM591 1706c-4 -24.667 -10.333 -49.834 -19 -75.501s-21.5 -49 -38.5 -70s-38.833 -38.167 -65.5 -51.5s-60 -20 -100 -20
s-73.333 6.66699 -100 20s-48.167 30.5 -64.5 51.5s-28.833 44.333 -37.5 70s-15 50.834 -19 75.501h102c2 -12 5.33301 -25 10 -39s11.5 -27 20.5 -39s20.667 -22.167 35 -30.5s32.166 -12.5 53.499 -12.5c22.667 0 41.334 4.16699 56.001 12.5s26.667 18.5 36 30.5
s16.333 25 21 39s8 27 10 39h100v0z" />
    <glyph glyph-name="abreve" unicode="&#x103;" horiz-adv-x="555" 
d="M328 500c-35.333 -3.33301 -63.835 -10.498 -85.502 -21.498s-38.5 -26.333 -50.5 -46s-20 -43.834 -24 -72.501s-6 -62 -6 -100c0 -58.667 6 -103.334 18 -134.001s28.333 -46 49 -46c8.66699 0 17.834 3.33301 27.501 10s19 15.667 28 27s17.333 24.833 25 40.5
s13.834 32.167 18.501 49.5v293zM73.998 743.002c4 48 11.999 87.165 23.999 117.498s26.5 54.333 43.5 72s36.167 29.834 57.5 36.501s43.666 10 66.999 10c26 0 50.333 -4.16699 73 -12.5s42.5 -23.333 59.5 -45s30.333 -51.5 40 -89.5s14.5 -86.667 14.5 -146v-573h82
v-113h-207v66c-19.333 -31.333 -39 -54.666 -59 -69.999s-46.333 -23 -79 -23c-20 0 -39 6 -57 18s-34 29.833 -48 53.5s-25.167 53 -33.5 88s-12.5 75.5 -12.5 121.5c0 65.333 7.33301 118.833 22 160.5s35 75 61 100s56.5 43.333 91.5 55s73.167 20.5 114.5 26.5v92
c0 40 -1.83301 72 -5.5 96s-8.5 42.5 -14.5 55.5s-12.833 21.667 -20.5 26s-15.5 6.5 -23.5 6.5c-21.333 0 -37.666 -11.833 -48.999 -35.5s-18.666 -61.5 -21.999 -113.5zM489.997 1311c-4 -24.667 -10.333 -49.834 -19 -75.501s-21.5 -49 -38.5 -70
s-38.833 -38.167 -65.5 -51.5s-60 -20 -100 -20s-73.333 6.66699 -100 20s-48.167 30.5 -64.5 51.5s-28.833 44.333 -37.5 70s-15 50.834 -19 75.501h102c2 -12 5.33301 -25 10 -39s11.5 -27 20.5 -39s20.667 -22.167 35 -30.5s32.166 -12.5 53.499 -12.5
c22.667 0 41.334 4.16699 56.001 12.5s26.667 18.5 36 30.5s16.333 25 21 39s8 27 10 39h100v0z" />
    <glyph glyph-name="Aogonek" unicode="&#x104;" horiz-adv-x="776" 
d="M487 467h-202.001l-49 -354h108v-113h-324v113h95l184 1149h-135v112h293l207 -1261h92v-113h-86c-23.333 -28.667 -43.166 -59 -59.499 -91s-24.5 -68.667 -24.5 -110c0 -21.333 5 -37.5 15 -48.5s23.333 -16.5 40 -16.5c12.667 0 23.667 2.66699 33 8s18 12 26 20
l33 -81c-17.333 -10.667 -36.333 -19.5 -57 -26.5s-42.667 -10.5 -66 -10.5c-43.333 0 -76.333 11.5 -99 34.5s-34 57.167 -34 102.5c0 18 2.5 36.5 7.5 55.5s11.667 38 20 57s18.333 37.5 30 55.5s24.5 35 38.5 51h-141v113h109zM298.999 573h172l-88 598z" />
    <glyph glyph-name="aogonek" unicode="&#x105;" horiz-adv-x="555" 
d="M74 743c4 48 11.9971 87.1641 23.9971 117.497s26.5 54.333 43.5 72s36.167 29.834 57.5 36.501s43.666 10 66.999 10c26 0 50.333 -4.16699 73 -12.5s42.5 -23.333 59.5 -45s30.333 -51.5 40 -89.5s14.5 -86.667 14.5 -146v-573h82v-113
c-28 -18.667 -51.167 -36.667 -69.5 -54s-33 -34.166 -44 -50.499s-18.833 -32.5 -23.5 -48.5s-7 -32 -7 -48c0 -21.333 5.16699 -37.5 15.5 -48.5s23.5 -16.5 39.5 -16.5c12.667 0 23.667 2.66699 33 8s18.333 12 27 20l33 -81c-17.333 -10.667 -36.333 -19.167 -57 -25.5
s-42.667 -9.5 -66 -9.5c-16.667 0 -33 2.66699 -49 8s-30.167 13.5 -42.5 24.5s-22.333 25.167 -30 42.5s-11.5 38 -11.5 62c0 18 3.16699 36.833 9.5 56.5s15.333 39 27 58s25.834 37.333 42.501 55s35.334 33.5 56.001 47.5h-90v66
c-19.333 -31.333 -39 -54.666 -59 -69.999s-46.333 -23 -79 -23c-20 0 -39 6 -57 18s-34 29.833 -48 53.5s-25.167 53 -33.5 88s-12.5 75.5 -12.5 121.5c0 65.333 7.33301 118.833 22 160.5s35 75 61 100s56.5 43.333 91.5 55s73.167 20.5 114.5 26.5v92
c0 40 -1.83301 72 -5.5 96s-8.5 42.5 -14.5 55.5s-12.833 21.667 -20.5 26s-15.5 6.5 -23.5 6.5c-21.333 0 -37.666 -11.833 -48.999 -35.5s-18.666 -61.5 -21.999 -113.5zM327.997 499.997c-35.333 -3.33301 -63.835 -10.498 -85.502 -21.498s-38.5 -26.333 -50.5 -46
s-20 -43.834 -24 -72.501s-6 -62 -6 -100c0 -58.667 6 -103.334 18 -134.001s28.333 -46 49 -46c8.66699 0 17.834 3.33301 27.501 10s19 15.667 28 27s17.333 24.833 25 40.5s13.834 32.167 18.501 49.5v293z" />
    <glyph glyph-name="Cacute" unicode="&#x106;" horiz-adv-x="745" 
d="M410 -27c-52.667 0 -100.829 14.1689 -144.496 42.502s-81 71.666 -112 129.999s-55.167 132.333 -72.5 222s-26 195.834 -26 318.501c0 118 9.33301 221.667 28 311s43.667 163.666 75 222.999s67.666 104 108.999 134s84.666 45 129.999 45
c43.333 0 79.166 -9.5 107.499 -28.5s52.833 -42.5 73.5 -70.5v74h108v-473h-108v137c0 40 -4.5 75.333 -13.5 106s-21.167 56.5 -36.5 77.5s-33.166 37 -53.499 48s-41.833 16.5 -64.5 16.5c-38 0 -70.667 -14 -98 -42s-49.833 -68 -67.5 -120s-30.667 -115 -39 -189
s-12.5 -157 -12.5 -249s3.5 -174.833 10.5 -248.5s19.333 -136.334 37 -188.001s41 -91.5 70 -119.5s65.5 -42 109.5 -42c30 0 55.667 8.66699 77 26s39.666 39.166 54.999 65.499s28 54.833 38 85.5s18.667 59.667 26 87h115c-12 -59.333 -27.833 -112.5 -47.5 -159.5
s-42.834 -86.667 -69.501 -119s-57 -57.166 -91 -74.499s-71.667 -26 -113 -26zM606.005 1652l-291 -176l-43 66l269 209z" />
    <glyph glyph-name="cacute" unicode="&#x107;" horiz-adv-x="543" 
d="M387 604l-0.000976562 71.998c0 40.667 -3.16699 73.834 -9.5 99.501s-14.166 45.667 -23.499 60s-19.5 24 -30.5 29s-21.167 7.5 -30.5 7.5c-20.667 0 -38.5 -9.16699 -53.5 -27.5s-27.333 -44.666 -37 -78.999s-16.834 -75.833 -21.501 -124.5s-7 -103.334 -7 -164.001
c0 -61.333 2 -116.333 6 -165s10.833 -90 20.5 -124s22 -60.167 37 -78.5s33.5 -27.5 55.5 -27.5c19.333 0 35.666 6.16699 48.999 18.5s24.333 27.666 33 45.999s15.667 38 21 59s10 40.5 14 58.5h98c-5.33301 -41.333 -13.833 -79.833 -25.5 -115.5
s-26.5 -66.5 -44.5 -92.5s-39.167 -46.333 -63.5 -61s-52.166 -22 -83.499 -22c-77.333 0 -138 42.667 -182 128s-66 210 -66 374c0 81.333 6.33301 153.333 19 216s29.834 115.167 51.501 157.5s46.667 74.333 75 96s58.5 32.5 90.5 32.5c14 0 26.667 -2.33301 38 -7
s21.5 -10.667 30.5 -18s16.833 -15.666 23.5 -24.999s12 -18.666 16 -27.999v53h105v-348h-105zM500.999 1257l-291 -176l-43 66l269 209z" />
    <glyph glyph-name="Ccircumflex" unicode="&#x108;" horiz-adv-x="745" 
d="M410 -27c-52.667 0 -100.829 14.1689 -144.496 42.502s-81 71.666 -112 129.999s-55.167 132.333 -72.5 222s-26 195.834 -26 318.501c0 118 9.33301 221.667 28 311s43.667 163.666 75 222.999s67.666 104 108.999 134s84.666 45 129.999 45
c43.333 0 79.166 -9.5 107.499 -28.5s52.833 -42.5 73.5 -70.5v74h108v-473h-108v137c0 40 -4.5 75.333 -13.5 106s-21.167 56.5 -36.5 77.5s-33.166 37 -53.499 48s-41.833 16.5 -64.5 16.5c-38 0 -70.667 -14 -98 -42s-49.833 -68 -67.5 -120s-30.667 -115 -39 -189
s-12.5 -157 -12.5 -249s3.5 -174.833 10.5 -248.5s19.333 -136.334 37 -188.001s41 -91.5 70 -119.5s65.5 -42 109.5 -42c30 0 55.667 8.66699 77 26s39.666 39.166 54.999 65.499s28 54.833 38 85.5s18.667 59.667 26 87h115c-12 -59.333 -27.833 -112.5 -47.5 -159.5
s-42.834 -86.667 -69.501 -119s-57 -57.166 -91 -74.499s-71.667 -26 -113 -26zM608.005 1476l-197 150l-196 -150l-60 62l256 219l256 -219z" />
    <glyph glyph-name="ccircumflex" unicode="&#x109;" horiz-adv-x="543" 
d="M387 604l-0.000976562 71.998c0 40.667 -3.16699 73.834 -9.5 99.501s-14.166 45.667 -23.499 60s-19.5 24 -30.5 29s-21.167 7.5 -30.5 7.5c-20.667 0 -38.5 -9.16699 -53.5 -27.5s-27.333 -44.666 -37 -78.999s-16.834 -75.833 -21.501 -124.5s-7 -103.334 -7 -164.001
c0 -61.333 2 -116.333 6 -165s10.833 -90 20.5 -124s22 -60.167 37 -78.5s33.5 -27.5 55.5 -27.5c19.333 0 35.666 6.16699 48.999 18.5s24.333 27.666 33 45.999s15.667 38 21 59s10 40.5 14 58.5h98c-5.33301 -41.333 -13.833 -79.833 -25.5 -115.5
s-26.5 -66.5 -44.5 -92.5s-39.167 -46.333 -63.5 -61s-52.166 -22 -83.499 -22c-77.333 0 -138 42.667 -182 128s-66 210 -66 374c0 81.333 6.33301 153.333 19 216s29.834 115.167 51.501 157.5s46.667 74.333 75 96s58.5 32.5 90.5 32.5c14 0 26.667 -2.33301 38 -7
s21.5 -10.667 30.5 -18s16.833 -15.666 23.5 -24.999s12 -18.666 16 -27.999v53h105v-348h-105zM488.999 1081l-197 150l-196 -150l-60 62l256 219l256 -219z" />
    <glyph glyph-name="Cdotaccent" unicode="&#x10a;" horiz-adv-x="745" 
d="M410 -27c-52.667 0 -100.829 14.1689 -144.496 42.502s-81 71.666 -112 129.999s-55.167 132.333 -72.5 222s-26 195.834 -26 318.501c0 118 9.33301 221.667 28 311s43.667 163.666 75 222.999s67.666 104 108.999 134s84.666 45 129.999 45
c43.333 0 79.166 -9.5 107.499 -28.5s52.833 -42.5 73.5 -70.5v74h108v-473h-108v137c0 40 -4.5 75.333 -13.5 106s-21.167 56.5 -36.5 77.5s-33.166 37 -53.499 48s-41.833 16.5 -64.5 16.5c-38 0 -70.667 -14 -98 -42s-49.833 -68 -67.5 -120s-30.667 -115 -39 -189
s-12.5 -157 -12.5 -249s3.5 -174.833 10.5 -248.5s19.333 -136.334 37 -188.001s41 -91.5 70 -119.5s65.5 -42 109.5 -42c30 0 55.667 8.66699 77 26s39.666 39.166 54.999 65.499s28 54.833 38 85.5s18.667 59.667 26 87h115c-12 -59.333 -27.833 -112.5 -47.5 -159.5
s-42.834 -86.667 -69.501 -119s-57 -57.166 -91 -74.499s-71.667 -26 -113 -26zM334.005 1575c0 23.333 7.66699 43.166 23 59.499s34.333 24.5 57 24.5c23.333 0 43.166 -8.16699 59.499 -24.5s24.5 -36.166 24.5 -59.499c0 -22.667 -8.16699 -41.667 -24.5 -57
s-36.166 -23 -59.499 -23c-22.667 0 -41.667 7.66699 -57 23s-23 34.333 -23 57z" />
    <glyph glyph-name="cdotaccent" unicode="&#x10b;" horiz-adv-x="543" 
d="M387 604l-0.000976562 71.998c0 40.667 -3.16699 73.834 -9.5 99.501s-14.166 45.667 -23.499 60s-19.5 24 -30.5 29s-21.167 7.5 -30.5 7.5c-20.667 0 -38.5 -9.16699 -53.5 -27.5s-27.333 -44.666 -37 -78.999s-16.834 -75.833 -21.501 -124.5s-7 -103.334 -7 -164.001
c0 -61.333 2 -116.333 6 -165s10.833 -90 20.5 -124s22 -60.167 37 -78.5s33.5 -27.5 55.5 -27.5c19.333 0 35.666 6.16699 48.999 18.5s24.333 27.666 33 45.999s15.667 38 21 59s10 40.5 14 58.5h98c-5.33301 -41.333 -13.833 -79.833 -25.5 -115.5
s-26.5 -66.5 -44.5 -92.5s-39.167 -46.333 -63.5 -61s-52.166 -22 -83.499 -22c-77.333 0 -138 42.667 -182 128s-66 210 -66 374c0 81.333 6.33301 153.333 19 216s29.834 115.167 51.501 157.5s46.667 74.333 75 96s58.5 32.5 90.5 32.5c14 0 26.667 -2.33301 38 -7
s21.5 -10.667 30.5 -18s16.833 -15.666 23.5 -24.999s12 -18.666 16 -27.999v53h105v-348h-105zM211.999 1180c0 23.333 7.66699 43.166 23 59.499s34.333 24.5 57 24.5c23.333 0 43.166 -8.16699 59.499 -24.5s24.5 -36.166 24.5 -59.499
c0 -22.667 -8.16699 -41.667 -24.5 -57s-36.166 -23 -59.499 -23c-22.667 0 -41.667 7.66699 -57 23s-23 34.333 -23 57z" />
    <glyph glyph-name="Ccaron" unicode="&#x10c;" horiz-adv-x="745" 
d="M410 -27c-52.667 0 -100.829 14.1689 -144.496 42.502s-81 71.666 -112 129.999s-55.167 132.333 -72.5 222s-26 195.834 -26 318.501c0 118 9.33301 221.667 28 311s43.667 163.666 75 222.999s67.666 104 108.999 134s84.666 45 129.999 45
c43.333 0 79.166 -9.5 107.499 -28.5s52.833 -42.5 73.5 -70.5v74h108v-473h-108v137c0 40 -4.5 75.333 -13.5 106s-21.167 56.5 -36.5 77.5s-33.166 37 -53.499 48s-41.833 16.5 -64.5 16.5c-38 0 -70.667 -14 -98 -42s-49.833 -68 -67.5 -120s-30.667 -115 -39 -189
s-12.5 -157 -12.5 -249s3.5 -174.833 10.5 -248.5s19.333 -136.334 37 -188.001s41 -91.5 70 -119.5s65.5 -42 109.5 -42c30 0 55.667 8.66699 77 26s39.666 39.166 54.999 65.499s28 54.833 38 85.5s18.667 59.667 26 87h115c-12 -59.333 -27.833 -112.5 -47.5 -159.5
s-42.834 -86.667 -69.501 -119s-57 -57.166 -91 -74.499s-71.667 -26 -113 -26zM674.005 1695l-256 -219l-256 219l60 62l196 -150l197 150z" />
    <glyph glyph-name="ccaron" unicode="&#x10d;" horiz-adv-x="543" 
d="M387 604l-0.000976562 71.998c0 40.667 -3.16699 73.834 -9.5 99.501s-14.166 45.667 -23.499 60s-19.5 24 -30.5 29s-21.167 7.5 -30.5 7.5c-20.667 0 -38.5 -9.16699 -53.5 -27.5s-27.333 -44.666 -37 -78.999s-16.834 -75.833 -21.501 -124.5s-7 -103.334 -7 -164.001
c0 -61.333 2 -116.333 6 -165s10.833 -90 20.5 -124s22 -60.167 37 -78.5s33.5 -27.5 55.5 -27.5c19.333 0 35.666 6.16699 48.999 18.5s24.333 27.666 33 45.999s15.667 38 21 59s10 40.5 14 58.5h98c-5.33301 -41.333 -13.833 -79.833 -25.5 -115.5
s-26.5 -66.5 -44.5 -92.5s-39.167 -46.333 -63.5 -61s-52.166 -22 -83.499 -22c-77.333 0 -138 42.667 -182 128s-66 210 -66 374c0 81.333 6.33301 153.333 19 216s29.834 115.167 51.501 157.5s46.667 74.333 75 96s58.5 32.5 90.5 32.5c14 0 26.667 -2.33301 38 -7
s21.5 -10.667 30.5 -18s16.833 -15.666 23.5 -24.999s12 -18.666 16 -27.999v53h105v-348h-105zM547.999 1300l-256 -219l-256 219l60 62l196 -150l197 150z" />
    <glyph glyph-name="Dcaron" unicode="&#x10e;" horiz-adv-x="803" 
d="M25 1374h385c50 0 95.667 -11 137 -33s77 -59.5 107 -112.5s53.167 -123.5 69.5 -211.5s24.5 -197.667 24.5 -329c0 -132 -8.16699 -242.167 -24.5 -330.5s-39.333 -159 -69 -212s-65.167 -90.5 -106.5 -112.5s-87.333 -33 -138 -33h-385v113h122v1149h-122v112zM618 688
c0 112 -4.5 204.999 -13.5 278.999s-22.333 132.833 -40 176.5s-39.167 74.334 -64.5 92.001s-54 26.5 -86 26.5h-142v-1149h142c32 0 60.667 9 86 27s46.833 48.833 64.5 92.5s31 102.5 40 176.5s13.5 167 13.5 279zM612 1695l-256 -219l-256 219l60 62l196 -150l197 150z
" />
    <glyph glyph-name="dcaron" unicode="&#x10f;" horiz-adv-x="764" 
d="M584 0h-207v63c-19.333 -28.667 -39.333 -50.834 -60 -66.501s-45.667 -23.5 -75 -23.5c-27.333 0 -53 8 -77 24s-45 43.5 -63 82.5s-32.333 91.333 -43 157s-16 147.834 -16 246.501c0 84 5.33301 157 16 219s25.167 113.5 43.5 154.5s40 71.667 65 92
s51.833 30.5 80.5 30.5c26.667 0 50.5 -7.33301 71.5 -22s40.167 -40 57.5 -76v381h-88v112h213v-1261h82v-113zM272 80c22.667 0 43.002 12.5 61.002 37.5s32.667 59.5 44 103.5v467c-4 20 -9.5 40.833 -16.5 62.5s-14.833 41.5 -23.5 59.5s-18.334 32.833 -29.001 44.5
s-22 17.5 -34 17.5c-15.333 0 -29.5 -8.66699 -42.5 -26s-24.333 -42.5 -34 -75.5s-17.334 -73.667 -23.001 -122s-8.5 -103.5 -8.5 -165.5c0 -130 9 -229.667 27 -299s44.333 -104 79 -104zM661.002 1101h-100l39 273h143z" />
    <glyph glyph-name="Dcroat" unicode="&#x110;" horiz-adv-x="803" 
d="M25 1374h385c50 0 95.667 -11 137 -33s77 -59.5 107 -112.5s53.167 -123.5 69.5 -211.5s24.5 -197.667 24.5 -329c0 -132 -8.16699 -242.167 -24.5 -330.5s-39.333 -159 -69 -212s-65.167 -90.5 -106.5 -112.5s-87.333 -33 -138 -33h-385v113h122v530h-122v109h122v510
h-122v112zM272 643v-530.001h142c32 0 60.667 9 86 27s46.833 48.833 64.5 92.5s31 102.5 40 176.5s13.5 167 13.5 279s-4.5 205 -13.5 279s-22.333 132.833 -40 176.5s-39.167 74.334 -64.5 92.001s-54 26.5 -86 26.5h-142v-510h179v-109h-179z" />
    <glyph glyph-name="dcroat" unicode="&#x111;" horiz-adv-x="602" 
d="M584 0h-207v63c-19.333 -28.667 -39.333 -50.834 -60 -66.501s-45.667 -23.5 -75 -23.5c-27.333 0 -53 8 -77 24s-45 43.5 -63 82.5s-32.333 91.333 -43 157s-16 147.834 -16 246.501c0 84 5.33301 157 16 219s25.167 113.5 43.5 154.5s40 71.667 65 92
s51.833 30.5 80.5 30.5c26.667 0 50.5 -7.33301 71.5 -22s40.167 -40 57.5 -76v186h-154v109h154v86h-88v112h213v-198h86v-109h-86v-954h82v-113zM272 80c22.667 0 43.002 12.5 61.002 37.5s32.667 59.5 44 103.5v467c-4 20 -9.5 40.833 -16.5 62.5
s-14.833 41.5 -23.5 59.5s-18.334 32.833 -29.001 44.5s-22 17.5 -34 17.5c-15.333 0 -29.5 -8.66699 -42.5 -26s-24.333 -42.5 -34 -75.5s-17.334 -73.667 -23.001 -122s-8.5 -103.5 -8.5 -165.5c0 -130 9 -229.667 27 -299s44.333 -104 79 -104z" />
    <glyph glyph-name="Emacron" unicode="&#x112;" horiz-adv-x="702" 
d="M520 963v299h-237v-480h221v-112h-221v-557h252v319h108v-432h-618v113h122v1149h-122v112h604v-411h-109zM146 1507v105h385v-105h-385z" />
    <glyph glyph-name="emacron" unicode="&#x113;" horiz-adv-x="535" 
d="M362 520c-0.666992 44.667 -2.83203 87.667 -6.49902 129s-9.16699 77.833 -16.5 109.5s-16.833 56.834 -28.5 75.501s-25.834 28 -42.501 28c-15.333 0 -28.666 -9.33301 -39.999 -28s-21 -43.834 -29 -75.501s-14.333 -68.167 -19 -109.5
s-7.33398 -84.333 -8.00098 -129h190zM285.002 82c19.333 0 35.3311 6.16797 47.998 18.501s23 27.666 31 45.999s14.333 38 19 59s8.66699 40.5 12 58.5h99c-5.33301 -41.333 -13.666 -79.833 -24.999 -115.5s-26 -66.5 -44 -92.5s-39.167 -46.333 -63.5 -61
s-51.833 -22 -82.5 -22c-36 0 -68.5 10.667 -97.5 32s-53.833 53 -74.5 95s-36.5 94 -47.5 156s-16.5 133.667 -16.5 215c0 76.667 5.5 146 16.5 208s26.5 114.667 46.5 158s43.833 76.833 71.5 100.5s58.5 35.5 92.5 35.5c70.667 0 125.334 -45.667 164.001 -137
s58 -224 58 -398v-22h-320c2 -109.333 11.333 -192.333 28 -249s45 -85 85 -85zM79 1112v105h385v-105h-385z" />
    <glyph glyph-name="Ebreve" unicode="&#x114;" horiz-adv-x="702" 
d="M520 963v299h-237v-480h221v-112h-221v-557h252v319h108v-432h-618v113h122v1149h-122v112h604v-411h-109zM561 1706c-4 -24.667 -10.333 -49.834 -19 -75.501s-21.5 -49 -38.5 -70s-38.833 -38.167 -65.5 -51.5s-60 -20 -100 -20s-73.333 6.66699 -100 20
s-48.167 30.5 -64.5 51.5s-28.833 44.333 -37.5 70s-15 50.834 -19 75.501h102c2 -12 5.33301 -25 10 -39s11.5 -27 20.5 -39s20.667 -22.167 35 -30.5s32.166 -12.5 53.499 -12.5c22.667 0 41.334 4.16699 56.001 12.5s26.667 18.5 36 30.5s16.333 25 21 39s8 27 10 39h100
v0z" />
    <glyph glyph-name="ebreve" unicode="&#x115;" horiz-adv-x="535" 
d="M362 520c-0.666992 44.667 -2.83203 87.667 -6.49902 129s-9.16699 77.833 -16.5 109.5s-16.833 56.834 -28.5 75.501s-25.834 28 -42.501 28c-15.333 0 -28.666 -9.33301 -39.999 -28s-21 -43.834 -29 -75.501s-14.333 -68.167 -19 -109.5
s-7.33398 -84.333 -8.00098 -129h190zM285.002 82c19.333 0 35.3311 6.16797 47.998 18.501s23 27.666 31 45.999s14.333 38 19 59s8.66699 40.5 12 58.5h99c-5.33301 -41.333 -13.666 -79.833 -24.999 -115.5s-26 -66.5 -44 -92.5s-39.167 -46.333 -63.5 -61
s-51.833 -22 -82.5 -22c-36 0 -68.5 10.667 -97.5 32s-53.833 53 -74.5 95s-36.5 94 -47.5 156s-16.5 133.667 -16.5 215c0 76.667 5.5 146 16.5 208s26.5 114.667 46.5 158s43.833 76.833 71.5 100.5s58.5 35.5 92.5 35.5c70.667 0 125.334 -45.667 164.001 -137
s58 -224 58 -398v-22h-320c2 -109.333 11.333 -192.333 28 -249s45 -85 85 -85zM494 1311c-4 -24.667 -10.333 -49.834 -19 -75.501s-21.5 -49 -38.5 -70s-38.833 -38.167 -65.5 -51.5s-60 -20 -100 -20s-73.333 6.66699 -100 20s-48.167 30.5 -64.5 51.5
s-28.833 44.333 -37.5 70s-15 50.834 -19 75.501h102c2 -12 5.33301 -25 10 -39s11.5 -27 20.5 -39s20.667 -22.167 35 -30.5s32.166 -12.5 53.499 -12.5c22.667 0 41.334 4.16699 56.001 12.5s26.667 18.5 36 30.5s16.333 25 21 39s8 27 10 39h100v0z" />
    <glyph glyph-name="Edotaccent" unicode="&#x116;" horiz-adv-x="702" 
d="M520 963v299h-237v-480h221v-112h-221v-557h252v319h108v-432h-618v113h122v1149h-122v112h604v-411h-109zM258 1575c0 23.333 7.66699 43.166 23 59.499s34.333 24.5 57 24.5c23.333 0 43.166 -8.16699 59.499 -24.5s24.5 -36.166 24.5 -59.499
c0 -22.667 -8.16699 -41.667 -24.5 -57s-36.166 -23 -59.499 -23c-22.667 0 -41.667 7.66699 -57 23s-23 34.333 -23 57z" />
    <glyph glyph-name="edotaccent" unicode="&#x117;" horiz-adv-x="535" 
d="M362 520c-0.666992 44.667 -2.83203 87.667 -6.49902 129s-9.16699 77.833 -16.5 109.5s-16.833 56.834 -28.5 75.501s-25.834 28 -42.501 28c-15.333 0 -28.666 -9.33301 -39.999 -28s-21 -43.834 -29 -75.501s-14.333 -68.167 -19 -109.5
s-7.33398 -84.333 -8.00098 -129h190zM285.002 82c19.333 0 35.3311 6.16797 47.998 18.501s23 27.666 31 45.999s14.333 38 19 59s8.66699 40.5 12 58.5h99c-5.33301 -41.333 -13.666 -79.833 -24.999 -115.5s-26 -66.5 -44 -92.5s-39.167 -46.333 -63.5 -61
s-51.833 -22 -82.5 -22c-36 0 -68.5 10.667 -97.5 32s-53.833 53 -74.5 95s-36.5 94 -47.5 156s-16.5 133.667 -16.5 215c0 76.667 5.5 146 16.5 208s26.5 114.667 46.5 158s43.833 76.833 71.5 100.5s58.5 35.5 92.5 35.5c70.667 0 125.334 -45.667 164.001 -137
s58 -224 58 -398v-22h-320c2 -109.333 11.333 -192.333 28 -249s45 -85 85 -85zM191 1180c0 23.333 7.66699 43.166 23 59.499s34.333 24.5 57 24.5c23.333 0 43.166 -8.16699 59.499 -24.5s24.5 -36.166 24.5 -59.499c0 -22.667 -8.16699 -41.667 -24.5 -57
s-36.166 -23 -59.499 -23c-22.667 0 -41.667 7.66699 -57 23s-23 34.333 -23 57z" />
    <glyph glyph-name="Eogonek" unicode="&#x118;" horiz-adv-x="702" 
d="M520 963l-0.00390625 299h-237v-480h221v-112h-221v-557h252v319h108v-432c-51.333 -28 -88.666 -58.167 -111.999 -90.5s-35 -69.166 -35 -110.499c0 -21.333 5 -37.5 15 -48.5s23.333 -16.5 40 -16.5c12 0 22.833 2.66699 32.5 8s18.5 12 26.5 20l33 -81
c-17.333 -11.333 -36.666 -20.333 -57.999 -27s-42.333 -10 -63 -10c-46 0 -80 12.5 -102 37.5s-33 58.167 -33 99.5c0 20.667 3.33301 41.5 10 62.5s15.834 41.167 27.501 60.5s25.334 37.166 41.001 53.499s32.5 30.5 50.5 42.5h-491v113h122v1149h-122v112h604v-411h-109
z" />
    <glyph glyph-name="eogonek" unicode="&#x119;" horiz-adv-x="535" 
d="M285 82c19.333 0 35.332 6.16602 47.999 18.499s23 27.666 31 45.999s14.333 38 19 59s8.66699 40.5 12 58.5h99c-4 -26.667 -8.5 -51.167 -13.5 -73.5s-11.333 -43.166 -19 -62.499s-16.667 -37.666 -27 -54.999s-22.833 -34 -37.5 -50c-20.667 -24 -37 -52 -49 -84
s-18 -65 -18 -99c0 -21.333 5 -37.5 15 -48.5s23.333 -16.5 40 -16.5c12.667 0 23.667 2.66699 33 8s18 12 26 20l33 -82c-17.333 -10 -36.333 -18.5 -57 -25.5s-42.667 -10.5 -66 -10.5c-43.333 0 -76.333 12.333 -99 37s-34 58 -34 100c0 30 6 57.333 18 82
s25.333 47.667 40 69c-37.333 0 -70.5 11 -99.5 33s-53.667 54.167 -74 96.5s-35.833 94.333 -46.5 156s-16 132.5 -16 212.5c0 76.667 5.5 146 16.5 208s26.5 114.667 46.5 158s43.833 76.833 71.5 100.5s58.5 35.5 92.5 35.5c70.667 0 125.334 -45.667 164.001 -137
s58 -224 58 -398v-22h-320c2 -109.333 11.333 -192.333 28 -249s45 -85 85 -85zM361.999 519.999c-0.666992 44.667 -2.83203 87.667 -6.49902 129s-9.16699 77.833 -16.5 109.5s-16.833 56.834 -28.5 75.501s-25.834 28 -42.501 28c-15.333 0 -28.666 -9.33301 -39.999 -28
s-21 -43.834 -29 -75.501s-14.333 -68.167 -19 -109.5s-7.33398 -84.333 -8.00098 -129h190z" />
    <glyph glyph-name="Ecaron" unicode="&#x11a;" horiz-adv-x="702" 
d="M520 963v299h-237v-480h221v-112h-221v-557h252v319h108v-432h-618v113h122v1149h-122v112h604v-411h-109zM594 1695l-256 -219l-256 219l60 62l196 -150l197 150z" />
    <glyph glyph-name="ecaron" unicode="&#x11b;" horiz-adv-x="535" 
d="M362 520c-0.666992 44.667 -2.83203 87.667 -6.49902 129s-9.16699 77.833 -16.5 109.5s-16.833 56.834 -28.5 75.501s-25.834 28 -42.501 28c-15.333 0 -28.666 -9.33301 -39.999 -28s-21 -43.834 -29 -75.501s-14.333 -68.167 -19 -109.5
s-7.33398 -84.333 -8.00098 -129h190zM285.002 82c19.333 0 35.3311 6.16797 47.998 18.501s23 27.666 31 45.999s14.333 38 19 59s8.66699 40.5 12 58.5h99c-5.33301 -41.333 -13.666 -79.833 -24.999 -115.5s-26 -66.5 -44 -92.5s-39.167 -46.333 -63.5 -61
s-51.833 -22 -82.5 -22c-36 0 -68.5 10.667 -97.5 32s-53.833 53 -74.5 95s-36.5 94 -47.5 156s-16.5 133.667 -16.5 215c0 76.667 5.5 146 16.5 208s26.5 114.667 46.5 158s43.833 76.833 71.5 100.5s58.5 35.5 92.5 35.5c70.667 0 125.334 -45.667 164.001 -137
s58 -224 58 -398v-22h-320c2 -109.333 11.333 -192.333 28 -249s45 -85 85 -85zM527 1300l-256 -219l-256 219l60 62l196 -150l197 150z" />
    <glyph glyph-name="Gcircumflex" unicode="&#x11c;" horiz-adv-x="799" 
d="M555 0l0.00390625 60.9961c-30 -34 -60.167 -57.167 -90.5 -69.5s-61.5 -18.5 -93.5 -18.5c-45.333 0 -87.333 14.5 -126 43.5s-72 73 -100 132s-50 133.167 -66 222.5s-24 194.333 -24 315s9.16699 225.667 27.5 315s42.666 163.5 72.999 222.5s65.166 103 104.499 132
s80.333 43.5 123 43.5c23.333 0 44 -2.66699 62 -8s34.167 -12.666 48.5 -21.999s27.333 -20.166 39 -32.499s22.5 -25.833 32.5 -40.5v78h111v-438h-111v113c0 40 -5 74.833 -15 104.5s-23 54.334 -39 74.001s-33.5 34.334 -52.5 44.001s-37.5 14.5 -55.5 14.5
c-76.667 0 -132.334 -49.5 -167.001 -148.5s-52 -249.5 -52 -451.5c0 -87.333 4.66699 -167.833 14 -241.5s23.333 -137.167 42 -190.5s42 -95 70 -125s60.667 -45 98 -45c28 0 54.667 9.66699 80 29s47.666 44.333 66.999 75v383h-123v113h330v-113h-82v-571h-125z
M604.004 1476l-197 150l-196 -150l-60 62l256 219l256 -219z" />
    <glyph glyph-name="gcircumflex" unicode="&#x11d;" horiz-adv-x="604" 
d="M502 10c0 -60 -4 -115.832 -12 -167.499s-21.5 -96.5 -40.5 -134.5s-44.833 -67.833 -77.5 -89.5s-73.334 -32.5 -122.001 -32.5c-22.667 0 -43.334 2.66699 -62.001 8s-35.667 12.166 -51 20.499s-29.333 17.5 -42 27.5s-24 20 -34 30l60 95l22.5 -22.5
c8.33301 -8.33301 17.666 -16 27.999 -23s21.5 -12.833 33.5 -17.5s25 -7 39 -7c27.333 0 49.666 7 66.999 21s30.833 34.333 40.5 61s16.334 59.167 20.001 97.5s5.5 82.166 5.5 131.499v58c-15.333 -28 -32.166 -50.5 -50.499 -67.5s-43.166 -25.5 -74.499 -25.5
c-28 0 -54.5 8 -79.5 24s-47.167 43.5 -66.5 82.5s-34.666 91.333 -45.999 157s-17 147.834 -17 246.501c0 84 5 157 15 219s24 113.5 42 154.5s39.667 71.667 65 92s53 30.5 83 30.5c26.667 0 51 -9.33301 73 -28s40.667 -42 56 -70v71h207v-112h-82v-830zM272 80.001
c22.667 0 43 12.834 61 38.501s32.667 60.5 44 104.5v465c-5.33301 23.333 -11.5 46.166 -18.5 68.499s-14.833 42 -23.5 59s-18 30.667 -28 41s-20.333 15.5 -31 15.5c-32.667 0 -59.167 -33.833 -79.5 -101.5s-30.5 -163.5 -30.5 -287.5c0 -130 9 -229.667 27 -299
s44.333 -104 79 -104zM504 1081l-197 150l-196 -150l-60 62l256 219l256 -219z" />
    <glyph glyph-name="Gbreve" unicode="&#x11e;" horiz-adv-x="799" 
d="M555 0l0.00390625 60.9961c-30 -34 -60.167 -57.167 -90.5 -69.5s-61.5 -18.5 -93.5 -18.5c-45.333 0 -87.333 14.5 -126 43.5s-72 73 -100 132s-50 133.167 -66 222.5s-24 194.333 -24 315s9.16699 225.667 27.5 315s42.666 163.5 72.999 222.5s65.166 103 104.499 132
s80.333 43.5 123 43.5c23.333 0 44 -2.66699 62 -8s34.167 -12.666 48.5 -21.999s27.333 -20.166 39 -32.499s22.5 -25.833 32.5 -40.5v78h111v-438h-111v113c0 40 -5 74.833 -15 104.5s-23 54.334 -39 74.001s-33.5 34.334 -52.5 44.001s-37.5 14.5 -55.5 14.5
c-76.667 0 -132.334 -49.5 -167.001 -148.5s-52 -249.5 -52 -451.5c0 -87.333 4.66699 -167.833 14 -241.5s23.333 -137.167 42 -190.5s42 -95 70 -125s60.667 -45 98 -45c28 0 54.667 9.66699 80 29s47.666 44.333 66.999 75v383h-123v113h330v-113h-82v-571h-125z
M630.004 1706c-4 -24.667 -10.333 -49.834 -19 -75.501s-21.5 -49 -38.5 -70s-38.833 -38.167 -65.5 -51.5s-60 -20 -100 -20s-73.333 6.66699 -100 20s-48.167 30.5 -64.5 51.5s-28.833 44.333 -37.5 70s-15 50.834 -19 75.501h102c2 -12 5.33301 -25 10 -39
s11.5 -27 20.5 -39s20.667 -22.167 35 -30.5s32.166 -12.5 53.499 -12.5c22.667 0 41.334 4.16699 56.001 12.5s26.667 18.5 36 30.5s16.333 25 21 39s8 27 10 39h100v0z" />
    <glyph glyph-name="gbreve" unicode="&#x11f;" horiz-adv-x="604" 
d="M502 10c0 -60 -4 -115.832 -12 -167.499s-21.5 -96.5 -40.5 -134.5s-44.833 -67.833 -77.5 -89.5s-73.334 -32.5 -122.001 -32.5c-22.667 0 -43.334 2.66699 -62.001 8s-35.667 12.166 -51 20.499s-29.333 17.5 -42 27.5s-24 20 -34 30l60 95l22.5 -22.5
c8.33301 -8.33301 17.666 -16 27.999 -23s21.5 -12.833 33.5 -17.5s25 -7 39 -7c27.333 0 49.666 7 66.999 21s30.833 34.333 40.5 61s16.334 59.167 20.001 97.5s5.5 82.166 5.5 131.499v58c-15.333 -28 -32.166 -50.5 -50.499 -67.5s-43.166 -25.5 -74.499 -25.5
c-28 0 -54.5 8 -79.5 24s-47.167 43.5 -66.5 82.5s-34.666 91.333 -45.999 157s-17 147.834 -17 246.501c0 84 5 157 15 219s24 113.5 42 154.5s39.667 71.667 65 92s53 30.5 83 30.5c26.667 0 51 -9.33301 73 -28s40.667 -42 56 -70v71h207v-112h-82v-830zM272 80.001
c22.667 0 43 12.834 61 38.501s32.667 60.5 44 104.5v465c-5.33301 23.333 -11.5 46.166 -18.5 68.499s-14.833 42 -23.5 59s-18 30.667 -28 41s-20.333 15.5 -31 15.5c-32.667 0 -59.167 -33.833 -79.5 -101.5s-30.5 -163.5 -30.5 -287.5c0 -130 9 -229.667 27 -299
s44.333 -104 79 -104zM530 1311c-4 -24.667 -10.333 -49.834 -19 -75.501s-21.5 -49 -38.5 -70s-38.833 -38.167 -65.5 -51.5s-60 -20 -100 -20s-73.333 6.66699 -100 20s-48.167 30.5 -64.5 51.5s-28.833 44.333 -37.5 70s-15 50.834 -19 75.501h102
c2 -12 5.33301 -25 10 -39s11.5 -27 20.5 -39s20.667 -22.167 35 -30.5s32.166 -12.5 53.499 -12.5c22.667 0 41.334 4.16699 56.001 12.5s26.667 18.5 36 30.5s16.333 25 21 39s8 27 10 39h100v0z" />
    <glyph glyph-name="Gdotaccent" unicode="&#x120;" horiz-adv-x="799" 
d="M555 0l0.00390625 60.9961c-30 -34 -60.167 -57.167 -90.5 -69.5s-61.5 -18.5 -93.5 -18.5c-45.333 0 -87.333 14.5 -126 43.5s-72 73 -100 132s-50 133.167 -66 222.5s-24 194.333 -24 315s9.16699 225.667 27.5 315s42.666 163.5 72.999 222.5s65.166 103 104.499 132
s80.333 43.5 123 43.5c23.333 0 44 -2.66699 62 -8s34.167 -12.666 48.5 -21.999s27.333 -20.166 39 -32.499s22.5 -25.833 32.5 -40.5v78h111v-438h-111v113c0 40 -5 74.833 -15 104.5s-23 54.334 -39 74.001s-33.5 34.334 -52.5 44.001s-37.5 14.5 -55.5 14.5
c-76.667 0 -132.334 -49.5 -167.001 -148.5s-52 -249.5 -52 -451.5c0 -87.333 4.66699 -167.833 14 -241.5s23.333 -137.167 42 -190.5s42 -95 70 -125s60.667 -45 98 -45c28 0 54.667 9.66699 80 29s47.666 44.333 66.999 75v383h-123v113h330v-113h-82v-571h-125z
M327.004 1575c0 23.333 7.66699 43.166 23 59.499s34.333 24.5 57 24.5c23.333 0 43.166 -8.16699 59.499 -24.5s24.5 -36.166 24.5 -59.499c0 -22.667 -8.16699 -41.667 -24.5 -57s-36.166 -23 -59.499 -23c-22.667 0 -41.667 7.66699 -57 23s-23 34.333 -23 57z" />
    <glyph glyph-name="gdotaccent" unicode="&#x121;" horiz-adv-x="604" 
d="M502 10c0 -60 -4 -115.832 -12 -167.499s-21.5 -96.5 -40.5 -134.5s-44.833 -67.833 -77.5 -89.5s-73.334 -32.5 -122.001 -32.5c-22.667 0 -43.334 2.66699 -62.001 8s-35.667 12.166 -51 20.499s-29.333 17.5 -42 27.5s-24 20 -34 30l60 95l22.5 -22.5
c8.33301 -8.33301 17.666 -16 27.999 -23s21.5 -12.833 33.5 -17.5s25 -7 39 -7c27.333 0 49.666 7 66.999 21s30.833 34.333 40.5 61s16.334 59.167 20.001 97.5s5.5 82.166 5.5 131.499v58c-15.333 -28 -32.166 -50.5 -50.499 -67.5s-43.166 -25.5 -74.499 -25.5
c-28 0 -54.5 8 -79.5 24s-47.167 43.5 -66.5 82.5s-34.666 91.333 -45.999 157s-17 147.834 -17 246.501c0 84 5 157 15 219s24 113.5 42 154.5s39.667 71.667 65 92s53 30.5 83 30.5c26.667 0 51 -9.33301 73 -28s40.667 -42 56 -70v71h207v-112h-82v-830zM272 80.001
c22.667 0 43 12.834 61 38.501s32.667 60.5 44 104.5v465c-5.33301 23.333 -11.5 46.166 -18.5 68.499s-14.833 42 -23.5 59s-18 30.667 -28 41s-20.333 15.5 -31 15.5c-32.667 0 -59.167 -33.833 -79.5 -101.5s-30.5 -163.5 -30.5 -287.5c0 -130 9 -229.667 27 -299
s44.333 -104 79 -104zM227 1180c0 23.333 7.66699 43.166 23 59.499s34.333 24.5 57 24.5c23.333 0 43.166 -8.16699 59.499 -24.5s24.5 -36.166 24.5 -59.499c0 -22.667 -8.16699 -41.667 -24.5 -57s-36.166 -23 -59.499 -23c-22.667 0 -41.667 7.66699 -57 23
s-23 34.333 -23 57z" />
    <glyph glyph-name="Gcommaaccent" unicode="&#x122;" horiz-adv-x="799" 
d="M555 0l0.00390625 60.9961c-30 -34 -60.167 -57.167 -90.5 -69.5s-61.5 -18.5 -93.5 -18.5c-45.333 0 -87.333 14.5 -126 43.5s-72 73 -100 132s-50 133.167 -66 222.5s-24 194.333 -24 315s9.16699 225.667 27.5 315s42.666 163.5 72.999 222.5s65.166 103 104.499 132
s80.333 43.5 123 43.5c23.333 0 44 -2.66699 62 -8s34.167 -12.666 48.5 -21.999s27.333 -20.166 39 -32.499s22.5 -25.833 32.5 -40.5v78h111v-438h-111v113c0 40 -5 74.833 -15 104.5s-23 54.334 -39 74.001s-33.5 34.334 -52.5 44.001s-37.5 14.5 -55.5 14.5
c-76.667 0 -132.334 -49.5 -167.001 -148.5s-52 -249.5 -52 -451.5c0 -87.333 4.66699 -167.833 14 -241.5s23.333 -137.167 42 -190.5s42 -95 70 -125s60.667 -45 98 -45c28 0 54.667 9.66699 80 29s47.666 44.333 66.999 75v383h-123v113h330v-113h-82v-571h-125z
M419.004 -416.004h-100l39 273h143z" />
    <glyph glyph-name="gcommaaccent" unicode="&#x123;" horiz-adv-x="604" 
d="M502 10c0 -60 -4 -115.832 -12 -167.499s-21.5 -96.5 -40.5 -134.5s-44.833 -67.833 -77.5 -89.5s-73.334 -32.5 -122.001 -32.5c-22.667 0 -43.334 2.66699 -62.001 8s-35.667 12.166 -51 20.499s-29.333 17.5 -42 27.5s-24 20 -34 30l60 95l22.5 -22.5
c8.33301 -8.33301 17.666 -16 27.999 -23s21.5 -12.833 33.5 -17.5s25 -7 39 -7c27.333 0 49.666 7 66.999 21s30.833 34.333 40.5 61s16.334 59.167 20.001 97.5s5.5 82.166 5.5 131.499v58c-15.333 -28 -32.166 -50.5 -50.499 -67.5s-43.166 -25.5 -74.499 -25.5
c-28 0 -54.5 8 -79.5 24s-47.167 43.5 -66.5 82.5s-34.666 91.333 -45.999 157s-17 147.834 -17 246.501c0 84 5 157 15 219s24 113.5 42 154.5s39.667 71.667 65 92s53 30.5 83 30.5c26.667 0 51 -9.33301 73 -28s40.667 -42 56 -70v71h207v-112h-82v-830zM272 80.001
c22.667 0 43 12.834 61 38.501s32.667 60.5 44 104.5v465c-5.33301 23.333 -11.5 46.166 -18.5 68.499s-14.833 42 -23.5 59s-18 30.667 -28 41s-20.333 15.5 -31 15.5c-32.667 0 -59.167 -33.833 -79.5 -101.5s-30.5 -163.5 -30.5 -287.5c0 -130 9 -229.667 27 -299
s44.333 -104 79 -104zM367 1161c0 -21.333 -7.66699 -39.002 -23 -53.002s-33.666 -21 -54.999 -21c-24.667 0 -44.834 8.33301 -60.501 25s-23.5 38 -23.5 64c0 38.667 7.66699 71.834 23 99.501s37 53.834 65 78.501l45 -31c-8 -8 -14.667 -15 -20 -21s-10 -12 -14 -18
s-7.5 -12.667 -10.5 -20s-5.83301 -17 -8.5 -29c15.333 0 28.166 -2.16699 38.499 -6.5s18.833 -10 25.5 -17s11.334 -14.833 14.001 -23.5s4 -17.667 4 -27z" />
    <glyph glyph-name="Hcircumflex" unicode="&#x124;" horiz-adv-x="887" 
d="M25 1374h370v-112h-123v-480h342v480h-122v112h370v-112h-123v-1149h123v-113h-370v113h122v553h-342v-553h123v-113h-370v113h122v1149h-122v112zM639 1476l-197 150l-196 -150l-60 62l256 219l256 -219z" />
    <glyph glyph-name="hcircumflex" unicode="&#x125;" horiz-adv-x="641" 
d="M25 1374h206.002v-524c24 40 49.167 71.5 75.5 94.5s56.5 34.5 90.5 34.5c49.333 0 84.666 -21.667 105.999 -65s32 -105 32 -185v-616h81v-113h-268v113h62v577c0 36.667 -0.833008 66.334 -2.5 89.001s-4.5 40.5 -8.5 53.5s-9 21.833 -15 26.5s-13.333 7 -22 7
c-12.667 0 -25.834 -6.5 -39.501 -19.5s-26.5 -29.833 -38.5 -50.5s-22.833 -43.834 -32.5 -69.501s-16.5 -51.5 -20.5 -77.5v-536h62v-113h-268v113h81v1149h-81v112zM331.002 1476l-197 150l-196 -150l-60 62l256 219l256 -219z" />
    <glyph glyph-name="Hbar" unicode="&#x126;" horiz-adv-x="887" 
d="M739 971v-858h123v-113h-370v113h122v553h-342v-553h123v-113h-370v113h122v858h-122v104h122v187h-122v112h370v-112h-123v-187h342v187h-122v112h370v-112h-123v-187h123v-104h-123zM614 782v189h-342v-189h342z" />
    <glyph glyph-name="hbar" unicode="&#x127;" horiz-adv-x="641" 
d="M231 1075l0.00195312 -225c24 40 49.167 71.5 75.5 94.5s56.5 34.5 90.5 34.5c49.333 0 84.666 -21.667 105.999 -65s32 -105 32 -185v-616h81v-113h-268v113h62v577c0 36.667 -0.833008 66.334 -2.5 89.001s-4.5 40.5 -8.5 53.5s-9 21.833 -15 26.5s-13.333 7 -22 7
c-12.667 0 -25.834 -6.5 -39.501 -19.5s-26.5 -29.833 -38.5 -50.5s-22.833 -43.834 -32.5 -69.501s-16.5 -51.5 -20.5 -77.5v-536h62v-113h-268v113h81v962h-81v105h81v82h-81v112h206v-194h138v-105h-138z" />
    <glyph glyph-name="Itilde" unicode="&#x128;" horiz-adv-x="420" 
d="M25 1374h370v-112h-123v-1149h123v-113h-370v113h122v1149h-122v112zM446 1706c0 -17.333 -2.5 -38.6689 -7.5 -64.002s-12.667 -49.666 -23 -72.999s-23.833 -43.166 -40.5 -59.499s-36.667 -24.5 -60 -24.5s-44.333 6.16699 -63 18.5s-35.834 26 -51.501 41l-42.5 41.5
c-12.667 12.667 -24.667 19 -36 19c-12 0 -21.667 -5 -29 -15s-12.833 -21.667 -16.5 -35s-6 -26.666 -7 -39.999s-1.83301 -23.333 -2.5 -30h-88c0 16.667 2.5 37.5 7.5 62.5s12.667 49.333 23 73s24 43.834 41 60.501s37.5 25 61.5 25
c22.667 0 43.334 -6.33301 62.001 -19s35.5 -26.5 50.5 -41.5l41.5 -41.5c12.667 -12.667 24.667 -19 36 -19c12 0 21.667 5 29 15s12.833 21.667 16.5 35s6.16699 26.666 7.5 39.999s2.33301 23.666 3 30.999h88v0z" />
    <glyph glyph-name="itilde" unicode="&#x129;" horiz-adv-x="350" 
d="M31 952h207v-839h100v-113h-307v113h82v727h-82v112zM382 1311c0 -17.333 -2.5 -38.6689 -7.5 -64.002s-12.667 -49.666 -23 -72.999s-23.833 -43.166 -40.5 -59.499s-36.667 -24.5 -60 -24.5s-44.333 6.16699 -63 18.5s-35.834 26 -51.501 41l-42.5 41.5
c-12.667 12.667 -24.667 19 -36 19c-12 0 -21.667 -5 -29 -15s-12.833 -21.667 -16.5 -35s-6 -26.666 -7 -39.999s-1.83301 -23.333 -2.5 -30h-88c0 16.667 2.5 37.5 7.5 62.5s12.667 49.333 23 73s24 43.834 41 60.501s37.5 25 61.5 25
c22.667 0 43.334 -6.33301 62.001 -19s35.5 -26.5 50.5 -41.5l41.5 -41.5c12.667 -12.667 24.667 -19 36 -19c12 0 21.667 5 29 15s12.833 21.667 16.5 35s6.16699 26.666 7.5 39.999s2.33301 23.666 3 30.999h88v0z" />
    <glyph glyph-name="Imacron" unicode="&#x12a;" horiz-adv-x="420" 
d="M25 1374h370v-112h-123v-1149h123v-113h-370v113h122v1149h-122v112zM20 1507v105h385v-105h-385z" />
    <glyph glyph-name="imacron" unicode="&#x12b;" horiz-adv-x="350" 
d="M31 952h207v-839h100v-113h-307v113h82v727h-82v112zM-44 1112v105h385v-105h-385z" />
    <glyph glyph-name="Ibreve" unicode="&#x12c;" horiz-adv-x="420" 
d="M25 1374h370v-112h-123v-1149h123v-113h-370v113h122v1149h-122v112zM435 1706c-4 -24.667 -10.333 -49.834 -19 -75.501s-21.5 -49 -38.5 -70s-38.833 -38.167 -65.5 -51.5s-60 -20 -100 -20s-73.333 6.66699 -100 20s-48.167 30.5 -64.5 51.5s-28.833 44.333 -37.5 70
s-15 50.834 -19 75.501h102c2 -12 5.33301 -25 10 -39s11.5 -27 20.5 -39s20.667 -22.167 35 -30.5s32.166 -12.5 53.499 -12.5c22.667 0 41.334 4.16699 56.001 12.5s26.667 18.5 36 30.5s16.333 25 21 39s8 27 10 39h100v0z" />
    <glyph glyph-name="ibreve" unicode="&#x12d;" horiz-adv-x="350" 
d="M31 952h207v-839h100v-113h-307v113h82v727h-82v112zM371 1311c-4 -24.667 -10.333 -49.834 -19 -75.501s-21.5 -49 -38.5 -70s-38.833 -38.167 -65.5 -51.5s-60 -20 -100 -20s-73.333 6.66699 -100 20s-48.167 30.5 -64.5 51.5s-28.833 44.333 -37.5 70
s-15 50.834 -19 75.501h102c2 -12 5.33301 -25 10 -39s11.5 -27 20.5 -39s20.667 -22.167 35 -30.5s32.166 -12.5 53.499 -12.5c22.667 0 41.334 4.16699 56.001 12.5s26.667 18.5 36 30.5s16.333 25 21 39s8 27 10 39h100v0z" />
    <glyph glyph-name="Iogonek" unicode="&#x12e;" horiz-adv-x="420" 
d="M25 1374h369.999v-112h-123v-1149h123v-113h-125c-23.333 -28.667 -43.166 -59 -59.499 -91s-24.5 -68.667 -24.5 -110c0 -21.333 5.16699 -37.5 15.5 -48.5s23.833 -16.5 40.5 -16.5c12 0 22.833 2.66699 32.5 8s18.5 12 26.5 20l33 -81
c-17.333 -10.667 -36.333 -19.5 -57 -26.5s-42.667 -10.5 -66 -10.5c-43.333 0 -76.333 11.833 -99 35.5s-34 57.5 -34 101.5c0 18 2.5 36.5 7.5 55.5s11.667 38 20 57s18.333 37.5 30 55.5s24.5 35 38.5 51h-149v113h122v1149h-122v112z" />
    <glyph glyph-name="iogonek" unicode="&#x12f;" horiz-adv-x="350" 
d="M31 952h206.999v-839h100v-113h-98c-23.333 -28.667 -43.166 -59 -59.499 -91s-24.5 -68.667 -24.5 -110c0 -21.333 5 -37.5 15 -48.5s23.333 -16.5 40 -16.5c12.667 0 23.667 2.66699 33 8s18 12 26 20l33 -81c-17.333 -10.667 -36.333 -19.5 -57 -26.5
s-42.667 -10.5 -66 -10.5c-43.333 0 -76.333 11.833 -99 35.5s-34 57.5 -34 101.5c0 18 2.5 36.5 7.5 55.5s11.667 38 20 57s18.333 37.5 30 55.5s24.5 35 38.5 51h-112v113h82v727h-82v112zM65.999 1221c0 26.667 8.83301 49.334 26.5 68.001s40.167 28 67.5 28
c26.667 0 49.334 -9.33301 68.001 -28s28 -41.334 28 -68.001c0 -27.333 -9.33301 -50 -28 -68s-41.334 -27 -68.001 -27c-27.333 0 -49.833 9 -67.5 27s-26.5 40.667 -26.5 68z" />
    <glyph glyph-name="Idotaccent" unicode="&#x130;" horiz-adv-x="420" 
d="M25 1374h370v-112h-123v-1149h123v-113h-370v113h122v1149h-122v112zM132 1575c0 23.333 7.66699 43.166 23 59.499s34.333 24.5 57 24.5c23.333 0 43.166 -8.16699 59.499 -24.5s24.5 -36.166 24.5 -59.499c0 -22.667 -8.16699 -41.667 -24.5 -57
s-36.166 -23 -59.499 -23c-22.667 0 -41.667 7.66699 -57 23s-23 34.333 -23 57z" />
    <glyph glyph-name="dotlessi" unicode="&#x131;" horiz-adv-x="350" 
d="M31 952h207v-839h100v-113h-307v113h82v727h-82v112z" />
    <glyph glyph-name="IJ" unicode="&#x132;" horiz-adv-x="1055" 
d="M25 1374h370v-112h-123v-1149h123v-113h-370v113h122v1149h-122v112zM653 1374h392v-112h-123v-887c0 -72 -5.5 -132.833 -16.5 -182.5s-26.667 -90 -47 -121s-45 -53.333 -74 -67s-61.833 -20.5 -98.5 -20.5c-36 0 -68.167 6 -96.5 18s-52.5 34.5 -72.5 67.5
s-35.333 78.833 -46 137.5s-16 134.334 -16 227.001h125c0.666992 -62.667 2.16699 -115.334 4.5 -158.001s7 -77.167 14 -103.5s17.5 -45.333 31.5 -57s32.667 -17.5 56 -17.5s42.333 6.16699 57 18.5s26 30.333 34 54s13.333 53.167 16 88.5s4 76 4 122v881h-144v112z" />
    <glyph glyph-name="ij" unicode="&#x133;" horiz-adv-x="668" 
d="M31 952h207v-839h100v-113h-307v113h82v727h-82v112zM66 1221c0 26.667 8.83301 49.334 26.5 68.001s40.167 28 67.5 28c26.667 0 49.334 -9.33301 68.001 -28s28 -41.334 28 -68.001c0 -27.333 -9.33301 -50 -28 -68s-41.334 -27 -68.001 -27
c-27.333 0 -49.833 9 -67.5 27s-26.5 40.667 -26.5 68zM397 1221c0 26.667 9 49.334 27 68.001s40.333 28 67 28c27.333 0 50.333 -9.33301 69 -28s28 -41.334 28 -68.001c0 -27.333 -9.33301 -50 -28 -68s-41.667 -27 -69 -27c-26.667 0 -49 9 -67 27s-27 40.667 -27 68z
M276 -250c12.667 -11.333 25.832 -21.667 39.499 -31s29.834 -14 48.501 -14c14 0 26.667 3 38 9s21 16.167 29 30.5s14.167 33.166 18.5 56.499s6.5 52 6.5 86v953h-94v112h219v-1061c0 -58 -5.33301 -106.5 -16 -145.5s-25 -70.333 -43 -94s-39 -40.5 -63 -50.5
s-49.333 -15 -76 -15c-19.333 0 -37.166 2.33301 -53.499 7s-31.333 10.334 -45 17.001s-25.834 14 -36.501 22s-19.667 15.333 -27 22z" />
    <glyph glyph-name="Jcircumflex" unicode="&#x134;" horiz-adv-x="635" 
d="M233 1374h392v-112h-123v-887c0 -72 -5.5 -132.833 -16.5 -182.5s-26.667 -90 -47 -121s-45 -53.333 -74 -67s-61.833 -20.5 -98.5 -20.5c-36 0 -68.167 6 -96.5 18s-52.5 34.5 -72.5 67.5s-35.333 78.833 -46 137.5s-16 134.334 -16 227.001h125
c0.666992 -62.667 2.16699 -115.334 4.5 -158.001s7 -77.167 14 -103.5s17.5 -45.333 31.5 -57s32.667 -17.5 56 -17.5s42.333 6.16699 57 18.5s26 30.333 34 54s13.333 53.167 16 88.5s4 76 4 122v881h-144v112zM635 1476l-197 150l-196 -150l-60 62l256 219l256 -219z" />
    <glyph glyph-name="jcircumflex" unicode="&#x135;" horiz-adv-x="317" 
d="M-74 -250c12.667 -11.333 25.832 -21.667 39.499 -31s29.834 -14 48.501 -14c14 0 26.667 3 38 9s21 16.167 29 30.5s14.167 33.166 18.5 56.499s6.5 52 6.5 86v953h-94v112h219v-1061c0 -58 -5.33301 -106.5 -16 -145.5s-25 -70.333 -43 -94s-39 -40.5 -63 -50.5
s-49.333 -15 -76 -15c-19.333 0 -37.166 2.33301 -53.499 7s-31.333 10.334 -45 17.001s-25.834 14 -36.501 22s-19.667 15.333 -27 22l55 96v0zM340.998 1081l-197 150l-196 -150l-60 62l256 219l256 -219z" />
    <glyph glyph-name="Kcommaaccent" unicode="&#x136;" horiz-adv-x="782" 
d="M25 1374h370v-112h-123v-469l254 469h-75v112h305v-112h-103l-258 -478l283 -671h113v-113h-326v113h84l-232 565l-45 -82v-483h123v-113h-370v113h122v1149h-122v112zM399 -416h-100l39 273h143z" />
    <glyph glyph-name="kcommaaccent" unicode="&#x137;" horiz-adv-x="627" 
d="M25 1374h205.998v-774l185 283c17.333 28 36.5 49.333 57.5 64s45.5 22 73.5 22c13.333 0 26.333 -2 39 -6s24.334 -9.66699 35.001 -17l-37 -98c-11.333 5.33301 -21.666 8 -30.999 8c-13.333 0 -25.5 -6.5 -36.5 -19.5s-26.167 -34.5 -45.5 -64.5l-104 -160l186 -499
h82v-113h-277v113h66l-139 381l-54 -80v-301h82v-113h-288v113h81v1149h-81v112zM320.998 -416h-100l39 273h143z" />
    <glyph glyph-name="kgreenlandic" unicode="&#x138;" horiz-adv-x="627" 
d="M25 952h287.998v-112h-82v-240l185 283c17.333 28 36.5 49.333 57.5 64s45.5 22 73.5 22c13.333 0 26.333 -2 39 -6s24.334 -9.66699 35.001 -17l-37 -98c-11.333 5.33301 -21.666 8 -30.999 8c-13.333 0 -25.5 -6.5 -36.5 -19.5s-26.167 -34.5 -45.5 -64.5l-104 -160
l186 -499h82v-113h-277v113h66l-139 381l-54 -80v-301h82v-113h-288v113h81v727h-81v112z" />
    <glyph glyph-name="Lacute" unicode="&#x139;" horiz-adv-x="674" 
d="M25 1374h378v-112h-131v-1149h260v319h109v-432h-616v113h122v1149h-122v112zM421 1652l-291 -176l-43 66l269 209z" />
    <glyph glyph-name="lacute" unicode="&#x13a;" horiz-adv-x="344" 
d="M4 1374l207 -0.00195312v-1153c0 -25.333 2 -45.166 6 -59.499s10 -25 18 -32s18.167 -11.5 30.5 -13.5s26.833 -3 43.5 -3h27v-113h-25c-38 0 -71 3.33301 -99 10s-51.333 18.834 -70 36.501s-32.667 41.5 -42 71.5s-14 68.333 -14 115v1029h-82v112zM324 1652
l-291 -176l-43 66l269 209z" />
    <glyph glyph-name="Lcommaaccent" unicode="&#x13b;" horiz-adv-x="674" 
d="M25 1374h378v-112h-131v-1149h260v319h109v-432h-616v113h122v1149h-122v112zM346 -416h-100l39 273h143z" />
    <glyph glyph-name="lcommaaccent" unicode="&#x13c;" horiz-adv-x="344" 
d="M4 1374l207 -0.00195312v-1153c0 -25.333 2 -45.166 6 -59.499s10 -25 18 -32s18.167 -11.5 30.5 -13.5s26.833 -3 43.5 -3h27v-113h-25c-38 0 -71 3.33301 -99 10s-51.333 18.834 -70 36.501s-32.667 41.5 -42 71.5s-14 68.333 -14 115v1029h-82v112zM210 -416.002h-100
l39 273h143z" />
    <glyph glyph-name="Lcaron" unicode="&#x13d;" horiz-adv-x="674" 
d="M25 1374h378v-112h-131v-1149h260v319h109v-432h-616v113h122v1149h-122v112zM546 1101h-100l39 273h143z" />
    <glyph glyph-name="lcaron" unicode="&#x13e;" horiz-adv-x="473" 
d="M4 1374l207 -0.00195312v-1153c0 -25.333 2 -45.166 6 -59.499s10 -25 18 -32s18.167 -11.5 30.5 -13.5s26.833 -3 43.5 -3h27v-113h-25c-38 0 -71 3.33301 -99 10s-51.333 18.834 -70 36.501s-32.667 41.5 -42 71.5s-14 68.333 -14 115v1029h-82v112zM370 1101h-100
l39 273h143z" />
    <glyph glyph-name="Ldot" unicode="&#x13f;" horiz-adv-x="674" 
d="M25 1374h378v-112h-131v-1149h260v319h109v-432h-616v113h122v1149h-122v112zM442 690c0 14.667 2.66797 28.499 8.00098 41.499s12.666 24.167 21.999 33.5s20.333 16.833 33 22.5s26.667 8.5 42 8.5c30 0 55.167 -10.167 75.5 -30.5s30.5 -45.5 30.5 -75.5
c0 -15.333 -2.83301 -29.333 -8.5 -42s-13.167 -23.667 -22.5 -33s-20.5 -16.666 -33.5 -21.999s-26.833 -8 -41.5 -8c-30 0 -55 10 -75 30s-30 45 -30 75z" />
    <glyph glyph-name="ldotaccent" unicode="&#x140;" horiz-adv-x="481" 
d="M4 1374l207 -0.00195312v-1153c0 -25.333 2 -45.166 6 -59.499s10 -25 18 -32s18.167 -11.5 30.5 -13.5s26.833 -3 43.5 -3h27v-113h-25c-38 0 -71 3.33301 -99 10s-51.333 18.834 -70 36.501s-32.667 41.5 -42 71.5s-14 68.333 -14 115v1029h-82v112zM282 671.998
c0 14.667 2.66797 28.499 8.00098 41.499s12.666 24.167 21.999 33.5s20.333 16.833 33 22.5s26.667 8.5 42 8.5c30 0 55.167 -10.167 75.5 -30.5s30.5 -45.5 30.5 -75.5c0 -15.333 -2.83301 -29.333 -8.5 -42s-13.167 -23.667 -22.5 -33s-20.5 -16.666 -33.5 -21.999
s-26.833 -8 -41.5 -8c-30 0 -55 10 -75 30s-30 45 -30 75z" />
    <glyph glyph-name="Lslash" unicode="&#x141;" horiz-adv-x="674" 
d="M272 582v-469h260v319h109v-432h-616v113h122v395l-104 -62l-55 97l159 94v625h-122v112h378v-112h-131v-551l148 86l55 -97z" />
    <glyph glyph-name="lslash" unicode="&#x142;" horiz-adv-x="344" 
d="M211 682v-461.002c0 -25.333 2 -45.166 6 -59.499s10 -25 18 -32s18.167 -11.5 30.5 -13.5s26.833 -3 43.5 -3h27v-113h-25c-38 0 -71 3.33301 -99 10s-51.333 18.834 -70 36.501s-32.667 41.5 -42 71.5s-14 68.333 -14 115v373l-74 -43l-55 96l129 76v527h-82v112h207
v-563l92 55l55 -96z" />
    <glyph glyph-name="Nacute" unicode="&#x143;" horiz-adv-x="868" 
d="M25 1374h239l342 -1020v908h-125v112h371v-112h-123v-1262h-115l-342 1016v-903h123v-113h-370v113h122v1149h-122v112zM651 1652l-291 -176l-43 66l269 209z" />
    <glyph glyph-name="nacute" unicode="&#x144;" horiz-adv-x="647" 
d="M31 952h207.003v-106c23.333 40 48.166 72.167 74.499 96.5s56.5 36.5 90.5 36.5c49.333 0 84.666 -21.667 105.999 -65s32 -105 32 -185v-616h82v-113h-269v113h62v577c0 36.667 -0.833008 66.334 -2.5 89.001s-4.33398 40.5 -8.00098 53.5s-8.5 21.833 -14.5 26.5
s-13.333 7 -22 7c-13.333 0 -26.833 -6.5 -40.5 -19.5s-26.5 -29.833 -38.5 -50.5s-22.667 -43.834 -32 -69.501s-16 -51.5 -20 -77.5v-536h61v-113h-268v113h82v727h-82v112zM516.003 1257l-291 -176l-43 66l269 209z" />
    <glyph glyph-name="Ncommaaccent" unicode="&#x145;" horiz-adv-x="868" 
d="M25 1374h239l342 -1020v908h-125v112h371v-112h-123v-1262h-115l-342 1016v-903h123v-113h-370v113h122v1149h-122v112zM442 -416h-100l39 273h143z" />
    <glyph glyph-name="ncommaaccent" unicode="&#x146;" horiz-adv-x="647" 
d="M31 952h207.003v-106c23.333 40 48.166 72.167 74.499 96.5s56.5 36.5 90.5 36.5c49.333 0 84.666 -21.667 105.999 -65s32 -105 32 -185v-616h82v-113h-269v113h62v577c0 36.667 -0.833008 66.334 -2.5 89.001s-4.33398 40.5 -8.00098 53.5s-8.5 21.833 -14.5 26.5
s-13.333 7 -22 7c-13.333 0 -26.833 -6.5 -40.5 -19.5s-26.5 -29.833 -38.5 -50.5s-22.667 -43.834 -32 -69.501s-16 -51.5 -20 -77.5v-536h61v-113h-268v113h82v727h-82v112zM331.003 -416h-100l39 273h143z" />
    <glyph glyph-name="Ncaron" unicode="&#x147;" horiz-adv-x="868" 
d="M25 1374h239l342 -1020v908h-125v112h371v-112h-123v-1262h-115l-342 1016v-903h123v-113h-370v113h122v1149h-122v112zM698 1695l-256 -219l-256 219l60 62l196 -150l197 150z" />
    <glyph glyph-name="ncaron" unicode="&#x148;" horiz-adv-x="647" 
d="M31 952h207.003v-106c23.333 40 48.166 72.167 74.499 96.5s56.5 36.5 90.5 36.5c49.333 0 84.666 -21.667 105.999 -65s32 -105 32 -185v-616h82v-113h-269v113h62v577c0 36.667 -0.833008 66.334 -2.5 89.001s-4.33398 40.5 -8.00098 53.5s-8.5 21.833 -14.5 26.5
s-13.333 7 -22 7c-13.333 0 -26.833 -6.5 -40.5 -19.5s-26.5 -29.833 -38.5 -50.5s-22.667 -43.834 -32 -69.501s-16 -51.5 -20 -77.5v-536h61v-113h-268v113h82v727h-82v112zM563.003 1300l-256 -219l-256 219l60 62l196 -150l197 150z" />
    <glyph glyph-name="napostrophe" unicode="&#x149;" horiz-adv-x="678" 
d="M62 952h207.003v-106c23.333 40 48.166 72.167 74.499 96.5s56.5 36.5 90.5 36.5c49.333 0 84.666 -21.667 105.999 -65s32 -105 32 -185v-616h82v-113h-269v113h62v577c0 36.667 -0.833008 66.334 -2.5 89.001s-4.33398 40.5 -8.00098 53.5s-8.5 21.833 -14.5 26.5
s-13.333 7 -22 7c-13.333 0 -26.833 -6.5 -40.5 -19.5s-26.5 -29.833 -38.5 -50.5s-22.667 -43.834 -32 -69.501s-16 -51.5 -20 -77.5v-536h61v-113h-268v113h82v727h-82v112zM80.0029 1100h-100l39 273h143z" />
    <glyph glyph-name="Eng" unicode="&#x14a;" horiz-adv-x="868" 
d="M606 25l-334 991v-903h123v-113h-370v113h122v1149h-122v112h239l342 -1016v904h-125v112h371v-112h-123v-1276c0 -72 -5.5 -132.833 -16.5 -182.5s-26.667 -90 -47 -121s-45 -53.5 -74 -67.5s-61.5 -21 -97.5 -21c-30 0 -58.5 5.33301 -85.5 16s-51.833 28.667 -74.5 54
l84 86c10 -13.333 20.5 -23.5 31.5 -30.5s25.833 -10.5 44.5 -10.5c23.333 0 42.333 6 57 18s26 30 34 54s13.5 53.667 16.5 89s4.5 76 4.5 122v33z" />
    <glyph glyph-name="eng" unicode="&#x14b;" horiz-adv-x="627" 
d="M416 690c0 36.667 -0.831055 66.3311 -2.49805 88.998s-4.33398 40.5 -8.00098 53.5s-8.5 21.833 -14.5 26.5s-13.333 7 -22 7c-13.333 0 -26.833 -6.5 -40.5 -19.5s-26.5 -29.833 -38.5 -50.5s-22.667 -43.834 -32 -69.501s-16 -51.5 -20 -77.5v-536h61v-113h-268v113
h82v727h-82v112h202v-106c24 40 49.833 72.167 77.5 96.5s58.5 36.5 92.5 36.5c49.333 0 84.666 -21.667 105.999 -65s32 -105 32 -185v-817c0 -58 -5.33301 -106.5 -16 -145.5s-25.167 -70.333 -43.5 -94s-39.5 -40.5 -63.5 -50.5s-49.333 -15 -76 -15
c-19.333 0 -37.166 2.33301 -53.499 7s-31.333 10.334 -45 17.001s-25.834 13.834 -36.501 21.501s-19.667 14.834 -27 21.501l56 97c12 -11.333 25 -21.666 39 -30.999s30.333 -14 49 -14c14 0 26.667 3 38 9s21 16.167 29 30.5s14.167 33.166 18.5 56.499s6.5 52 6.5 86
v782z" />
    <glyph glyph-name="Omacron" unicode="&#x14c;" horiz-adv-x="809" 
d="M754 686c0 -123.333 -9.00098 -229.835 -27.001 -319.502s-42.5 -163.667 -73.5 -222s-67.833 -101.5 -110.5 -129.5s-88.334 -42 -137.001 -42c-50 0 -96.333 14 -139 42s-79.667 71.167 -111 129.5s-56 132.333 -74 222s-27 196.167 -27 319.5
c0 122.667 9 228.834 27 318.501s42.833 163.834 74.5 222.501s68.834 102 111.501 130s88.667 42 138 42c48.667 0 94.334 -14 137.001 -42s79.5 -71.167 110.5 -129.5s55.5 -132.333 73.5 -222s27 -196.167 27 -319.5zM615.999 685.998c0 194.667 -17.667 343 -53 445
s-87.666 153 -156.999 153c-71.333 0 -124.666 -51.5 -159.999 -154.5s-53 -250.833 -53 -443.5c0 -194.667 17.667 -343 53 -445s88.666 -153 159.999 -153c69.333 0 121.666 51 156.999 153s53 250.333 53 445zM212.999 1507v105h385v-105h-385z" />
    <glyph glyph-name="omacron" unicode="&#x14d;" horiz-adv-x="575" 
d="M532 475c0 -87.333 -6.16699 -162.501 -18.5 -225.501s-29.5 -115 -51.5 -156s-47.833 -71.333 -77.5 -91s-61.5 -29.5 -95.5 -29.5c-34.667 0 -67 9.83301 -97 29.5s-56 50 -78 91s-39.333 93 -52 156s-19 138.167 -19 225.5c0 86.667 6.33301 161.834 19 225.501
s30.167 116 52.5 157s48.5 71.5 78.5 91.5s62 30 96 30s65.833 -9.83301 95.5 -29.5s55.5 -50 77.5 -91s39.167 -93.333 51.5 -157s18.5 -139.167 18.5 -226.5zM410 474.999c0 130 -10.167 228.667 -30.5 296s-50.5 101 -90.5 101c-41.333 0 -72.166 -34 -92.499 -102
s-30.5 -166.333 -30.5 -295s10.167 -226.667 30.5 -294s51.166 -101 92.499 -101c40 0 70.167 33.667 90.5 101s30.5 165.333 30.5 294zM98 1112v105h385v-105h-385z" />
    <glyph glyph-name="Obreve" unicode="&#x14e;" horiz-adv-x="809" 
d="M754 686c0 -123.333 -9.00098 -229.835 -27.001 -319.502s-42.5 -163.667 -73.5 -222s-67.833 -101.5 -110.5 -129.5s-88.334 -42 -137.001 -42c-50 0 -96.333 14 -139 42s-79.667 71.167 -111 129.5s-56 132.333 -74 222s-27 196.167 -27 319.5
c0 122.667 9 228.834 27 318.501s42.833 163.834 74.5 222.501s68.834 102 111.501 130s88.667 42 138 42c48.667 0 94.334 -14 137.001 -42s79.5 -71.167 110.5 -129.5s55.5 -132.333 73.5 -222s27 -196.167 27 -319.5zM615.999 685.998c0 194.667 -17.667 343 -53 445
s-87.666 153 -156.999 153c-71.333 0 -124.666 -51.5 -159.999 -154.5s-53 -250.833 -53 -443.5c0 -194.667 17.667 -343 53 -445s88.666 -153 159.999 -153c69.333 0 121.666 51 156.999 153s53 250.333 53 445zM627.999 1706c-4 -24.667 -10.333 -49.834 -19 -75.501
s-21.5 -49 -38.5 -70s-38.833 -38.167 -65.5 -51.5s-60 -20 -100 -20s-73.333 6.66699 -100 20s-48.167 30.5 -64.5 51.5s-28.833 44.333 -37.5 70s-15 50.834 -19 75.501h102c2 -12 5.33301 -25 10 -39s11.5 -27 20.5 -39s20.667 -22.167 35 -30.5
s32.166 -12.5 53.499 -12.5c22.667 0 41.334 4.16699 56.001 12.5s26.667 18.5 36 30.5s16.333 25 21 39s8 27 10 39h100v0z" />
    <glyph glyph-name="obreve" unicode="&#x14f;" horiz-adv-x="575" 
d="M532 475c0 -87.333 -6.16699 -162.501 -18.5 -225.501s-29.5 -115 -51.5 -156s-47.833 -71.333 -77.5 -91s-61.5 -29.5 -95.5 -29.5c-34.667 0 -67 9.83301 -97 29.5s-56 50 -78 91s-39.333 93 -52 156s-19 138.167 -19 225.5c0 86.667 6.33301 161.834 19 225.501
s30.167 116 52.5 157s48.5 71.5 78.5 91.5s62 30 96 30s65.833 -9.83301 95.5 -29.5s55.5 -50 77.5 -91s39.167 -93.333 51.5 -157s18.5 -139.167 18.5 -226.5zM410 474.999c0 130 -10.167 228.667 -30.5 296s-50.5 101 -90.5 101c-41.333 0 -72.166 -34 -92.499 -102
s-30.5 -166.333 -30.5 -295s10.167 -226.667 30.5 -294s51.166 -101 92.499 -101c40 0 70.167 33.667 90.5 101s30.5 165.333 30.5 294zM513 1311c-4 -24.667 -10.333 -49.834 -19 -75.501s-21.5 -49 -38.5 -70s-38.833 -38.167 -65.5 -51.5s-60 -20 -100 -20
s-73.333 6.66699 -100 20s-48.167 30.5 -64.5 51.5s-28.833 44.333 -37.5 70s-15 50.834 -19 75.501h102c2 -12 5.33301 -25 10 -39s11.5 -27 20.5 -39s20.667 -22.167 35 -30.5s32.166 -12.5 53.499 -12.5c22.667 0 41.334 4.16699 56.001 12.5s26.667 18.5 36 30.5
s16.333 25 21 39s8 27 10 39h100v0z" />
    <glyph glyph-name="Ohungarumlaut" unicode="&#x150;" horiz-adv-x="809" 
d="M754 686c0 -123.333 -9.00098 -229.835 -27.001 -319.502s-42.5 -163.667 -73.5 -222s-67.833 -101.5 -110.5 -129.5s-88.334 -42 -137.001 -42c-50 0 -96.333 14 -139 42s-79.667 71.167 -111 129.5s-56 132.333 -74 222s-27 196.167 -27 319.5
c0 122.667 9 228.834 27 318.501s42.833 163.834 74.5 222.501s68.834 102 111.501 130s88.667 42 138 42c48.667 0 94.334 -14 137.001 -42s79.5 -71.167 110.5 -129.5s55.5 -132.333 73.5 -222s27 -196.167 27 -319.5zM615.999 685.998c0 194.667 -17.667 343 -53 445
s-87.666 153 -156.999 153c-71.333 0 -124.666 -51.5 -159.999 -154.5s-53 -250.833 -53 -443.5c0 -194.667 17.667 -343 53 -445s88.666 -153 159.999 -153c69.333 0 121.666 51 156.999 153s53 250.333 53 445zM483.999 1665l-232 -189l-47 60l207 215zM708.999 1665
l-231 -189l-48 60l207 215z" />
    <glyph glyph-name="ohungarumlaut" unicode="&#x151;" horiz-adv-x="575" 
d="M532 475c0 -87.333 -6.16699 -162.501 -18.5 -225.501s-29.5 -115 -51.5 -156s-47.833 -71.333 -77.5 -91s-61.5 -29.5 -95.5 -29.5c-34.667 0 -67 9.83301 -97 29.5s-56 50 -78 91s-39.333 93 -52 156s-19 138.167 -19 225.5c0 86.667 6.33301 161.834 19 225.501
s30.167 116 52.5 157s48.5 71.5 78.5 91.5s62 30 96 30s65.833 -9.83301 95.5 -29.5s55.5 -50 77.5 -91s39.167 -93.333 51.5 -157s18.5 -139.167 18.5 -226.5zM410 474.999c0 130 -10.167 228.667 -30.5 296s-50.5 101 -90.5 101c-41.333 0 -72.166 -34 -92.499 -102
s-30.5 -166.333 -30.5 -295s10.167 -226.667 30.5 -294s51.166 -101 92.499 -101c40 0 70.167 33.667 90.5 101s30.5 165.333 30.5 294zM367 1270l-232 -189l-47 60l207 215zM592 1270l-231 -189l-48 60l207 215z" />
    <glyph glyph-name="OE" unicode="&#x152;" horiz-adv-x="1092" 
d="M537 113v1149h-82c-35.333 0 -68.833 -12 -100.5 -36s-59.5 -60 -83.5 -108s-43 -108 -57 -180s-21 -156 -21 -252c0 -97.333 7 -181.833 21 -253.5s33 -131.167 57 -178.5s51.833 -82.666 83.5 -105.999s65.167 -35 100.5 -35h82zM455 -0.000976562
c-50 0 -98.833 12.667 -146.5 38s-90.334 65.5 -128.001 120.5s-68 125.833 -91 212.5s-34.5 191.667 -34.5 315c0 122.667 11.667 227.667 35 315s53.833 158.5 91.5 213.5s80.334 95.333 128.001 121s96.167 38.5 145.5 38.5h563v-411h-109v299h-237v-480h221v-112h-221
v-557h252v319h108v-432h-577z" />
    <glyph glyph-name="oe" unicode="&#x153;" horiz-adv-x="895" 
d="M645 82c19.333 0 35.3301 6.16699 47.9971 18.5s23 27.666 31 45.999s14.333 38 19 59l13 58.5h98c-5.33301 -41.333 -13.5 -79.833 -24.5 -115.5s-25.5 -66.5 -43.5 -92.5s-39.167 -46.333 -63.5 -61s-52.166 -22 -83.499 -22c-75.333 0 -132.666 46 -171.999 138
c-21.333 -48 -47.166 -83 -77.499 -105s-63.833 -33 -100.5 -33c-34.667 0 -67 9.83301 -97 29.5s-56 50 -78 91s-39.333 93 -52 156s-19 138.167 -19 225.5c0 86.667 6.33301 161.834 19 225.501s30.167 116 52.5 157s48.5 71.5 78.5 91.5s62 30 96 30
c36.667 0 70.834 -11.833 102.501 -35.5s58.167 -60.167 79.5 -109.5c18.667 44 41.167 78.167 67.5 102.5s57.166 36.5 92.499 36.5c70 0 124.333 -45.667 163 -137s58 -224 58 -398v-22h-320c2.66699 -109.333 12.167 -192.333 28.5 -249s44.5 -85 84.5 -85zM409.997 475
c0 130 -10.167 228.667 -30.5 296s-50.5 101 -90.5 101c-41.333 0 -72.166 -34 -92.499 -102s-30.5 -166.333 -30.5 -295s10.167 -226.667 30.5 -294s51.166 -101 92.499 -101c40 0 70.167 33.667 90.5 101s30.5 165.333 30.5 294zM722.997 520
c-0.666992 44.667 -2.83203 87.667 -6.49902 129s-9.33398 77.833 -17.001 109.5s-17.334 56.834 -29.001 75.501s-25.5 28 -41.5 28c-15.333 0 -28.833 -9.33301 -40.5 -28s-21.5 -43.834 -29.5 -75.501s-14.167 -68.167 -18.5 -109.5s-7.16602 -84.333 -8.49902 -129h191z
" />
    <glyph glyph-name="Racute" unicode="&#x154;" horiz-adv-x="774" 
d="M451 113l73 -0.000976562l-162 479h-28h-62v-479h123v-113h-370v113h122v1149h-122v112h376c87.333 0 151.833 -32.667 193.5 -98s62.5 -164.333 62.5 -297c0 -103.333 -14 -185.666 -42 -246.999s-73.333 -103.333 -136 -126l178 -493h111v-113h-317v113zM520 978.999
c0 58.667 -2.33496 106.499 -7.00195 143.499s-12.667 65.833 -24 86.5s-26.166 34.667 -44.499 42s-40.833 11 -67.5 11h-105v-557h103c26.667 0 49.334 3.16699 68.001 9.5s33.667 19.333 45 39s19.5 47.334 24.5 83.001s7.5 83.167 7.5 142.5zM546.998 1652l-291 -176
l-43 66l269 209z" />
    <glyph glyph-name="racute" unicode="&#x155;" horiz-adv-x="479" 
d="M31 952l207 -0.000976562v-90c25.333 42 50.833 72 76.5 90s51.834 27 78.501 27c13.333 0 25.833 -1.83301 37.5 -5.5s22.167 -7.66699 31.5 -12s17.333 -8.83301 24 -13.5l14 -10l-45 -113l-9.5 10c-4.33301 4.66699 -9.5 9.33398 -15.5 14.001
s-12.833 8.66699 -20.5 12s-16.5 5 -26.5 5c-16.667 0 -32.5 -5.16699 -47.5 -15.5s-28.833 -24.333 -41.5 -42s-23.834 -38 -33.501 -61s-17.167 -46.833 -22.5 -71.5v-563h102v-113h-309v113h82v727h-82v112zM464 1257l-291 -176l-43 66l269 209z" />
    <glyph glyph-name="Rcommaaccent" unicode="&#x156;" horiz-adv-x="774" 
d="M451 113l73 -0.000976562l-162 479h-28h-62v-479h123v-113h-370v113h122v1149h-122v112h376c87.333 0 151.833 -32.667 193.5 -98s62.5 -164.333 62.5 -297c0 -103.333 -14 -185.666 -42 -246.999s-73.333 -103.333 -136 -126l178 -493h111v-113h-317v113zM520 978.999
c0 58.667 -2.33496 106.499 -7.00195 143.499s-12.667 65.833 -24 86.5s-26.166 34.667 -44.499 42s-40.833 11 -67.5 11h-105v-557h103c26.667 0 49.334 3.16699 68.001 9.5s33.667 19.333 45 39s19.5 47.334 24.5 83.001s7.5 83.167 7.5 142.5zM394.998 -416.002h-100
l39 273h143z" />
    <glyph glyph-name="rcommaaccent" unicode="&#x157;" horiz-adv-x="479" 
d="M31 952l207 -0.000976562v-90c25.333 42 50.833 72 76.5 90s51.834 27 78.501 27c13.333 0 25.833 -1.83301 37.5 -5.5s22.167 -7.66699 31.5 -12s17.333 -8.83301 24 -13.5l14 -10l-45 -113l-9.5 10c-4.33301 4.66699 -9.5 9.33398 -15.5 14.001
s-12.833 8.66699 -20.5 12s-16.5 5 -26.5 5c-16.667 0 -32.5 -5.16699 -47.5 -15.5s-28.833 -24.333 -41.5 -42s-23.834 -38 -33.501 -61s-17.167 -46.833 -22.5 -71.5v-563h102v-113h-309v113h82v727h-82v112zM169 -416.001h-100l39 273h143z" />
    <glyph glyph-name="Rcaron" unicode="&#x158;" horiz-adv-x="774" 
d="M451 113l73 -0.000976562l-162 479h-28h-62v-479h123v-113h-370v113h122v1149h-122v112h376c87.333 0 151.833 -32.667 193.5 -98s62.5 -164.333 62.5 -297c0 -103.333 -14 -185.666 -42 -246.999s-73.333 -103.333 -136 -126l178 -493h111v-113h-317v113zM520 978.999
c0 58.667 -2.33496 106.499 -7.00195 143.499s-12.667 65.833 -24 86.5s-26.166 34.667 -44.499 42s-40.833 11 -67.5 11h-105v-557h103c26.667 0 49.334 3.16699 68.001 9.5s33.667 19.333 45 39s19.5 47.334 24.5 83.001s7.5 83.167 7.5 142.5zM607.998 1695l-256 -219
l-256 219l60 62l196 -150l197 150z" />
    <glyph glyph-name="rcaron" unicode="&#x159;" horiz-adv-x="479" 
d="M31 952l207 -0.000976562v-90c25.333 42 50.833 72 76.5 90s51.834 27 78.501 27c13.333 0 25.833 -1.83301 37.5 -5.5s22.167 -7.66699 31.5 -12s17.333 -8.83301 24 -13.5l14 -10l-45 -113l-9.5 10c-4.33301 4.66699 -9.5 9.33398 -15.5 14.001
s-12.833 8.66699 -20.5 12s-16.5 5 -26.5 5c-16.667 0 -32.5 -5.16699 -47.5 -15.5s-28.833 -24.333 -41.5 -42s-23.834 -38 -33.501 -61s-17.167 -46.833 -22.5 -71.5v-563h102v-113h-309v113h82v727h-82v112zM511 1300l-256 -219l-256 219l60 62l196 -150l197 150z" />
    <glyph glyph-name="Sacute" unicode="&#x15a;" horiz-adv-x="666" 
d="M49 0l-0.00195312 453.004h109v-162c0 -40.667 5.16699 -74.334 15.5 -101.001s23.333 -48 39 -64s32.667 -27.333 51 -34s35.5 -10 51.5 -10c22.667 0 44.334 4.66699 65.001 14s39 24.166 55 44.499s28.667 46.833 38 79.5s14 72.667 14 120
c0 45.333 -6 84.5 -18 117.5s-28 62 -48 87s-42.667 47.167 -68 66.5l-78 58.5c-26.667 19.667 -52.667 40.167 -78 61.5s-48 46.5 -68 75.5s-36 63 -48 102s-18 85.167 -18 138.5c0 64.667 7.66699 119.334 23 164.001s35 81 59 109s50.5 48.167 79.5 60.5
s57.167 18.5 84.5 18.5c14 0 28.5 -1.66699 43.5 -5s29.667 -8.33301 44 -15s27.833 -15.167 40.5 -25.5s24 -22.5 34 -36.5v57h109v-411h-109v153c0 34 -4.5 62.167 -13.5 84.5s-20 40.166 -33 53.499s-26.833 22.666 -41.5 27.999s-27.667 8 -39 8
c-20.667 0 -40.167 -4.66699 -58.5 -14s-34.333 -23.833 -48 -43.5s-24.5 -44.5 -32.5 -74.5s-12 -65.667 -12 -107s6.16699 -77.166 18.5 -107.499s28.333 -57.333 48 -81s42.334 -45.5 68.001 -65.5l78 -60c26.333 -20 52.333 -41.5 78 -64.5s48.334 -49.5 68.001 -79.5
s35.667 -64.833 48 -104.5s18.5 -86.5 18.5 -140.5c0 -76.667 -8.66699 -139.334 -26 -188.001s-39 -86.834 -65 -114.501s-54.333 -46.667 -85 -57s-59.334 -15.5 -86.001 -15.5c-84 0 -150 32.333 -198 97v-70h-109zM540.998 1652l-291 -176l-43 66l269 209z" />
    <glyph glyph-name="sacute" unicode="&#x15b;" horiz-adv-x="502" 
d="M49 0l-0.00195312 350.004h107v-84c0 -34.667 2.83301 -63.334 8.5 -86.001s12.834 -40.667 21.501 -54s18.5 -22.666 29.5 -27.999s21.833 -8 32.5 -8c10 0 20 2 30 6s19 11.333 27 22s14.5 25.167 19.5 43.5s7.5 42.166 7.5 71.499
c0 39.333 -6.83301 72.666 -20.5 99.999s-30.834 52 -51.501 74s-42.834 43 -66.501 63s-45.834 42.667 -66.501 68s-37.834 55 -51.501 89s-20.5 75.667 -20.5 125c0 35.333 4.5 66.833 13.5 94.5s21 51 36 70s32.167 33.5 51.5 43.5s39 15 59 15
c22.667 0 43.334 -6.66699 62.001 -20s33.667 -32.666 45 -57.999v55h100v-321h-107v80c0 29.333 -1.83301 54 -5.5 74s-8.5 36.167 -14.5 48.5s-13.167 21.166 -21.5 26.499s-17.5 8 -27.5 8c-8.66699 0 -17.167 -1.83301 -25.5 -5.5s-15.833 -9.83398 -22.5 -18.501
s-12 -20.167 -16 -34.5s-6 -32.166 -6 -53.499c0 -40.667 6.83301 -74.334 20.5 -101.001s30.834 -50.667 51.501 -72s42.834 -41.833 66.501 -61.5s45.834 -42.334 66.501 -68.001s37.834 -56.5 51.501 -92.5s20.5 -80.667 20.5 -134c0 -45.333 -5.66699 -83.5 -17 -114.5
s-25.5 -56 -42.5 -75s-35.5 -32.667 -55.5 -41s-38.333 -12.5 -55 -12.5c-32 0 -58.333 7.16699 -79 21.5s-38.667 34.5 -54 60.5v-66h-101zM442.998 1257l-291 -176l-43 66l269 209z" />
    <glyph glyph-name="Scircumflex" unicode="&#x15c;" horiz-adv-x="666" 
d="M49 0l-0.00195312 453.004h109v-162c0 -40.667 5.16699 -74.334 15.5 -101.001s23.333 -48 39 -64s32.667 -27.333 51 -34s35.5 -10 51.5 -10c22.667 0 44.334 4.66699 65.001 14s39 24.166 55 44.499s28.667 46.833 38 79.5s14 72.667 14 120
c0 45.333 -6 84.5 -18 117.5s-28 62 -48 87s-42.667 47.167 -68 66.5l-78 58.5c-26.667 19.667 -52.667 40.167 -78 61.5s-48 46.5 -68 75.5s-36 63 -48 102s-18 85.167 -18 138.5c0 64.667 7.66699 119.334 23 164.001s35 81 59 109s50.5 48.167 79.5 60.5
s57.167 18.5 84.5 18.5c14 0 28.5 -1.66699 43.5 -5s29.667 -8.33301 44 -15s27.833 -15.167 40.5 -25.5s24 -22.5 34 -36.5v57h109v-411h-109v153c0 34 -4.5 62.167 -13.5 84.5s-20 40.166 -33 53.499s-26.833 22.666 -41.5 27.999s-27.667 8 -39 8
c-20.667 0 -40.167 -4.66699 -58.5 -14s-34.333 -23.833 -48 -43.5s-24.5 -44.5 -32.5 -74.5s-12 -65.667 -12 -107s6.16699 -77.166 18.5 -107.499s28.333 -57.333 48 -81s42.334 -45.5 68.001 -65.5l78 -60c26.333 -20 52.333 -41.5 78 -64.5s48.334 -49.5 68.001 -79.5
s35.667 -64.833 48 -104.5s18.5 -86.5 18.5 -140.5c0 -76.667 -8.66699 -139.334 -26 -188.001s-39 -86.834 -65 -114.501s-54.333 -46.667 -85 -57s-59.334 -15.5 -86.001 -15.5c-84 0 -150 32.333 -198 97v-70h-109zM528.998 1476l-197 150l-196 -150l-60 62l256 219
l256 -219z" />
    <glyph glyph-name="scircumflex" unicode="&#x15d;" horiz-adv-x="502" 
d="M49 0l-0.00195312 350.004h107v-84c0 -34.667 2.83301 -63.334 8.5 -86.001s12.834 -40.667 21.501 -54s18.5 -22.666 29.5 -27.999s21.833 -8 32.5 -8c10 0 20 2 30 6s19 11.333 27 22s14.5 25.167 19.5 43.5s7.5 42.166 7.5 71.499
c0 39.333 -6.83301 72.666 -20.5 99.999s-30.834 52 -51.501 74s-42.834 43 -66.501 63s-45.834 42.667 -66.501 68s-37.834 55 -51.501 89s-20.5 75.667 -20.5 125c0 35.333 4.5 66.833 13.5 94.5s21 51 36 70s32.167 33.5 51.5 43.5s39 15 59 15
c22.667 0 43.334 -6.66699 62.001 -20s33.667 -32.666 45 -57.999v55h100v-321h-107v80c0 29.333 -1.83301 54 -5.5 74s-8.5 36.167 -14.5 48.5s-13.167 21.166 -21.5 26.499s-17.5 8 -27.5 8c-8.66699 0 -17.167 -1.83301 -25.5 -5.5s-15.833 -9.83398 -22.5 -18.501
s-12 -20.167 -16 -34.5s-6 -32.166 -6 -53.499c0 -40.667 6.83301 -74.334 20.5 -101.001s30.834 -50.667 51.501 -72s42.834 -41.833 66.501 -61.5s45.834 -42.334 66.501 -68.001s37.834 -56.5 51.501 -92.5s20.5 -80.667 20.5 -134c0 -45.333 -5.66699 -83.5 -17 -114.5
s-25.5 -56 -42.5 -75s-35.5 -32.667 -55.5 -41s-38.333 -12.5 -55 -12.5c-32 0 -58.333 7.16699 -79 21.5s-38.667 34.5 -54 60.5v-66h-101zM430.998 1081l-197 150l-196 -150l-60 62l256 219l256 -219z" />
    <glyph glyph-name="Scedilla" unicode="&#x15e;" horiz-adv-x="666" 
d="M49 0l-0.000976562 452.999h109v-162c0 -40.667 5.16699 -74.334 15.5 -101.001s23.333 -48 39 -64s32.667 -27.333 51 -34s35.5 -10 51.5 -10c22.667 0 44.334 4.66699 65.001 14s39 24.166 55 44.499s28.667 46.833 38 79.5s14 72.667 14 120
c0 45.333 -6 84.5 -18 117.5s-28 62 -48 87s-42.667 47.167 -68 66.5l-78 58.5c-26.667 19.667 -52.667 40.167 -78 61.5s-48 46.5 -68 75.5s-36 63 -48 102s-18 85.167 -18 138.5c0 64.667 7.66699 119.334 23 164.001s35 81 59 109s50.5 48.167 79.5 60.5
s57.167 18.5 84.5 18.5c14 0 28.5 -1.66699 43.5 -5s29.667 -8.33301 44 -15s27.833 -15.167 40.5 -25.5s24 -22.5 34 -36.5v57h109v-411h-109v153c0 34 -4.5 62.167 -13.5 84.5s-20 40.166 -33 53.499s-26.833 22.666 -41.5 27.999s-27.667 8 -39 8
c-20.667 0 -40.167 -4.66699 -58.5 -14s-34.333 -23.833 -48 -43.5s-24.5 -44.5 -32.5 -74.5s-12 -65.667 -12 -107s6.16699 -77.166 18.5 -107.499s28.333 -57.333 48 -81s42.334 -45.5 68.001 -65.5l78 -60c26.333 -20 52.333 -41.5 78 -64.5s48.334 -49.5 68.001 -79.5
s35.667 -64.833 48 -104.5s18.5 -86.5 18.5 -140.5c0 -48 -3.5 -90.333 -10.5 -127s-16.667 -68.667 -29 -96s-26.5 -50.166 -42.5 -68.499s-33 -33.333 -51 -45s-36.5 -20.334 -55.5 -26.001s-37.167 -9.16699 -54.5 -10.5l-17 -73c14 0 29.5 -2.33301 46.5 -7
s32.833 -12.5 47.5 -23.5s27 -25.667 37 -44s15 -41.5 15 -69.5c0 -30 -5.5 -55.167 -16.5 -75.5s-25.333 -36.666 -43 -48.999s-37.334 -21.166 -59.001 -26.499s-42.834 -8 -63.501 -8c-42 0 -78.167 5.5 -108.5 16.5s-53.833 21.167 -70.5 30.5l50 88
c15.333 -12.667 32.833 -23.334 52.5 -32.001s40.834 -13 63.501 -13c29.333 0 52 6.33301 68 19s24 29.334 24 50.001c0 12.667 -2.66699 23.334 -8 32.001s-12.5 15.5 -21.5 20.5s-19 8.5 -30 10.5s-22.5 3 -34.5 3c-20 0 -39 -2 -57 -6l39 164
c-52.667 12 -96.334 41.333 -131.001 88v-70h-109z" />
    <glyph glyph-name="scedilla" unicode="&#x15f;" horiz-adv-x="502" 
d="M49 0l-0.00195312 350h107v-84c0 -34.667 2.83301 -63.334 8.5 -86.001s12.834 -40.667 21.501 -54s18.5 -22.666 29.5 -27.999s21.833 -8 32.5 -8c10 0 20 2 30 6s19 11.333 27 22s14.5 25.167 19.5 43.5s7.5 42.166 7.5 71.499c0 39.333 -6.83301 72.666 -20.5 99.999
s-30.834 52 -51.501 74s-42.834 43 -66.501 63s-45.834 42.667 -66.501 68s-37.834 55 -51.501 89s-20.5 75.667 -20.5 125c0 35.333 4.5 66.833 13.5 94.5s21 51 36 70s32.167 33.5 51.5 43.5s39 15 59 15c22.667 0 43.334 -6.66699 62.001 -20s33.667 -32.666 45 -57.999
v55h100v-321h-107v80c0 29.333 -1.83301 54 -5.5 74s-8.5 36.167 -14.5 48.5s-13.167 21.166 -21.5 26.499s-17.5 8 -27.5 8c-8.66699 0 -17.167 -1.83301 -25.5 -5.5s-15.833 -9.83398 -22.5 -18.501s-12 -20.167 -16 -34.5s-6 -32.166 -6 -53.499
c0 -40.667 6.83301 -74.334 20.5 -101.001s30.834 -50.667 51.501 -72s42.834 -41.833 66.501 -61.5s45.834 -42.334 66.501 -68.001s37.834 -56.5 51.501 -92.5s20.5 -80.667 20.5 -134c0 -43.333 -5.33301 -80.166 -16 -110.499s-24 -55 -40 -74
s-33.5 -33.167 -52.5 -42.5s-36.833 -14.666 -53.5 -15.999l-19 -82c14 0 29.5 -2.33301 46.5 -7s32.833 -12.5 47.5 -23.5s27 -25.667 37 -44s15 -41.5 15 -69.5c0 -30 -5.66699 -55.167 -17 -75.5s-25.666 -36.666 -42.999 -48.999s-36.833 -21.166 -58.5 -26.499
s-42.834 -8 -63.501 -8c-42 0 -78.167 5.5 -108.5 16.5s-53.833 21.167 -70.5 30.5l49 88c15.333 -12.667 33 -23.334 53 -32.001s41.333 -13 64 -13c29.333 0 52 6.33301 68 19s24 29.334 24 50.001c0 12.667 -2.66699 23.334 -8 32.001s-12.5 15.5 -21.5 20.5
s-19 8.5 -30 10.5s-22.5 3 -34.5 3c-20 0 -39 -2 -57 -6l45 184c-12.667 7.33301 -23.667 16.166 -33 26.499s-18 22.833 -26 37.5v-66h-101z" />
    <glyph glyph-name="Scaron" unicode="&#x160;" horiz-adv-x="666" 
d="M49 0l-0.00195312 453.004h109v-162c0 -40.667 5.16699 -74.334 15.5 -101.001s23.333 -48 39 -64s32.667 -27.333 51 -34s35.5 -10 51.5 -10c22.667 0 44.334 4.66699 65.001 14s39 24.166 55 44.499s28.667 46.833 38 79.5s14 72.667 14 120
c0 45.333 -6 84.5 -18 117.5s-28 62 -48 87s-42.667 47.167 -68 66.5l-78 58.5c-26.667 19.667 -52.667 40.167 -78 61.5s-48 46.5 -68 75.5s-36 63 -48 102s-18 85.167 -18 138.5c0 64.667 7.66699 119.334 23 164.001s35 81 59 109s50.5 48.167 79.5 60.5
s57.167 18.5 84.5 18.5c14 0 28.5 -1.66699 43.5 -5s29.667 -8.33301 44 -15s27.833 -15.167 40.5 -25.5s24 -22.5 34 -36.5v57h109v-411h-109v153c0 34 -4.5 62.167 -13.5 84.5s-20 40.166 -33 53.499s-26.833 22.666 -41.5 27.999s-27.667 8 -39 8
c-20.667 0 -40.167 -4.66699 -58.5 -14s-34.333 -23.833 -48 -43.5s-24.5 -44.5 -32.5 -74.5s-12 -65.667 -12 -107s6.16699 -77.166 18.5 -107.499s28.333 -57.333 48 -81s42.334 -45.5 68.001 -65.5l78 -60c26.333 -20 52.333 -41.5 78 -64.5s48.334 -49.5 68.001 -79.5
s35.667 -64.833 48 -104.5s18.5 -86.5 18.5 -140.5c0 -76.667 -8.66699 -139.334 -26 -188.001s-39 -86.834 -65 -114.501s-54.333 -46.667 -85 -57s-59.334 -15.5 -86.001 -15.5c-84 0 -150 32.333 -198 97v-70h-109zM587.998 1695l-256 -219l-256 219l60 62l196 -150
l197 150z" />
    <glyph glyph-name="scaron" unicode="&#x161;" horiz-adv-x="502" 
d="M49 0l-0.00195312 350.004h107v-84c0 -34.667 2.83301 -63.334 8.5 -86.001s12.834 -40.667 21.501 -54s18.5 -22.666 29.5 -27.999s21.833 -8 32.5 -8c10 0 20 2 30 6s19 11.333 27 22s14.5 25.167 19.5 43.5s7.5 42.166 7.5 71.499
c0 39.333 -6.83301 72.666 -20.5 99.999s-30.834 52 -51.501 74s-42.834 43 -66.501 63s-45.834 42.667 -66.501 68s-37.834 55 -51.501 89s-20.5 75.667 -20.5 125c0 35.333 4.5 66.833 13.5 94.5s21 51 36 70s32.167 33.5 51.5 43.5s39 15 59 15
c22.667 0 43.334 -6.66699 62.001 -20s33.667 -32.666 45 -57.999v55h100v-321h-107v80c0 29.333 -1.83301 54 -5.5 74s-8.5 36.167 -14.5 48.5s-13.167 21.166 -21.5 26.499s-17.5 8 -27.5 8c-8.66699 0 -17.167 -1.83301 -25.5 -5.5s-15.833 -9.83398 -22.5 -18.501
s-12 -20.167 -16 -34.5s-6 -32.166 -6 -53.499c0 -40.667 6.83301 -74.334 20.5 -101.001s30.834 -50.667 51.501 -72s42.834 -41.833 66.501 -61.5s45.834 -42.334 66.501 -68.001s37.834 -56.5 51.501 -92.5s20.5 -80.667 20.5 -134c0 -45.333 -5.66699 -83.5 -17 -114.5
s-25.5 -56 -42.5 -75s-35.5 -32.667 -55.5 -41s-38.333 -12.5 -55 -12.5c-32 0 -58.333 7.16699 -79 21.5s-38.667 34.5 -54 60.5v-66h-101zM489.998 1300l-256 -219l-256 219l60 62l196 -150l197 150z" />
    <glyph glyph-name="Tcommaaccent" unicode="&#x162;" horiz-adv-x="756" 
d="M41 942v432h674v-432h-109v322h-166v-1151h144v-113h-412v113h143v1151h-165v-322h-109zM376 -416h-100l39 273h143z" />
    <glyph glyph-name="tcommaaccent" unicode="&#x163;" horiz-adv-x="420" 
d="M295 94c19.333 0 36.002 4.66895 50.002 14.002s27.333 19.666 40 30.999l55 -96c-7.33301 -6.66699 -16.166 -14 -26.499 -22s-22.333 -15.333 -36 -22s-28.834 -12.334 -45.501 -17.001s-34.334 -7 -53.001 -7c-54.667 0 -97.834 18.5 -129.501 55.5
s-47.5 93.167 -47.5 168.5v641h-114v112h114v289h125v-289h166v-112h-166v-641c0 -36 5.66699 -62.5 17 -79.5s28.333 -25.5 51 -25.5zM246.002 -415.998h-100l39 273h143z" />
    <glyph glyph-name="Tcaron" unicode="&#x164;" horiz-adv-x="756" 
d="M41 942v432h674v-432h-109v322h-166v-1151h144v-113h-412v113h143v1151h-165v-322h-109zM635 1695l-256 -219l-256 219l60 62l196 -150l197 150z" />
    <glyph glyph-name="tcaron" unicode="&#x165;" horiz-adv-x="504" 
d="M295 94c19.333 0 36.002 4.66895 50.002 14.002s27.333 19.666 40 30.999l55 -96c-7.33301 -6.66699 -16.166 -14 -26.499 -22s-22.333 -15.333 -36 -22s-28.834 -12.334 -45.501 -17.001s-34.334 -7 -53.001 -7c-54.667 0 -97.834 18.5 -129.501 55.5
s-47.5 93.167 -47.5 168.5v641h-114v112h114v289h125v-289h166v-112h-166v-641c0 -36 5.66699 -62.5 17 -79.5s28.333 -25.5 51 -25.5zM401.002 1081h-100l39 273h143z" />
    <glyph glyph-name="Tbar" unicode="&#x166;" horiz-adv-x="756" 
d="M440 686v-573h144v-113h-412v113h143v573h-198v105h198v473h-165v-322h-109v432h674v-432h-109v322h-166v-473h197v-105h-197z" />
    <glyph glyph-name="tbar" unicode="&#x167;" horiz-adv-x="420" 
d="M227 557l0.00195312 -357.998c0 -36 5.66699 -62.5 17 -79.5s28.333 -25.5 51 -25.5c19.333 0 36 4.66699 50 14s27.333 19.666 40 30.999l55 -96c-7.33301 -6.66699 -16.166 -14 -26.499 -22s-22.333 -15.333 -36 -22s-28.834 -12.334 -45.501 -17.001
s-34.334 -7 -53.001 -7c-54.667 0 -97.834 18.5 -129.501 55.5s-47.5 93.167 -47.5 168.5v358h-94v105h94v178h-114v112h114v289h125v-289h166v-112h-166v-178h154v-105h-154z" />
    <glyph glyph-name="Utilde" unicode="&#x168;" horiz-adv-x="821" 
d="M10 1374h371v-112h-123v-881c0 -46 1.33301 -87.333 4 -124s9 -67.834 19 -93.501s25.333 -45.334 46 -59.001s49 -20.5 85 -20.5s64 6.83301 84 20.5s35 33.334 45 59.001s16.167 56.834 18.5 93.501s3.5 78 3.5 124v881h-123v112h371v-112h-123v-897
c0 -72 -4.83301 -132.833 -14.5 -182.5s-25.334 -90 -47.001 -121s-50.167 -53.5 -85.5 -67.5s-78.333 -21 -129 -21c-51.333 0 -94.666 7 -129.999 21s-64 36.5 -86 67.5s-38 71.333 -48 121s-15 110.5 -15 182.5v897h-123v112zM643 1706
c0 -17.333 -2.5 -38.6689 -7.5 -64.002s-12.667 -49.666 -23 -72.999s-23.833 -43.166 -40.5 -59.499s-36.667 -24.5 -60 -24.5s-44.333 6.16699 -63 18.5s-35.834 26 -51.501 41l-42.5 41.5c-12.667 12.667 -24.667 19 -36 19c-12 0 -21.667 -5 -29 -15
s-12.833 -21.667 -16.5 -35s-6 -26.666 -7 -39.999s-1.83301 -23.333 -2.5 -30h-88c0 16.667 2.5 37.5 7.5 62.5s12.667 49.333 23 73s24 43.834 41 60.501s37.5 25 61.5 25c22.667 0 43.334 -6.33301 62.001 -19s35.5 -26.5 50.5 -41.5l41.5 -41.5
c12.667 -12.667 24.667 -19 36 -19c12 0 21.667 5 29 15s12.833 21.667 16.5 35s6.16699 26.666 7.5 39.999s2.33301 23.666 3 30.999h88v0z" />
    <glyph glyph-name="utilde" unicode="&#x169;" horiz-adv-x="637" 
d="M612 0h-206v109c-10 -28 -20.833 -50.833 -32.5 -68.5s-24 -31.5 -37 -41.5s-26.667 -16.833 -41 -20.5s-28.833 -5.5 -43.5 -5.5c-19.333 0 -38 3.66699 -56 11s-34 20 -48 38s-25.167 42.167 -33.5 72.5s-12.5 68.5 -12.5 114.5v631h-82v112h207v-680
c0 -38 1.33301 -69 4 -93s6.5 -42.833 11.5 -56.5s11.167 -23.167 18.5 -28.5s15.333 -8 24 -8c14.667 0 28.667 7.33301 42 22s25.5 33.5 36.5 56.5s20.167 49 27.5 78s12.333 57.5 15 85.5v512h-103v112h227v-839h82v-113zM538 1311c0 -17.333 -2.5 -38.6689 -7.5 -64.002
s-12.667 -49.666 -23 -72.999s-23.833 -43.166 -40.5 -59.499s-36.667 -24.5 -60 -24.5s-44.333 6.16699 -63 18.5s-35.834 26 -51.501 41l-42.5 41.5c-12.667 12.667 -24.667 19 -36 19c-12 0 -21.667 -5 -29 -15s-12.833 -21.667 -16.5 -35s-6 -26.666 -7 -39.999
s-1.83301 -23.333 -2.5 -30h-88c0 16.667 2.5 37.5 7.5 62.5s12.667 49.333 23 73s24 43.834 41 60.501s37.5 25 61.5 25c22.667 0 43.334 -6.33301 62.001 -19s35.5 -26.5 50.5 -41.5l41.5 -41.5c12.667 -12.667 24.667 -19 36 -19c12 0 21.667 5 29 15
s12.833 21.667 16.5 35s6.16699 26.666 7.5 39.999s2.33301 23.666 3 30.999h88v0z" />
    <glyph glyph-name="Umacron" unicode="&#x16a;" horiz-adv-x="821" 
d="M10 1374h371v-112h-123v-881c0 -46 1.33301 -87.333 4 -124s9 -67.834 19 -93.501s25.333 -45.334 46 -59.001s49 -20.5 85 -20.5s64 6.83301 84 20.5s35 33.334 45 59.001s16.167 56.834 18.5 93.501s3.5 78 3.5 124v881h-123v112h371v-112h-123v-897
c0 -72 -4.83301 -132.833 -14.5 -182.5s-25.334 -90 -47.001 -121s-50.167 -53.5 -85.5 -67.5s-78.333 -21 -129 -21c-51.333 0 -94.666 7 -129.999 21s-64 36.5 -86 67.5s-38 71.333 -48 121s-15 110.5 -15 182.5v897h-123v112zM217 1507v105h385v-105h-385z" />
    <glyph glyph-name="umacron" unicode="&#x16b;" horiz-adv-x="637" 
d="M612 0h-206v109c-10 -28 -20.833 -50.833 -32.5 -68.5s-24 -31.5 -37 -41.5s-26.667 -16.833 -41 -20.5s-28.833 -5.5 -43.5 -5.5c-19.333 0 -38 3.66699 -56 11s-34 20 -48 38s-25.167 42.167 -33.5 72.5s-12.5 68.5 -12.5 114.5v631h-82v112h207v-680
c0 -38 1.33301 -69 4 -93s6.5 -42.833 11.5 -56.5s11.167 -23.167 18.5 -28.5s15.333 -8 24 -8c14.667 0 28.667 7.33301 42 22s25.5 33.5 36.5 56.5s20.167 49 27.5 78s12.333 57.5 15 85.5v512h-103v112h227v-839h82v-113zM112 1112v105h385v-105h-385z" />
    <glyph glyph-name="Ubreve" unicode="&#x16c;" horiz-adv-x="821" 
d="M10 1374h371v-112h-123v-881c0 -46 1.33301 -87.333 4 -124s9 -67.834 19 -93.501s25.333 -45.334 46 -59.001s49 -20.5 85 -20.5s64 6.83301 84 20.5s35 33.334 45 59.001s16.167 56.834 18.5 93.501s3.5 78 3.5 124v881h-123v112h371v-112h-123v-897
c0 -72 -4.83301 -132.833 -14.5 -182.5s-25.334 -90 -47.001 -121s-50.167 -53.5 -85.5 -67.5s-78.333 -21 -129 -21c-51.333 0 -94.666 7 -129.999 21s-64 36.5 -86 67.5s-38 71.333 -48 121s-15 110.5 -15 182.5v897h-123v112zM632 1706
c-4 -24.667 -10.333 -49.834 -19 -75.501s-21.5 -49 -38.5 -70s-38.833 -38.167 -65.5 -51.5s-60 -20 -100 -20s-73.333 6.66699 -100 20s-48.167 30.5 -64.5 51.5s-28.833 44.333 -37.5 70s-15 50.834 -19 75.501h102c2 -12 5.33301 -25 10 -39s11.5 -27 20.5 -39
s20.667 -22.167 35 -30.5s32.166 -12.5 53.499 -12.5c22.667 0 41.334 4.16699 56.001 12.5s26.667 18.5 36 30.5s16.333 25 21 39s8 27 10 39h100v0z" />
    <glyph glyph-name="ubreve" unicode="&#x16d;" horiz-adv-x="637" 
d="M612 0h-206v109c-10 -28 -20.833 -50.833 -32.5 -68.5s-24 -31.5 -37 -41.5s-26.667 -16.833 -41 -20.5s-28.833 -5.5 -43.5 -5.5c-19.333 0 -38 3.66699 -56 11s-34 20 -48 38s-25.167 42.167 -33.5 72.5s-12.5 68.5 -12.5 114.5v631h-82v112h207v-680
c0 -38 1.33301 -69 4 -93s6.5 -42.833 11.5 -56.5s11.167 -23.167 18.5 -28.5s15.333 -8 24 -8c14.667 0 28.667 7.33301 42 22s25.5 33.5 36.5 56.5s20.167 49 27.5 78s12.333 57.5 15 85.5v512h-103v112h227v-839h82v-113zM527 1311
c-4 -24.667 -10.333 -49.834 -19 -75.501s-21.5 -49 -38.5 -70s-38.833 -38.167 -65.5 -51.5s-60 -20 -100 -20s-73.333 6.66699 -100 20s-48.167 30.5 -64.5 51.5s-28.833 44.333 -37.5 70s-15 50.834 -19 75.501h102c2 -12 5.33301 -25 10 -39s11.5 -27 20.5 -39
s20.667 -22.167 35 -30.5s32.166 -12.5 53.499 -12.5c22.667 0 41.334 4.16699 56.001 12.5s26.667 18.5 36 30.5s16.333 25 21 39s8 27 10 39h100v0z" />
    <glyph glyph-name="Uring" unicode="&#x16e;" horiz-adv-x="821" 
d="M10 1374h371v-112h-123v-881c0 -46 1.33301 -87.333 4 -124s9 -67.834 19 -93.501s25.333 -45.334 46 -59.001s49 -20.5 85 -20.5s64 6.83301 84 20.5s35 33.334 45 59.001s16.167 56.834 18.5 93.501s3.5 78 3.5 124v881h-123v112h371v-112h-123v-897
c0 -72 -4.83301 -132.833 -14.5 -182.5s-25.334 -90 -47.001 -121s-50.167 -53.5 -85.5 -67.5s-78.333 -21 -129 -21c-51.333 0 -94.666 7 -129.999 21s-64 36.5 -86 67.5s-38 71.333 -48 121s-15 110.5 -15 182.5v897h-123v112zM221 1640c0 26 5 50.5 15 73.5
s23.5 43 40.5 60s37 30.5 60 40.5s47.5 15 73.5 15s50.333 -5 73 -15s42.5 -23.5 59.5 -40.5s30.5 -37 40.5 -60s15 -47.5 15 -73.5s-5 -50.5 -15 -73.5s-23.5 -43 -40.5 -60s-36.833 -30.333 -59.5 -40s-47 -14.5 -73 -14.5s-50.5 4.83301 -73.5 14.5s-43 23 -60 40
s-30.5 37 -40.5 60s-15 47.5 -15 73.5zM313 1640c0 -26.667 9.33301 -49.334 28 -68.001s41.667 -28 69 -28c26.667 0 49.334 9.33301 68.001 28s28 41.334 28 68.001s-9.33301 49.334 -28 68.001s-41.334 28 -68.001 28c-27.333 0 -50.333 -9.33301 -69 -28
s-28 -41.334 -28 -68.001z" />
    <glyph glyph-name="uring" unicode="&#x16f;" horiz-adv-x="637" 
d="M612 0h-206v109c-10 -28 -20.833 -50.833 -32.5 -68.5s-24 -31.5 -37 -41.5s-26.667 -16.833 -41 -20.5s-28.833 -5.5 -43.5 -5.5c-19.333 0 -38 3.66699 -56 11s-34 20 -48 38s-25.167 42.167 -33.5 72.5s-12.5 68.5 -12.5 114.5v631h-82v112h207v-680
c0 -38 1.33301 -69 4 -93s6.5 -42.833 11.5 -56.5s11.167 -23.167 18.5 -28.5s15.333 -8 24 -8c14.667 0 28.667 7.33301 42 22s25.5 33.5 36.5 56.5s20.167 49 27.5 78s12.333 57.5 15 85.5v512h-103v112h227v-839h82v-113zM116 1245c0 26 5 50.5 15 73.5s23.5 43 40.5 60
s37 30.5 60 40.5s47.5 15 73.5 15s50.333 -5 73 -15s42.5 -23.5 59.5 -40.5s30.5 -37 40.5 -60s15 -47.5 15 -73.5s-5 -50.5 -15 -73.5s-23.5 -43 -40.5 -60s-36.833 -30.333 -59.5 -40s-47 -14.5 -73 -14.5s-50.5 4.83301 -73.5 14.5s-43 23 -60 40s-30.5 37 -40.5 60
s-15 47.5 -15 73.5zM208 1245c0 -26.667 9.33301 -49.334 28 -68.001s41.667 -28 69 -28c26.667 0 49.334 9.33301 68.001 28s28 41.334 28 68.001s-9.33301 49.334 -28 68.001s-41.334 28 -68.001 28c-27.333 0 -50.333 -9.33301 -69 -28s-28 -41.334 -28 -68.001z" />
    </font>
</defs>
</svg>
